G75*
%MOIN*%
%OFA0B0*%
%FSLAX25Y25*%
%IPPOS*%
%LPD*%
%AMOC8*
5,1,8,0,0,1.08239X$1,22.5*
%
%ADD10R,0.04331X0.03937*%
%ADD11R,0.02362X0.04724*%
%ADD12R,0.02559X0.06083*%
%ADD13R,0.06083X0.02559*%
%ADD14R,0.03937X0.04331*%
%ADD15R,0.06004X0.02559*%
%ADD16R,0.10669X0.13189*%
%ADD17R,0.08661X0.24803*%
%ADD18R,0.03858X0.03425*%
%ADD19R,0.04724X0.02362*%
%ADD20R,0.04134X0.02362*%
%ADD21R,0.02362X0.04921*%
D10*
X0125454Y0084300D03*
X0132146Y0084300D03*
X0153954Y0078800D03*
X0160646Y0078800D03*
X0174800Y0068146D03*
X0174800Y0061454D03*
X0179954Y0083300D03*
X0186646Y0083300D03*
X0132646Y0142300D03*
X0125954Y0142300D03*
X0124300Y0157454D03*
X0124300Y0164146D03*
X0114800Y0164146D03*
X0114800Y0157454D03*
X0135800Y0172454D03*
X0135800Y0179146D03*
X0147800Y0179146D03*
X0147800Y0172454D03*
X0159800Y0173454D03*
X0159800Y0180146D03*
X0171300Y0166146D03*
X0171300Y0159454D03*
X0142146Y0196800D03*
X0135454Y0196800D03*
X0158800Y0219454D03*
X0158800Y0226146D03*
X0159146Y0264300D03*
X0152454Y0264300D03*
X0167800Y0268454D03*
X0167800Y0275146D03*
X0125146Y0303300D03*
X0118454Y0303300D03*
X0111300Y0218146D03*
X0111300Y0211454D03*
X0201800Y0210454D03*
X0201800Y0217146D03*
D11*
X0201229Y0251625D03*
X0197489Y0251625D03*
X0193749Y0251625D03*
X0193749Y0261468D03*
X0201229Y0261468D03*
X0159040Y0209721D03*
X0151560Y0209721D03*
X0151560Y0199879D03*
X0155300Y0199879D03*
X0159040Y0199879D03*
X0162040Y0164721D03*
X0154560Y0164721D03*
X0154560Y0154879D03*
X0158300Y0154879D03*
X0162040Y0154879D03*
X0141040Y0153879D03*
X0137300Y0153879D03*
X0133560Y0153879D03*
X0133560Y0163721D03*
X0141040Y0163721D03*
D12*
X0139800Y0222060D03*
X0134800Y0222060D03*
X0129800Y0222060D03*
X0124800Y0222060D03*
X0119800Y0222060D03*
X0119800Y0243540D03*
X0124800Y0243540D03*
X0129800Y0243540D03*
X0134800Y0243540D03*
X0139800Y0243540D03*
X0144800Y0243540D03*
X0149800Y0243540D03*
X0149800Y0222060D03*
X0144800Y0222060D03*
D13*
X0169560Y0223800D03*
X0169560Y0218800D03*
X0169560Y0213800D03*
X0169560Y0208800D03*
X0169560Y0228800D03*
X0169560Y0233800D03*
X0169560Y0238800D03*
X0191040Y0238800D03*
X0191040Y0233800D03*
X0191040Y0228800D03*
X0191040Y0223800D03*
X0191040Y0218800D03*
X0191040Y0213800D03*
X0191040Y0208800D03*
D14*
X0174280Y0199979D03*
X0174280Y0193286D03*
X0174146Y0186300D03*
X0167454Y0186300D03*
X0158146Y0190300D03*
X0151454Y0190300D03*
X0167954Y0175300D03*
X0174646Y0175300D03*
X0127146Y0188300D03*
X0120454Y0188300D03*
X0117800Y0179646D03*
X0117800Y0172954D03*
X0099646Y0199300D03*
X0092954Y0199300D03*
X0085800Y0164146D03*
X0085800Y0157454D03*
X0125800Y0203954D03*
X0125800Y0210646D03*
X0131278Y0266710D03*
X0137971Y0266710D03*
X0152454Y0273800D03*
X0159146Y0273800D03*
X0164454Y0282800D03*
X0171146Y0282800D03*
X0183300Y0275146D03*
X0183300Y0268454D03*
X0179646Y0257300D03*
X0172954Y0257300D03*
X0151800Y0286454D03*
X0151800Y0293146D03*
X0107646Y0275800D03*
X0100954Y0275800D03*
X0103300Y0283954D03*
X0103300Y0290646D03*
X0198300Y0275093D03*
X0198300Y0268400D03*
X0201454Y0238300D03*
X0208146Y0238300D03*
X0161146Y0034800D03*
X0154454Y0034800D03*
D15*
X0140383Y0279300D03*
X0140383Y0284300D03*
X0140383Y0289300D03*
X0140383Y0294300D03*
X0119217Y0294300D03*
X0119217Y0289300D03*
X0119217Y0284300D03*
X0119217Y0279300D03*
D16*
X0129800Y0286800D03*
D17*
X0162926Y0304800D03*
X0178713Y0304800D03*
D18*
X0094800Y0290509D03*
X0094800Y0284091D03*
D19*
X0097379Y0164040D03*
X0097379Y0160300D03*
X0097379Y0156560D03*
X0107221Y0156560D03*
X0107221Y0164040D03*
D20*
X0135469Y0206060D03*
X0135469Y0213540D03*
X0144131Y0209800D03*
D21*
X0161560Y0143434D03*
X0165300Y0135166D03*
X0169040Y0143434D03*
M02*
