G75*
%MOIN*%
%OFA0B0*%
%FSLAX25Y25*%
%IPPOS*%
%LPD*%
%AMOC8*
5,1,8,0,0,1.08239X$1,22.5*
%
%ADD10R,0.05131X0.04737*%
%ADD11R,0.04737X0.05131*%
%ADD12R,0.06808X0.03359*%
%ADD13R,0.05524X0.03162*%
%ADD14R,0.05950X0.05950*%
%ADD15C,0.05950*%
%ADD16C,0.10603*%
%ADD17R,0.03162X0.05524*%
%ADD18R,0.06804X0.03359*%
%ADD19R,0.14186X0.11469*%
%ADD20R,0.06824X0.06824*%
%ADD21C,0.06824*%
%ADD22C,0.06800*%
%ADD23R,0.14776X0.13398*%
%ADD24C,0.06698*%
%ADD25R,0.06698X0.06698*%
%ADD26C,0.05556*%
%ADD27R,0.06553X0.02772*%
%ADD28R,0.02772X0.06553*%
%ADD29C,0.22296*%
%ADD30C,0.10249*%
%ADD31R,0.05544X0.05544*%
%ADD32C,0.05544*%
%ADD33C,0.13800*%
%ADD34C,0.03778*%
%ADD35C,0.04959*%
%ADD36C,0.04172*%
%ADD37C,0.04565*%
%ADD38C,0.03975*%
D10*
X0058954Y0069800D03*
X0065646Y0069800D03*
X0120800Y0068646D03*
X0120800Y0061954D03*
X0120300Y0055646D03*
X0120300Y0048954D03*
X0147300Y0103954D03*
X0147300Y0110646D03*
X0156454Y0110300D03*
X0163146Y0110300D03*
X0169800Y0094646D03*
X0169800Y0087954D03*
X0147146Y0125800D03*
X0140454Y0125800D03*
X0144454Y0135300D03*
X0151146Y0135300D03*
X0147800Y0144954D03*
X0147800Y0151646D03*
X0128800Y0150454D03*
X0128800Y0157146D03*
X0118800Y0154454D03*
X0118800Y0161146D03*
X0118954Y0246800D03*
X0125646Y0246800D03*
X0107300Y0257954D03*
X0107300Y0264646D03*
X0096800Y0264646D03*
X0096800Y0257954D03*
X0206454Y0063800D03*
X0213146Y0063800D03*
D11*
X0198646Y0086300D03*
X0191954Y0086300D03*
X0182800Y0082646D03*
X0182800Y0075954D03*
X0180454Y0067800D03*
X0187146Y0067800D03*
X0184159Y0056752D03*
X0190852Y0056752D03*
X0172646Y0056300D03*
X0165954Y0056300D03*
X0163800Y0048646D03*
X0163800Y0041954D03*
X0121146Y0039300D03*
X0114454Y0039300D03*
X0116300Y0102454D03*
X0116300Y0109146D03*
X0165800Y0121954D03*
X0165800Y0128646D03*
X0171300Y0112146D03*
X0171300Y0105454D03*
X0188954Y0115800D03*
X0195646Y0115800D03*
X0213300Y0105146D03*
X0213300Y0098454D03*
X0195146Y0230800D03*
X0188454Y0230800D03*
X0188454Y0239800D03*
X0195146Y0239800D03*
X0163300Y0248954D03*
X0163300Y0255646D03*
X0152800Y0255646D03*
X0152800Y0248954D03*
X0060300Y0115146D03*
X0060300Y0108454D03*
X0060300Y0100146D03*
X0060300Y0093454D03*
X0060800Y0086146D03*
X0060800Y0079454D03*
D12*
X0182123Y0093300D03*
X0182123Y0098300D03*
X0182123Y0103300D03*
X0182123Y0108300D03*
X0203477Y0108300D03*
X0203477Y0103300D03*
X0203477Y0098300D03*
X0203477Y0093300D03*
D13*
X0206221Y0079040D03*
X0206221Y0075300D03*
X0206221Y0071560D03*
X0196379Y0071560D03*
X0196379Y0079040D03*
X0172221Y0071040D03*
X0172221Y0067300D03*
X0172221Y0063560D03*
X0162379Y0063560D03*
X0162379Y0067300D03*
X0162379Y0071040D03*
X0151221Y0050540D03*
X0151221Y0043060D03*
X0141379Y0043060D03*
X0141379Y0046800D03*
X0141379Y0050540D03*
D14*
X0078300Y0312300D03*
D15*
X0086174Y0312300D03*
X0094048Y0312300D03*
D16*
X0102316Y0312300D03*
X0070032Y0312300D03*
D17*
X0145560Y0070721D03*
X0149300Y0070721D03*
X0153040Y0070721D03*
X0153040Y0060879D03*
X0149300Y0060879D03*
X0145560Y0060879D03*
X0177060Y0045721D03*
X0180800Y0045721D03*
X0184540Y0045721D03*
X0184540Y0035879D03*
X0177060Y0035879D03*
D18*
X0140263Y0255344D03*
X0140263Y0260344D03*
X0140263Y0265344D03*
X0140263Y0270344D03*
X0118909Y0270344D03*
X0118909Y0265344D03*
X0118909Y0260344D03*
X0118909Y0255344D03*
D19*
X0129586Y0262844D03*
D20*
X0074860Y0116851D03*
X0131800Y0041300D03*
D21*
X0131800Y0051300D03*
X0131800Y0061300D03*
X0131800Y0071300D03*
X0104860Y0116851D03*
X0094860Y0116851D03*
X0084860Y0116851D03*
D22*
X0187300Y0155800D03*
X0197300Y0155800D03*
X0197846Y0171582D03*
X0187846Y0171582D03*
D23*
X0096596Y0026618D03*
X0061163Y0026618D03*
D24*
X0051158Y0131005D03*
X0051158Y0156595D03*
X0051658Y0169005D03*
X0033442Y0156595D03*
X0033942Y0194595D03*
X0051658Y0194595D03*
X0051158Y0204505D03*
X0051158Y0230095D03*
X0033442Y0230095D03*
D25*
X0033442Y0204505D03*
X0033942Y0169005D03*
X0033442Y0131005D03*
D26*
X0182800Y0133300D03*
X0187800Y0128300D03*
X0192800Y0133300D03*
X0187800Y0138300D03*
D27*
X0106032Y0096824D03*
X0106032Y0093674D03*
X0106032Y0090524D03*
X0106032Y0087375D03*
X0106032Y0084225D03*
X0106032Y0081076D03*
X0106032Y0077926D03*
X0106032Y0074776D03*
X0072568Y0074776D03*
X0072568Y0077926D03*
X0072568Y0081076D03*
X0072568Y0084225D03*
X0072568Y0087375D03*
X0072568Y0090524D03*
X0072568Y0093674D03*
X0072568Y0096824D03*
D28*
X0078276Y0102532D03*
X0081426Y0102532D03*
X0084576Y0102532D03*
X0087725Y0102532D03*
X0090875Y0102532D03*
X0094024Y0102532D03*
X0097174Y0102532D03*
X0100324Y0102532D03*
X0100324Y0069068D03*
X0097174Y0069068D03*
X0094024Y0069068D03*
X0090875Y0069068D03*
X0087725Y0069068D03*
X0084576Y0069068D03*
X0081426Y0069068D03*
X0078276Y0069068D03*
D29*
X0060461Y0245883D03*
X0072076Y0265174D03*
X0048454Y0265174D03*
D30*
X0071300Y0217800D03*
X0093800Y0217800D03*
X0102800Y0241800D03*
X0070515Y0183970D03*
X0070607Y0161115D03*
X0071248Y0139296D03*
X0094119Y0136951D03*
X0095300Y0181800D03*
X0131800Y0099300D03*
X0140300Y0021300D03*
X0117800Y0020800D03*
X0188300Y0021300D03*
X0223926Y0078725D03*
X0219800Y0130800D03*
X0219800Y0157800D03*
X0197800Y0190793D03*
X0197300Y0289800D03*
X0140300Y0309300D03*
X0036800Y0051300D03*
D31*
X0039800Y0085800D03*
D32*
X0039800Y0105013D03*
D33*
X0037800Y0021300D03*
X0217800Y0021300D03*
X0217800Y0306300D03*
X0037800Y0306300D03*
D34*
X0057800Y0296300D03*
X0092800Y0271300D03*
X0110881Y0269636D03*
X0124042Y0274521D03*
X0111800Y0283800D03*
X0122800Y0316300D03*
X0161113Y0241290D03*
X0161300Y0214800D03*
X0192800Y0246300D03*
X0207800Y0266300D03*
X0212800Y0186300D03*
X0155300Y0144300D03*
X0147800Y0157800D03*
X0137020Y0135865D03*
X0132800Y0116300D03*
X0117800Y0131300D03*
X0111800Y0138300D03*
X0099800Y0091800D03*
X0092984Y0081141D03*
X0082696Y0091193D03*
X0072800Y0066300D03*
X0079300Y0062300D03*
X0075680Y0057557D03*
X0089589Y0061838D03*
X0091679Y0057774D03*
X0113800Y0059800D03*
X0112800Y0066300D03*
X0120800Y0084300D03*
X0140300Y0082800D03*
X0147853Y0084081D03*
X0140300Y0066300D03*
X0158300Y0058800D03*
X0176300Y0094800D03*
X0172835Y0100660D03*
X0211300Y0082800D03*
X0212300Y0072300D03*
X0202800Y0051300D03*
X0107800Y0191300D03*
X0059300Y0201300D03*
X0052800Y0051300D03*
D35*
X0134300Y0185300D03*
X0117800Y0199800D03*
X0108800Y0225300D03*
X0129736Y0236281D03*
X0140300Y0249800D03*
X0160300Y0235800D03*
X0167300Y0261300D03*
D36*
X0179844Y0249161D03*
X0200300Y0222300D03*
X0203300Y0229800D03*
X0164300Y0195300D03*
X0181931Y0181954D03*
X0177800Y0154800D03*
X0158300Y0121800D03*
X0156800Y0117300D03*
X0148800Y0116800D03*
X0147800Y0098300D03*
X0164300Y0097800D03*
X0165800Y0081300D03*
X0155300Y0066300D03*
X0149300Y0076800D03*
X0152300Y0046800D03*
X0156800Y0042300D03*
X0149300Y0037800D03*
X0167300Y0034800D03*
X0188300Y0046800D03*
X0188300Y0076800D03*
X0179300Y0115800D03*
X0138395Y0145782D03*
X0130300Y0126800D03*
X0120800Y0147300D03*
X0112800Y0151454D03*
X0107300Y0150300D03*
X0125300Y0177300D03*
X0146300Y0270300D03*
X0157952Y0282962D03*
X0117800Y0075300D03*
X0059300Y0060300D03*
D37*
X0105800Y0055800D03*
X0105800Y0039300D03*
X0118973Y0120414D03*
D38*
X0170300Y0151800D03*
X0129858Y0249623D03*
M02*
