%
M48
M72
T01C0.01378
T02C0.01575
T03C0.01772
T04C0.02165
T05C0.02559
T06C0.02587
T07C0.02756
T08C0.03150
T09C0.03898
T10C0.04000
T11C0.04016
T12C0.06299
T13C0.06535
T14C0.13000
T15C0.14331
%
T01
X52800Y51300
X72800Y66300
X79300Y62300
X75680Y57557
X89589Y61838
X91679Y57774
X92984Y81141
X99800Y91800
X82696Y91193
X112800Y66300
X113800Y59800
X120800Y84300
X140300Y82800
X147853Y84081
X140300Y66300
X158300Y58800
X176300Y94800
X172835Y100660
X155300Y144300
X147800Y157800
X137020Y135865
X132800Y116300
X117800Y131300
X111800Y138300
X107800Y191300
X59300Y201300
X110881Y269636
X124042Y274521
X111800Y283800
X92800Y271300
X57800Y296300
X122800Y316300
X161113Y241290
X161300Y214800
X192800Y246300
X207800Y266300
X212800Y186300
X211300Y82800
X212300Y72300
X202800Y51300
T02
X170300Y151800
X129858Y249623
T03
X146300Y270300
X157952Y282962
X179844Y249161
X200300Y222300
X203300Y229800
X164300Y195300
X181931Y181954
X177800Y154800
X158300Y121800
X156800Y117300
X148800Y116800
X147800Y98300
X164300Y97800
X165800Y81300
X155300Y66300
X149300Y76800
X152300Y46800
X156800Y42300
X149300Y37800
X167300Y34800
X188300Y46800
X188300Y76800
X179300Y115800
X138395Y145782
X130300Y126800
X120800Y147300
X112800Y151454
X107300Y150300
X125300Y177300
X117800Y75300
X59300Y60300
T04
X105800Y55800
X105800Y39300
X118973Y120414
T05
X134300Y185300
X117800Y199800
X108800Y225300
X129736Y236281
X140300Y249800
X160300Y235800
X167300Y261300
T06
X39800Y105013
X39800Y85800
T07
X182800Y133300
X187800Y128300
X192800Y133300
X187800Y138300
T08
X94048Y312300
X86174Y312300
X78300Y312300
T09
X51158Y230095
X33442Y230095
X33442Y204505
X33942Y194595
X51658Y194595
X51158Y204505
X51658Y169005
X51158Y156595
X33942Y169005
X33442Y156595
X33442Y131005
X51158Y131005
T10
X187300Y155800
X197300Y155800
X197846Y171582
X187846Y171582
T11
X104860Y116851
X94860Y116851
X84860Y116851
X74860Y116851
X131800Y71300
X131800Y61300
X131800Y51300
X131800Y41300
T12
X140300Y21300
X117800Y20800
X131800Y99300
X94119Y136951
X71248Y139296
X70607Y161115
X70515Y183970
X95300Y181800
X93800Y217800
X102800Y241800
X71300Y217800
X140300Y309300
X197300Y289800
X197800Y190793
X219800Y157800
X219800Y130800
X223926Y78725
X188300Y21300
X36800Y51300
T13
X70032Y312300
X102316Y312300
T14
X37800Y21300
X217800Y21300
X217800Y306300
X37800Y306300
T15
X48454Y265174
X60461Y245883
X72076Y265174
M30
