G04 EAGLE Gerber RS-274X export*
G75*
%MOMM*%
%FSLAX34Y34*%
%LPD*%
%INBottom Silkscreen*%
%IPPOS*%
%AMOC8*
5,1,8,0,0,1.08239X$1,22.5*%
G01*
%ADD10C,0.200000*%
%ADD11C,0.100000*%
%ADD12C,0.508000*%
%ADD13C,0.152400*%
%ADD14C,0.076200*%

G36*
X138117Y139851D02*
X138117Y139851D01*
X138119Y139850D01*
X138162Y139870D01*
X138206Y139888D01*
X138206Y139890D01*
X138208Y139891D01*
X138241Y139976D01*
X138241Y142516D01*
X138240Y142518D01*
X138241Y142520D01*
X138221Y142563D01*
X138203Y142607D01*
X138201Y142607D01*
X138200Y142609D01*
X138115Y142642D01*
X134305Y142642D01*
X134303Y142641D01*
X134301Y142642D01*
X134258Y142622D01*
X134214Y142604D01*
X134214Y142602D01*
X134212Y142601D01*
X134179Y142516D01*
X134179Y139976D01*
X134180Y139974D01*
X134179Y139972D01*
X134199Y139929D01*
X134217Y139885D01*
X134219Y139885D01*
X134220Y139883D01*
X134305Y139850D01*
X138115Y139850D01*
X138117Y139851D01*
G37*
G36*
X211098Y89600D02*
X211098Y89600D01*
X211100Y89599D01*
X211143Y89619D01*
X211187Y89637D01*
X211187Y89639D01*
X211189Y89640D01*
X211222Y89725D01*
X211222Y93535D01*
X211221Y93537D01*
X211222Y93539D01*
X211202Y93582D01*
X211184Y93626D01*
X211182Y93626D01*
X211181Y93628D01*
X211096Y93661D01*
X208556Y93661D01*
X208554Y93660D01*
X208552Y93661D01*
X208509Y93641D01*
X208465Y93623D01*
X208465Y93621D01*
X208463Y93620D01*
X208430Y93535D01*
X208430Y89725D01*
X208431Y89723D01*
X208430Y89721D01*
X208450Y89678D01*
X208468Y89634D01*
X208470Y89634D01*
X208471Y89632D01*
X208556Y89599D01*
X211096Y89599D01*
X211098Y89600D01*
G37*
G36*
X146117Y32619D02*
X146117Y32619D01*
X146119Y32618D01*
X146162Y32638D01*
X146206Y32656D01*
X146206Y32658D01*
X146208Y32659D01*
X146241Y32744D01*
X146241Y35284D01*
X146240Y35286D01*
X146241Y35288D01*
X146221Y35331D01*
X146203Y35375D01*
X146201Y35375D01*
X146200Y35377D01*
X146115Y35410D01*
X142305Y35410D01*
X142303Y35409D01*
X142301Y35410D01*
X142258Y35390D01*
X142214Y35372D01*
X142214Y35370D01*
X142212Y35369D01*
X142179Y35284D01*
X142179Y32744D01*
X142180Y32742D01*
X142179Y32740D01*
X142199Y32697D01*
X142217Y32653D01*
X142219Y32653D01*
X142220Y32651D01*
X142305Y32618D01*
X146115Y32618D01*
X146117Y32619D01*
G37*
D10*
X435100Y150240D02*
X403100Y150240D01*
X403100Y101220D01*
X435100Y101220D01*
X435100Y150240D01*
X438600Y151530D02*
X453850Y151530D01*
X443690Y75460D02*
X437690Y75460D01*
X437690Y46460D01*
X443690Y46460D01*
X443690Y75460D01*
X447190Y75960D02*
X459190Y75960D01*
X138270Y685440D02*
X138270Y735440D01*
X158270Y735440D01*
X158270Y685440D01*
X105270Y685440D02*
X105270Y680440D01*
X105270Y685440D02*
X191270Y685440D01*
X191270Y680440D01*
X105270Y645440D02*
X105270Y640440D01*
X191270Y640440D01*
X191270Y645440D01*
D11*
X89270Y662940D02*
X89268Y662896D01*
X89262Y662853D01*
X89253Y662811D01*
X89240Y662769D01*
X89223Y662729D01*
X89203Y662690D01*
X89180Y662653D01*
X89153Y662619D01*
X89124Y662586D01*
X89091Y662557D01*
X89057Y662530D01*
X89020Y662507D01*
X88981Y662487D01*
X88941Y662470D01*
X88899Y662457D01*
X88857Y662448D01*
X88814Y662442D01*
X88770Y662440D01*
X88726Y662442D01*
X88683Y662448D01*
X88641Y662457D01*
X88599Y662470D01*
X88559Y662487D01*
X88520Y662507D01*
X88483Y662530D01*
X88449Y662557D01*
X88416Y662586D01*
X88387Y662619D01*
X88360Y662653D01*
X88337Y662690D01*
X88317Y662729D01*
X88300Y662769D01*
X88287Y662811D01*
X88278Y662853D01*
X88272Y662896D01*
X88270Y662940D01*
X88272Y662984D01*
X88278Y663027D01*
X88287Y663069D01*
X88300Y663111D01*
X88317Y663151D01*
X88337Y663190D01*
X88360Y663227D01*
X88387Y663261D01*
X88416Y663294D01*
X88449Y663323D01*
X88483Y663350D01*
X88520Y663373D01*
X88559Y663393D01*
X88599Y663410D01*
X88641Y663423D01*
X88683Y663432D01*
X88726Y663438D01*
X88770Y663440D01*
X88814Y663438D01*
X88857Y663432D01*
X88899Y663423D01*
X88941Y663410D01*
X88981Y663393D01*
X89020Y663373D01*
X89057Y663350D01*
X89091Y663323D01*
X89124Y663294D01*
X89153Y663261D01*
X89180Y663227D01*
X89203Y663190D01*
X89223Y663151D01*
X89240Y663111D01*
X89253Y663069D01*
X89262Y663027D01*
X89268Y662984D01*
X89270Y662940D01*
D10*
X374120Y-23670D02*
X374120Y-29670D01*
X403120Y-29670D01*
X403120Y-23670D01*
X374120Y-23670D01*
X373620Y-20170D02*
X373620Y-8170D01*
X294110Y33830D02*
X294110Y39830D01*
X294110Y33830D02*
X323110Y33830D01*
X323110Y39830D01*
X294110Y39830D01*
X292610Y43330D02*
X292610Y55330D01*
X351330Y26140D02*
X357330Y26140D01*
X357330Y55140D01*
X351330Y55140D01*
X351330Y26140D01*
X347830Y24640D02*
X335830Y24640D01*
X239037Y511522D02*
X223787Y511522D01*
D12*
X461010Y265430D02*
X461012Y265552D01*
X461018Y265674D01*
X461028Y265796D01*
X461041Y265917D01*
X461059Y266038D01*
X461080Y266158D01*
X461106Y266278D01*
X461135Y266396D01*
X461167Y266514D01*
X461204Y266631D01*
X461244Y266746D01*
X461288Y266860D01*
X461336Y266972D01*
X461387Y267083D01*
X461442Y267192D01*
X461500Y267300D01*
X461562Y267405D01*
X461627Y267508D01*
X461695Y267610D01*
X461767Y267709D01*
X461841Y267805D01*
X461919Y267900D01*
X462000Y267991D01*
X462083Y268081D01*
X462169Y268167D01*
X462259Y268250D01*
X462350Y268331D01*
X462445Y268409D01*
X462541Y268483D01*
X462640Y268555D01*
X462742Y268623D01*
X462845Y268688D01*
X462950Y268750D01*
X463058Y268808D01*
X463167Y268863D01*
X463278Y268914D01*
X463390Y268962D01*
X463504Y269006D01*
X463619Y269046D01*
X463736Y269083D01*
X463854Y269115D01*
X463972Y269144D01*
X464092Y269170D01*
X464212Y269191D01*
X464333Y269209D01*
X464454Y269222D01*
X464576Y269232D01*
X464698Y269238D01*
X464820Y269240D01*
X464942Y269238D01*
X465064Y269232D01*
X465186Y269222D01*
X465307Y269209D01*
X465428Y269191D01*
X465548Y269170D01*
X465668Y269144D01*
X465786Y269115D01*
X465904Y269083D01*
X466021Y269046D01*
X466136Y269006D01*
X466250Y268962D01*
X466362Y268914D01*
X466473Y268863D01*
X466582Y268808D01*
X466690Y268750D01*
X466795Y268688D01*
X466898Y268623D01*
X467000Y268555D01*
X467099Y268483D01*
X467195Y268409D01*
X467290Y268331D01*
X467381Y268250D01*
X467471Y268167D01*
X467557Y268081D01*
X467640Y267991D01*
X467721Y267900D01*
X467799Y267805D01*
X467873Y267709D01*
X467945Y267610D01*
X468013Y267508D01*
X468078Y267405D01*
X468140Y267300D01*
X468198Y267192D01*
X468253Y267083D01*
X468304Y266972D01*
X468352Y266860D01*
X468396Y266746D01*
X468436Y266631D01*
X468473Y266514D01*
X468505Y266396D01*
X468534Y266278D01*
X468560Y266158D01*
X468581Y266038D01*
X468599Y265917D01*
X468612Y265796D01*
X468622Y265674D01*
X468628Y265552D01*
X468630Y265430D01*
X468628Y265308D01*
X468622Y265186D01*
X468612Y265064D01*
X468599Y264943D01*
X468581Y264822D01*
X468560Y264702D01*
X468534Y264582D01*
X468505Y264464D01*
X468473Y264346D01*
X468436Y264229D01*
X468396Y264114D01*
X468352Y264000D01*
X468304Y263888D01*
X468253Y263777D01*
X468198Y263668D01*
X468140Y263560D01*
X468078Y263455D01*
X468013Y263352D01*
X467945Y263250D01*
X467873Y263151D01*
X467799Y263055D01*
X467721Y262960D01*
X467640Y262869D01*
X467557Y262779D01*
X467471Y262693D01*
X467381Y262610D01*
X467290Y262529D01*
X467195Y262451D01*
X467099Y262377D01*
X467000Y262305D01*
X466898Y262237D01*
X466795Y262172D01*
X466690Y262110D01*
X466582Y262052D01*
X466473Y261997D01*
X466362Y261946D01*
X466250Y261898D01*
X466136Y261854D01*
X466021Y261814D01*
X465904Y261777D01*
X465786Y261745D01*
X465668Y261716D01*
X465548Y261690D01*
X465428Y261669D01*
X465307Y261651D01*
X465186Y261638D01*
X465064Y261628D01*
X464942Y261622D01*
X464820Y261620D01*
X464698Y261622D01*
X464576Y261628D01*
X464454Y261638D01*
X464333Y261651D01*
X464212Y261669D01*
X464092Y261690D01*
X463972Y261716D01*
X463854Y261745D01*
X463736Y261777D01*
X463619Y261814D01*
X463504Y261854D01*
X463390Y261898D01*
X463278Y261946D01*
X463167Y261997D01*
X463058Y262052D01*
X462950Y262110D01*
X462845Y262172D01*
X462742Y262237D01*
X462640Y262305D01*
X462541Y262377D01*
X462445Y262451D01*
X462350Y262529D01*
X462259Y262610D01*
X462169Y262693D01*
X462083Y262779D01*
X462000Y262869D01*
X461919Y262960D01*
X461841Y263055D01*
X461767Y263151D01*
X461695Y263250D01*
X461627Y263352D01*
X461562Y263455D01*
X461500Y263560D01*
X461442Y263668D01*
X461387Y263777D01*
X461336Y263888D01*
X461288Y264000D01*
X461244Y264114D01*
X461204Y264229D01*
X461167Y264346D01*
X461135Y264464D01*
X461106Y264582D01*
X461080Y264702D01*
X461059Y264822D01*
X461041Y264943D01*
X461028Y265064D01*
X461018Y265186D01*
X461012Y265308D01*
X461010Y265430D01*
D10*
X184742Y-112691D02*
X74742Y-112691D01*
X74742Y-12691D02*
X184742Y-12691D01*
D12*
X368417Y305517D02*
X368419Y305395D01*
X368425Y305273D01*
X368435Y305151D01*
X368448Y305030D01*
X368466Y304909D01*
X368487Y304789D01*
X368513Y304669D01*
X368542Y304551D01*
X368574Y304433D01*
X368611Y304316D01*
X368651Y304201D01*
X368695Y304087D01*
X368743Y303975D01*
X368794Y303864D01*
X368849Y303755D01*
X368907Y303647D01*
X368969Y303542D01*
X369034Y303439D01*
X369102Y303337D01*
X369174Y303238D01*
X369248Y303142D01*
X369326Y303047D01*
X369407Y302956D01*
X369490Y302866D01*
X369576Y302780D01*
X369666Y302697D01*
X369757Y302616D01*
X369852Y302538D01*
X369948Y302464D01*
X370047Y302392D01*
X370149Y302324D01*
X370252Y302259D01*
X370357Y302197D01*
X370465Y302139D01*
X370574Y302084D01*
X370685Y302033D01*
X370797Y301985D01*
X370911Y301941D01*
X371026Y301901D01*
X371143Y301864D01*
X371261Y301832D01*
X371379Y301803D01*
X371499Y301777D01*
X371619Y301756D01*
X371740Y301738D01*
X371861Y301725D01*
X371983Y301715D01*
X372105Y301709D01*
X372227Y301707D01*
X372349Y301709D01*
X372471Y301715D01*
X372593Y301725D01*
X372714Y301738D01*
X372835Y301756D01*
X372955Y301777D01*
X373075Y301803D01*
X373193Y301832D01*
X373311Y301864D01*
X373428Y301901D01*
X373543Y301941D01*
X373657Y301985D01*
X373769Y302033D01*
X373880Y302084D01*
X373989Y302139D01*
X374097Y302197D01*
X374202Y302259D01*
X374305Y302324D01*
X374407Y302392D01*
X374506Y302464D01*
X374602Y302538D01*
X374697Y302616D01*
X374788Y302697D01*
X374878Y302780D01*
X374964Y302866D01*
X375047Y302956D01*
X375128Y303047D01*
X375206Y303142D01*
X375280Y303238D01*
X375352Y303337D01*
X375420Y303439D01*
X375485Y303542D01*
X375547Y303647D01*
X375605Y303755D01*
X375660Y303864D01*
X375711Y303975D01*
X375759Y304087D01*
X375803Y304201D01*
X375843Y304316D01*
X375880Y304433D01*
X375912Y304551D01*
X375941Y304669D01*
X375967Y304789D01*
X375988Y304909D01*
X376006Y305030D01*
X376019Y305151D01*
X376029Y305273D01*
X376035Y305395D01*
X376037Y305517D01*
X376035Y305639D01*
X376029Y305761D01*
X376019Y305883D01*
X376006Y306004D01*
X375988Y306125D01*
X375967Y306245D01*
X375941Y306365D01*
X375912Y306483D01*
X375880Y306601D01*
X375843Y306718D01*
X375803Y306833D01*
X375759Y306947D01*
X375711Y307059D01*
X375660Y307170D01*
X375605Y307279D01*
X375547Y307387D01*
X375485Y307492D01*
X375420Y307595D01*
X375352Y307697D01*
X375280Y307796D01*
X375206Y307892D01*
X375128Y307987D01*
X375047Y308078D01*
X374964Y308168D01*
X374878Y308254D01*
X374788Y308337D01*
X374697Y308418D01*
X374602Y308496D01*
X374506Y308570D01*
X374407Y308642D01*
X374305Y308710D01*
X374202Y308775D01*
X374097Y308837D01*
X373989Y308895D01*
X373880Y308950D01*
X373769Y309001D01*
X373657Y309049D01*
X373543Y309093D01*
X373428Y309133D01*
X373311Y309170D01*
X373193Y309202D01*
X373075Y309231D01*
X372955Y309257D01*
X372835Y309278D01*
X372714Y309296D01*
X372593Y309309D01*
X372471Y309319D01*
X372349Y309325D01*
X372227Y309327D01*
X372105Y309325D01*
X371983Y309319D01*
X371861Y309309D01*
X371740Y309296D01*
X371619Y309278D01*
X371499Y309257D01*
X371379Y309231D01*
X371261Y309202D01*
X371143Y309170D01*
X371026Y309133D01*
X370911Y309093D01*
X370797Y309049D01*
X370685Y309001D01*
X370574Y308950D01*
X370465Y308895D01*
X370357Y308837D01*
X370252Y308775D01*
X370149Y308710D01*
X370047Y308642D01*
X369948Y308570D01*
X369852Y308496D01*
X369757Y308418D01*
X369666Y308337D01*
X369576Y308254D01*
X369490Y308168D01*
X369407Y308078D01*
X369326Y307987D01*
X369248Y307892D01*
X369174Y307796D01*
X369102Y307697D01*
X369034Y307595D01*
X368969Y307492D01*
X368907Y307387D01*
X368849Y307279D01*
X368794Y307170D01*
X368743Y307059D01*
X368695Y306947D01*
X368651Y306833D01*
X368611Y306718D01*
X368574Y306601D01*
X368542Y306483D01*
X368513Y306365D01*
X368487Y306245D01*
X368466Y306125D01*
X368448Y306004D01*
X368435Y305883D01*
X368425Y305761D01*
X368419Y305639D01*
X368417Y305517D01*
D13*
X122428Y124460D02*
X119380Y124460D01*
X193040Y124460D02*
X193040Y121412D01*
X193040Y50800D02*
X189992Y50800D01*
X119380Y50800D02*
X119380Y53848D01*
X119380Y121412D02*
X119380Y124460D01*
X189992Y124460D02*
X193040Y124460D01*
X193040Y53848D02*
X193040Y50800D01*
X122428Y50800D02*
X119380Y50800D01*
D14*
X98263Y49163D02*
X98263Y53142D01*
X100584Y56127D01*
X98263Y53142D02*
X95941Y56127D01*
X98263Y53142D02*
X101910Y51816D01*
X98263Y53142D02*
X94615Y51816D01*
D10*
X297990Y-25930D02*
X303990Y-25930D01*
X303990Y3070D01*
X297990Y3070D01*
X297990Y-25930D01*
X294490Y-26430D02*
X282490Y-26430D01*
X55480Y79530D02*
X55473Y78921D01*
X55450Y78313D01*
X55413Y77705D01*
X55361Y77099D01*
X55295Y76493D01*
X55214Y75890D01*
X55118Y75289D01*
X55007Y74690D01*
X54882Y74094D01*
X54742Y73502D01*
X54588Y72913D01*
X54420Y72328D01*
X54238Y71747D01*
X54041Y71170D01*
X53830Y70599D01*
X53606Y70033D01*
X53368Y69473D01*
X53116Y68919D01*
X52851Y68371D01*
X52573Y67829D01*
X52281Y67295D01*
X51977Y66767D01*
X51660Y66248D01*
X51330Y65736D01*
X50988Y65232D01*
X50634Y64737D01*
X50267Y64251D01*
X49889Y63773D01*
X49500Y63305D01*
X49099Y62847D01*
X48688Y62399D01*
X48265Y61960D01*
X47832Y61532D01*
X47388Y61115D01*
X46935Y60709D01*
X46472Y60314D01*
X45999Y59930D01*
X45517Y59558D01*
X45026Y59198D01*
X44527Y58850D01*
X44019Y58514D01*
X43504Y58190D01*
X42980Y57879D01*
X42449Y57581D01*
X41911Y57296D01*
X41366Y57025D01*
X40815Y56766D01*
X40258Y56521D01*
X39694Y56290D01*
X39126Y56073D01*
X38552Y55869D01*
X37973Y55679D01*
X37390Y55504D01*
X36803Y55343D01*
X36212Y55196D01*
X35618Y55064D01*
X35021Y54946D01*
X34421Y54843D01*
X33819Y54754D01*
X33214Y54680D01*
X32608Y54621D01*
X32001Y54576D01*
X31393Y54547D01*
X30784Y54532D01*
X30176Y54532D01*
X29567Y54547D01*
X28959Y54576D01*
X28352Y54621D01*
X27746Y54680D01*
X27141Y54754D01*
X26539Y54843D01*
X25939Y54946D01*
X25342Y55064D01*
X24748Y55196D01*
X24157Y55343D01*
X23570Y55504D01*
X22987Y55679D01*
X22408Y55869D01*
X21834Y56073D01*
X21266Y56290D01*
X20702Y56521D01*
X20145Y56766D01*
X19594Y57025D01*
X19049Y57296D01*
X18511Y57581D01*
X17980Y57879D01*
X17456Y58190D01*
X16941Y58514D01*
X16433Y58850D01*
X15934Y59198D01*
X15443Y59558D01*
X14961Y59930D01*
X14488Y60314D01*
X14025Y60709D01*
X13572Y61115D01*
X13128Y61532D01*
X12695Y61960D01*
X12272Y62399D01*
X11861Y62847D01*
X11460Y63305D01*
X11071Y63773D01*
X10693Y64251D01*
X10326Y64737D01*
X9972Y65232D01*
X9630Y65736D01*
X9300Y66248D01*
X8983Y66767D01*
X8679Y67295D01*
X8387Y67829D01*
X8109Y68371D01*
X7844Y68919D01*
X7592Y69473D01*
X7354Y70033D01*
X7130Y70599D01*
X6919Y71170D01*
X6722Y71747D01*
X6540Y72328D01*
X6372Y72913D01*
X6218Y73502D01*
X6078Y74094D01*
X5953Y74690D01*
X5842Y75289D01*
X5746Y75890D01*
X5665Y76493D01*
X5599Y77099D01*
X5547Y77705D01*
X5510Y78313D01*
X5487Y78921D01*
X5480Y79530D01*
X5480Y144530D01*
X5487Y145139D01*
X5510Y145747D01*
X5547Y146355D01*
X5599Y146961D01*
X5665Y147567D01*
X5746Y148170D01*
X5842Y148771D01*
X5953Y149370D01*
X6078Y149966D01*
X6218Y150558D01*
X6372Y151147D01*
X6540Y151732D01*
X6722Y152313D01*
X6919Y152890D01*
X7130Y153461D01*
X7354Y154027D01*
X7592Y154587D01*
X7844Y155141D01*
X8109Y155689D01*
X8387Y156231D01*
X8679Y156765D01*
X8983Y157293D01*
X9300Y157812D01*
X9630Y158324D01*
X9972Y158828D01*
X10326Y159323D01*
X10693Y159809D01*
X11071Y160287D01*
X11460Y160755D01*
X11861Y161213D01*
X12272Y161661D01*
X12695Y162100D01*
X13128Y162528D01*
X13572Y162945D01*
X14025Y163351D01*
X14488Y163746D01*
X14961Y164130D01*
X15443Y164502D01*
X15934Y164862D01*
X16433Y165210D01*
X16941Y165546D01*
X17456Y165870D01*
X17980Y166181D01*
X18511Y166479D01*
X19049Y166764D01*
X19594Y167035D01*
X20145Y167294D01*
X20702Y167539D01*
X21266Y167770D01*
X21834Y167987D01*
X22408Y168191D01*
X22987Y168381D01*
X23570Y168556D01*
X24157Y168717D01*
X24748Y168864D01*
X25342Y168996D01*
X25939Y169114D01*
X26539Y169217D01*
X27141Y169306D01*
X27746Y169380D01*
X28352Y169439D01*
X28959Y169484D01*
X29567Y169513D01*
X30176Y169528D01*
X30784Y169528D01*
X31393Y169513D01*
X32001Y169484D01*
X32608Y169439D01*
X33214Y169380D01*
X33819Y169306D01*
X34421Y169217D01*
X35021Y169114D01*
X35618Y168996D01*
X36212Y168864D01*
X36803Y168717D01*
X37390Y168556D01*
X37973Y168381D01*
X38552Y168191D01*
X39126Y167987D01*
X39694Y167770D01*
X40258Y167539D01*
X40815Y167294D01*
X41366Y167035D01*
X41911Y166764D01*
X42449Y166479D01*
X42980Y166181D01*
X43504Y165870D01*
X44019Y165546D01*
X44527Y165210D01*
X45026Y164862D01*
X45517Y164502D01*
X45999Y164130D01*
X46472Y163746D01*
X46935Y163351D01*
X47388Y162945D01*
X47832Y162528D01*
X48265Y162100D01*
X48688Y161661D01*
X49099Y161213D01*
X49500Y160755D01*
X49889Y160287D01*
X50267Y159809D01*
X50634Y159323D01*
X50988Y158828D01*
X51330Y158324D01*
X51660Y157812D01*
X51977Y157293D01*
X52281Y156765D01*
X52573Y156231D01*
X52851Y155689D01*
X53116Y155141D01*
X53368Y154587D01*
X53606Y154027D01*
X53830Y153461D01*
X54041Y152890D01*
X54238Y152313D01*
X54420Y151732D01*
X54588Y151147D01*
X54742Y150558D01*
X54882Y149966D01*
X55007Y149370D01*
X55118Y148771D01*
X55214Y148170D01*
X55295Y147567D01*
X55361Y146961D01*
X55413Y146355D01*
X55450Y145747D01*
X55473Y145139D01*
X55480Y144530D01*
X55480Y79530D01*
M02*
