G04 EAGLE Gerber RS-274X export*
G75*
%MOMM*%
%FSLAX34Y34*%
%LPD*%
%INBottom Soldermask*%
%IPPOS*%
%AMOC8*
5,1,8,0,0,1.08239X$1,22.5*%
G01*
%ADD10R,1.303200X1.203200*%
%ADD11R,1.203200X1.303200*%
%ADD12R,1.729200X0.853200*%
%ADD13R,1.403200X0.803200*%
%ADD14R,1.511200X1.511200*%
%ADD15C,1.511200*%
%ADD16C,2.693200*%
%ADD17R,0.803200X1.403200*%
%ADD18R,1.728200X0.853200*%
%ADD19R,3.603200X2.913200*%
%ADD20R,1.733200X1.733200*%
%ADD21C,1.733200*%
%ADD22C,1.727200*%
%ADD23R,3.753200X3.403200*%
%ADD24C,1.701200*%
%ADD25R,1.701200X1.701200*%
%ADD26C,1.411200*%
%ADD27R,1.664400X0.704000*%
%ADD28R,0.704000X1.664400*%
%ADD29C,5.663200*%
%ADD30C,2.603200*%
%ADD31R,1.408200X1.408200*%
%ADD32C,1.408200*%
%ADD33C,3.505200*%
%ADD34C,0.959600*%
%ADD35C,1.259600*%
%ADD36C,1.059600*%
%ADD37C,1.159600*%
%ADD38C,1.009600*%


D10*
X343780Y149860D03*
X326780Y149860D03*
D11*
X364490Y137550D03*
X364490Y154550D03*
X471170Y119770D03*
X471170Y136770D03*
X393700Y79620D03*
X393700Y62620D03*
D10*
X453780Y31750D03*
X470780Y31750D03*
D12*
X446220Y144780D03*
X446220Y132080D03*
X446220Y119380D03*
X446220Y106680D03*
X391980Y106680D03*
X391980Y119380D03*
X391980Y132080D03*
X391980Y144780D03*
D13*
X453190Y70460D03*
X453190Y60960D03*
X453190Y51460D03*
X428190Y51460D03*
X428190Y70460D03*
D11*
X426330Y163830D03*
X409330Y163830D03*
D10*
X360680Y110100D03*
X360680Y93100D03*
D11*
X416950Y88900D03*
X433950Y88900D03*
X425060Y478790D03*
X408060Y478790D03*
X425060Y455930D03*
X408060Y455930D03*
D14*
X128270Y662940D03*
D15*
X148270Y662940D03*
X168270Y662940D03*
D16*
X107270Y662940D03*
X189270Y662940D03*
D10*
X79130Y46990D03*
X96130Y46990D03*
D11*
X344170Y519040D03*
X344170Y502040D03*
X317500Y519040D03*
X317500Y502040D03*
X224790Y129930D03*
X224790Y146930D03*
D10*
X231530Y496570D03*
X248530Y496570D03*
D11*
X83820Y71510D03*
X83820Y88510D03*
X345440Y-6740D03*
X345440Y-23740D03*
D17*
X379120Y-14170D03*
X388620Y-14170D03*
X398120Y-14170D03*
X398120Y-39170D03*
X379120Y-39170D03*
X299110Y49330D03*
X308610Y49330D03*
X318110Y49330D03*
X318110Y24330D03*
X308610Y24330D03*
X299110Y24330D03*
D13*
X341830Y31140D03*
X341830Y40640D03*
X341830Y50140D03*
X366830Y50140D03*
X366830Y40640D03*
X366830Y31140D03*
D11*
X367910Y12700D03*
X350910Y12700D03*
D18*
X231417Y518272D03*
X231417Y530972D03*
X231417Y543672D03*
X231417Y556372D03*
X285657Y556372D03*
X285657Y543672D03*
X285657Y530972D03*
X285657Y518272D03*
D19*
X258537Y537322D03*
D20*
X264160Y-25400D03*
D21*
X264160Y0D03*
X264160Y25400D03*
X264160Y50800D03*
D22*
X430530Y265430D03*
X405130Y265430D03*
D23*
X84742Y-62691D03*
X174742Y-62691D03*
D22*
X406517Y305517D03*
X431917Y305517D03*
D10*
X231140Y279010D03*
X231140Y262010D03*
X256540Y268850D03*
X256540Y251850D03*
D11*
X237100Y-30480D03*
X220100Y-30480D03*
X414153Y13848D03*
X397153Y13848D03*
D10*
X303530Y150740D03*
X303530Y133740D03*
D11*
X404740Y41910D03*
X387740Y41910D03*
D10*
X175260Y541900D03*
X175260Y524900D03*
X201930Y524900D03*
X201930Y541900D03*
X236220Y27060D03*
X236220Y44060D03*
X234950Y11040D03*
X234950Y-5960D03*
D24*
X59330Y202450D03*
D25*
X14330Y202450D03*
D24*
X59330Y267450D03*
X14330Y267450D03*
X60600Y298970D03*
D25*
X15600Y298970D03*
D24*
X60600Y363970D03*
X15600Y363970D03*
X59330Y389140D03*
D25*
X14330Y389140D03*
D24*
X59330Y454140D03*
X14330Y454140D03*
D26*
X406400Y195580D03*
X406400Y220980D03*
X393700Y208280D03*
X419100Y208280D03*
D10*
X304800Y237880D03*
X304800Y254880D03*
D27*
X113710Y59630D03*
X113710Y67630D03*
X113710Y75630D03*
X113710Y83630D03*
X113710Y91630D03*
X113710Y99630D03*
X113710Y107630D03*
X113710Y115630D03*
D28*
X128210Y130130D03*
X136210Y130130D03*
X144210Y130130D03*
X152210Y130130D03*
X160210Y130130D03*
X168210Y130130D03*
X176210Y130130D03*
X184210Y130130D03*
D27*
X198710Y115630D03*
X198710Y107630D03*
X198710Y99630D03*
X198710Y91630D03*
X198710Y83630D03*
X198710Y75630D03*
X198710Y67630D03*
X198710Y59630D03*
D28*
X184210Y45130D03*
X176210Y45130D03*
X168210Y45130D03*
X160210Y45130D03*
X152210Y45130D03*
X144210Y45130D03*
X136210Y45130D03*
X128210Y45130D03*
D11*
X82550Y107070D03*
X82550Y124070D03*
X82550Y162170D03*
X82550Y145170D03*
D29*
X112460Y543240D03*
X82960Y494240D03*
X52460Y543240D03*
D13*
X288490Y-20930D03*
X288490Y-11430D03*
X288490Y-1930D03*
X313490Y-1930D03*
X313490Y-20930D03*
D20*
X119533Y166499D03*
D21*
X144933Y166499D03*
X170333Y166499D03*
X195733Y166499D03*
D30*
X430530Y605790D03*
X167640Y422910D03*
X171450Y331470D03*
X108496Y336981D03*
X487680Y270510D03*
X431800Y354313D03*
X487680Y201930D03*
X498159Y69659D03*
X264160Y121920D03*
X285750Y-76200D03*
X407670Y-76200D03*
X168450Y217555D03*
X110358Y223509D03*
X110490Y422910D03*
X108730Y278930D03*
X228600Y-77470D03*
X22860Y0D03*
X285750Y655320D03*
D31*
X30480Y87630D03*
D32*
X30480Y136430D03*
D10*
X286140Y189230D03*
X303140Y189230D03*
X296300Y213360D03*
X313300Y213360D03*
D11*
X350520Y179460D03*
X350520Y196460D03*
D30*
X190500Y483870D03*
D33*
X25400Y-76200D03*
X482600Y-76200D03*
X482600Y647700D03*
X25400Y647700D03*
D34*
X218440Y21590D03*
X130810Y27940D03*
X162253Y16443D03*
X285750Y80010D03*
X331470Y19050D03*
X285750Y38100D03*
D35*
X354330Y533400D03*
D36*
X308610Y-34290D03*
D34*
X236220Y83820D03*
D36*
X228600Y60960D03*
D34*
X156944Y26768D03*
X182880Y102870D03*
D35*
X205740Y441960D03*
X228600Y377190D03*
X270510Y340360D03*
D34*
X304800Y270510D03*
D36*
X247650Y320040D03*
X327660Y167640D03*
X384810Y163830D03*
X407670Y64770D03*
D37*
X231579Y175549D03*
X198120Y11430D03*
X198120Y-30480D03*
D36*
X80010Y22860D03*
D34*
X215900Y38100D03*
D36*
X201930Y251460D03*
X331470Y179070D03*
X260350Y191770D03*
D34*
X377190Y110490D03*
X368388Y125375D03*
D36*
X391494Y331862D03*
X381000Y262890D03*
X350520Y76200D03*
X307340Y166370D03*
D38*
X361950Y255270D03*
D36*
X346710Y118110D03*
D34*
X213360Y220980D03*
D36*
X407670Y-11430D03*
X316230Y-11430D03*
X304800Y119380D03*
X327660Y-22860D03*
X354330Y-41910D03*
X308610Y64770D03*
X323850Y38100D03*
X386192Y502568D03*
X438150Y434340D03*
D34*
X80010Y381000D03*
X121614Y15892D03*
X457200Y546100D03*
X338615Y482574D03*
X203200Y355600D03*
X469900Y342900D03*
X444500Y0D03*
X304935Y83265D03*
X63500Y0D03*
X228600Y203200D03*
X266700Y165100D03*
X165100Y558800D03*
X76200Y622300D03*
X241300Y673100D03*
D35*
X258916Y469852D03*
D38*
X259228Y503740D03*
D34*
X139436Y101328D03*
X165568Y75796D03*
X114300Y38100D03*
X277418Y214796D03*
X244454Y566981D03*
X211027Y554575D03*
D36*
X300990Y556260D03*
X330585Y588421D03*
D34*
X213360Y590550D03*
D36*
X346710Y365760D03*
D34*
X339090Y415290D03*
D36*
X215900Y254390D03*
X280912Y239986D03*
X236220Y243840D03*
D35*
X285750Y504190D03*
X336550Y468630D03*
D34*
X419100Y495300D03*
D36*
X445770Y453390D03*
D34*
X323850Y236220D03*
X466090Y80010D03*
X468630Y53340D03*
M02*
