G04 EAGLE Gerber RS-274X export*
G75*
%MOMM*%
%FSLAX34Y34*%
%LPD*%
%INTop Silkscreen*%
%IPPOS*%
%AMOC8*
5,1,8,0,0,1.08239X$1,22.5*%
G01*
%ADD10C,0.200000*%
%ADD11C,0.127000*%
%ADD12C,0.152400*%
%ADD13C,0.508000*%
%ADD14C,0.100000*%


D10*
X416510Y518326D02*
X416510Y524326D01*
X445510Y524326D01*
X445510Y518326D01*
X416510Y518326D01*
X416010Y514826D02*
X416010Y502826D01*
X315080Y477060D02*
X315080Y444960D01*
X228480Y444960D01*
X228480Y477060D01*
X315080Y477060D01*
X316630Y480560D02*
X316630Y496010D01*
X371300Y481450D02*
X403400Y481450D01*
X403400Y394850D01*
X371300Y394850D01*
X371300Y481450D01*
X367800Y483000D02*
X352350Y483000D01*
X239830Y623970D02*
X224580Y623970D01*
D11*
X333661Y676561D02*
X392779Y676561D01*
X392779Y611219D02*
X333661Y611219D01*
D10*
X276860Y-38100D02*
X251460Y-38100D01*
X251460Y63500D02*
X276860Y63500D01*
X251460Y63500D02*
X251460Y-38100D01*
X276860Y-38100D02*
X276860Y63500D01*
X263160Y-44600D02*
X263162Y-44537D01*
X263168Y-44475D01*
X263178Y-44413D01*
X263191Y-44351D01*
X263209Y-44291D01*
X263230Y-44232D01*
X263255Y-44174D01*
X263284Y-44118D01*
X263316Y-44064D01*
X263351Y-44012D01*
X263389Y-43963D01*
X263431Y-43915D01*
X263475Y-43871D01*
X263523Y-43829D01*
X263572Y-43791D01*
X263624Y-43756D01*
X263678Y-43724D01*
X263734Y-43695D01*
X263792Y-43670D01*
X263851Y-43649D01*
X263911Y-43631D01*
X263973Y-43618D01*
X264035Y-43608D01*
X264097Y-43602D01*
X264160Y-43600D01*
X264223Y-43602D01*
X264285Y-43608D01*
X264347Y-43618D01*
X264409Y-43631D01*
X264469Y-43649D01*
X264528Y-43670D01*
X264586Y-43695D01*
X264642Y-43724D01*
X264696Y-43756D01*
X264748Y-43791D01*
X264797Y-43829D01*
X264845Y-43871D01*
X264889Y-43915D01*
X264931Y-43963D01*
X264969Y-44012D01*
X265004Y-44064D01*
X265036Y-44118D01*
X265065Y-44174D01*
X265090Y-44232D01*
X265111Y-44291D01*
X265129Y-44351D01*
X265142Y-44413D01*
X265152Y-44475D01*
X265158Y-44537D01*
X265160Y-44600D01*
X265158Y-44663D01*
X265152Y-44725D01*
X265142Y-44787D01*
X265129Y-44849D01*
X265111Y-44909D01*
X265090Y-44968D01*
X265065Y-45026D01*
X265036Y-45082D01*
X265004Y-45136D01*
X264969Y-45188D01*
X264931Y-45237D01*
X264889Y-45285D01*
X264845Y-45329D01*
X264797Y-45371D01*
X264748Y-45409D01*
X264696Y-45444D01*
X264642Y-45476D01*
X264586Y-45505D01*
X264528Y-45530D01*
X264469Y-45551D01*
X264409Y-45569D01*
X264347Y-45582D01*
X264285Y-45592D01*
X264223Y-45598D01*
X264160Y-45600D01*
X264097Y-45598D01*
X264035Y-45592D01*
X263973Y-45582D01*
X263911Y-45569D01*
X263851Y-45551D01*
X263792Y-45530D01*
X263734Y-45505D01*
X263678Y-45476D01*
X263624Y-45444D01*
X263572Y-45409D01*
X263523Y-45371D01*
X263475Y-45329D01*
X263431Y-45285D01*
X263389Y-45237D01*
X263351Y-45188D01*
X263316Y-45136D01*
X263284Y-45082D01*
X263255Y-45026D01*
X263230Y-44968D01*
X263209Y-44909D01*
X263191Y-44849D01*
X263178Y-44787D01*
X263168Y-44725D01*
X263162Y-44663D01*
X263160Y-44600D01*
D12*
X388620Y278638D02*
X447040Y278638D01*
X388620Y278638D02*
X388620Y252222D01*
X447040Y252222D01*
X447040Y278638D01*
D13*
X461010Y265430D02*
X461012Y265552D01*
X461018Y265674D01*
X461028Y265796D01*
X461041Y265917D01*
X461059Y266038D01*
X461080Y266158D01*
X461106Y266278D01*
X461135Y266396D01*
X461167Y266514D01*
X461204Y266631D01*
X461244Y266746D01*
X461288Y266860D01*
X461336Y266972D01*
X461387Y267083D01*
X461442Y267192D01*
X461500Y267300D01*
X461562Y267405D01*
X461627Y267508D01*
X461695Y267610D01*
X461767Y267709D01*
X461841Y267805D01*
X461919Y267900D01*
X462000Y267991D01*
X462083Y268081D01*
X462169Y268167D01*
X462259Y268250D01*
X462350Y268331D01*
X462445Y268409D01*
X462541Y268483D01*
X462640Y268555D01*
X462742Y268623D01*
X462845Y268688D01*
X462950Y268750D01*
X463058Y268808D01*
X463167Y268863D01*
X463278Y268914D01*
X463390Y268962D01*
X463504Y269006D01*
X463619Y269046D01*
X463736Y269083D01*
X463854Y269115D01*
X463972Y269144D01*
X464092Y269170D01*
X464212Y269191D01*
X464333Y269209D01*
X464454Y269222D01*
X464576Y269232D01*
X464698Y269238D01*
X464820Y269240D01*
X464942Y269238D01*
X465064Y269232D01*
X465186Y269222D01*
X465307Y269209D01*
X465428Y269191D01*
X465548Y269170D01*
X465668Y269144D01*
X465786Y269115D01*
X465904Y269083D01*
X466021Y269046D01*
X466136Y269006D01*
X466250Y268962D01*
X466362Y268914D01*
X466473Y268863D01*
X466582Y268808D01*
X466690Y268750D01*
X466795Y268688D01*
X466898Y268623D01*
X467000Y268555D01*
X467099Y268483D01*
X467195Y268409D01*
X467290Y268331D01*
X467381Y268250D01*
X467471Y268167D01*
X467557Y268081D01*
X467640Y267991D01*
X467721Y267900D01*
X467799Y267805D01*
X467873Y267709D01*
X467945Y267610D01*
X468013Y267508D01*
X468078Y267405D01*
X468140Y267300D01*
X468198Y267192D01*
X468253Y267083D01*
X468304Y266972D01*
X468352Y266860D01*
X468396Y266746D01*
X468436Y266631D01*
X468473Y266514D01*
X468505Y266396D01*
X468534Y266278D01*
X468560Y266158D01*
X468581Y266038D01*
X468599Y265917D01*
X468612Y265796D01*
X468622Y265674D01*
X468628Y265552D01*
X468630Y265430D01*
X468628Y265308D01*
X468622Y265186D01*
X468612Y265064D01*
X468599Y264943D01*
X468581Y264822D01*
X468560Y264702D01*
X468534Y264582D01*
X468505Y264464D01*
X468473Y264346D01*
X468436Y264229D01*
X468396Y264114D01*
X468352Y264000D01*
X468304Y263888D01*
X468253Y263777D01*
X468198Y263668D01*
X468140Y263560D01*
X468078Y263455D01*
X468013Y263352D01*
X467945Y263250D01*
X467873Y263151D01*
X467799Y263055D01*
X467721Y262960D01*
X467640Y262869D01*
X467557Y262779D01*
X467471Y262693D01*
X467381Y262610D01*
X467290Y262529D01*
X467195Y262451D01*
X467099Y262377D01*
X467000Y262305D01*
X466898Y262237D01*
X466795Y262172D01*
X466690Y262110D01*
X466582Y262052D01*
X466473Y261997D01*
X466362Y261946D01*
X466250Y261898D01*
X466136Y261854D01*
X466021Y261814D01*
X465904Y261777D01*
X465786Y261745D01*
X465668Y261716D01*
X465548Y261690D01*
X465428Y261669D01*
X465307Y261651D01*
X465186Y261638D01*
X465064Y261628D01*
X464942Y261622D01*
X464820Y261620D01*
X464698Y261622D01*
X464576Y261628D01*
X464454Y261638D01*
X464333Y261651D01*
X464212Y261669D01*
X464092Y261690D01*
X463972Y261716D01*
X463854Y261745D01*
X463736Y261777D01*
X463619Y261814D01*
X463504Y261854D01*
X463390Y261898D01*
X463278Y261946D01*
X463167Y261997D01*
X463058Y262052D01*
X462950Y262110D01*
X462845Y262172D01*
X462742Y262237D01*
X462640Y262305D01*
X462541Y262377D01*
X462445Y262451D01*
X462350Y262529D01*
X462259Y262610D01*
X462169Y262693D01*
X462083Y262779D01*
X462000Y262869D01*
X461919Y262960D01*
X461841Y263055D01*
X461767Y263151D01*
X461695Y263250D01*
X461627Y263352D01*
X461562Y263455D01*
X461500Y263560D01*
X461442Y263668D01*
X461387Y263777D01*
X461336Y263888D01*
X461288Y264000D01*
X461244Y264114D01*
X461204Y264229D01*
X461167Y264346D01*
X461135Y264464D01*
X461106Y264582D01*
X461080Y264702D01*
X461059Y264822D01*
X461041Y264943D01*
X461028Y265064D01*
X461018Y265186D01*
X461012Y265308D01*
X461010Y265430D01*
D10*
X309350Y386890D02*
X309350Y392890D01*
X338350Y392890D01*
X338350Y386890D01*
X309350Y386890D01*
X308850Y383390D02*
X308850Y371390D01*
X192230Y291360D02*
X186230Y291360D01*
X192230Y291360D02*
X192230Y262360D01*
X186230Y262360D01*
X186230Y291360D01*
X182730Y291860D02*
X170730Y291860D01*
X263630Y276050D02*
X263630Y270050D01*
X263630Y276050D02*
X292630Y276050D01*
X292630Y270050D01*
X263630Y270050D01*
X263130Y266550D02*
X263130Y254550D01*
D12*
X390007Y292309D02*
X448427Y292309D01*
X448427Y318725D01*
X390007Y318725D01*
X390007Y292309D01*
D13*
X376037Y305517D02*
X376035Y305395D01*
X376029Y305273D01*
X376019Y305151D01*
X376006Y305030D01*
X375988Y304909D01*
X375967Y304789D01*
X375941Y304669D01*
X375912Y304551D01*
X375880Y304433D01*
X375843Y304316D01*
X375803Y304201D01*
X375759Y304087D01*
X375711Y303975D01*
X375660Y303864D01*
X375605Y303755D01*
X375547Y303647D01*
X375485Y303542D01*
X375420Y303439D01*
X375352Y303337D01*
X375280Y303238D01*
X375206Y303142D01*
X375128Y303047D01*
X375047Y302956D01*
X374964Y302866D01*
X374878Y302780D01*
X374788Y302697D01*
X374697Y302616D01*
X374602Y302538D01*
X374506Y302464D01*
X374407Y302392D01*
X374305Y302324D01*
X374202Y302259D01*
X374097Y302197D01*
X373989Y302139D01*
X373880Y302084D01*
X373769Y302033D01*
X373657Y301985D01*
X373543Y301941D01*
X373428Y301901D01*
X373311Y301864D01*
X373193Y301832D01*
X373075Y301803D01*
X372955Y301777D01*
X372835Y301756D01*
X372714Y301738D01*
X372593Y301725D01*
X372471Y301715D01*
X372349Y301709D01*
X372227Y301707D01*
X372105Y301709D01*
X371983Y301715D01*
X371861Y301725D01*
X371740Y301738D01*
X371619Y301756D01*
X371499Y301777D01*
X371379Y301803D01*
X371261Y301832D01*
X371143Y301864D01*
X371026Y301901D01*
X370911Y301941D01*
X370797Y301985D01*
X370685Y302033D01*
X370574Y302084D01*
X370465Y302139D01*
X370357Y302197D01*
X370252Y302259D01*
X370149Y302324D01*
X370047Y302392D01*
X369948Y302464D01*
X369852Y302538D01*
X369757Y302616D01*
X369666Y302697D01*
X369576Y302780D01*
X369490Y302866D01*
X369407Y302956D01*
X369326Y303047D01*
X369248Y303142D01*
X369174Y303238D01*
X369102Y303337D01*
X369034Y303439D01*
X368969Y303542D01*
X368907Y303647D01*
X368849Y303755D01*
X368794Y303864D01*
X368743Y303975D01*
X368695Y304087D01*
X368651Y304201D01*
X368611Y304316D01*
X368574Y304433D01*
X368542Y304551D01*
X368513Y304669D01*
X368487Y304789D01*
X368466Y304909D01*
X368448Y305030D01*
X368435Y305151D01*
X368425Y305273D01*
X368419Y305395D01*
X368417Y305517D01*
X368419Y305639D01*
X368425Y305761D01*
X368435Y305883D01*
X368448Y306004D01*
X368466Y306125D01*
X368487Y306245D01*
X368513Y306365D01*
X368542Y306483D01*
X368574Y306601D01*
X368611Y306718D01*
X368651Y306833D01*
X368695Y306947D01*
X368743Y307059D01*
X368794Y307170D01*
X368849Y307279D01*
X368907Y307387D01*
X368969Y307492D01*
X369034Y307595D01*
X369102Y307697D01*
X369174Y307796D01*
X369248Y307892D01*
X369326Y307987D01*
X369407Y308078D01*
X369490Y308168D01*
X369576Y308254D01*
X369666Y308337D01*
X369757Y308418D01*
X369852Y308496D01*
X369948Y308570D01*
X370047Y308642D01*
X370149Y308710D01*
X370252Y308775D01*
X370357Y308837D01*
X370465Y308895D01*
X370574Y308950D01*
X370685Y309001D01*
X370797Y309049D01*
X370911Y309093D01*
X371026Y309133D01*
X371143Y309170D01*
X371261Y309202D01*
X371379Y309231D01*
X371499Y309257D01*
X371619Y309278D01*
X371740Y309296D01*
X371861Y309309D01*
X371983Y309319D01*
X372105Y309325D01*
X372227Y309327D01*
X372349Y309325D01*
X372471Y309319D01*
X372593Y309309D01*
X372714Y309296D01*
X372835Y309278D01*
X372955Y309257D01*
X373075Y309231D01*
X373193Y309202D01*
X373311Y309170D01*
X373428Y309133D01*
X373543Y309093D01*
X373657Y309049D01*
X373769Y309001D01*
X373880Y308950D01*
X373989Y308895D01*
X374097Y308837D01*
X374202Y308775D01*
X374305Y308710D01*
X374407Y308642D01*
X374506Y308570D01*
X374602Y308496D01*
X374697Y308418D01*
X374788Y308337D01*
X374878Y308254D01*
X374964Y308168D01*
X375047Y308078D01*
X375128Y307987D01*
X375206Y307892D01*
X375280Y307796D01*
X375352Y307697D01*
X375420Y307595D01*
X375485Y307492D01*
X375547Y307387D01*
X375605Y307279D01*
X375660Y307170D01*
X375711Y307059D01*
X375759Y306947D01*
X375803Y306833D01*
X375843Y306718D01*
X375880Y306601D01*
X375912Y306483D01*
X375941Y306365D01*
X375967Y306245D01*
X375988Y306125D01*
X376006Y306004D01*
X376019Y305883D01*
X376029Y305761D01*
X376035Y305639D01*
X376037Y305517D01*
D10*
X286730Y417090D02*
X282230Y417090D01*
X286730Y417090D02*
X286730Y388090D01*
X282230Y388090D01*
X282230Y417090D01*
X278730Y417590D02*
X268230Y417590D01*
D11*
X6880Y257950D02*
X6880Y212950D01*
X25330Y264950D02*
X48330Y264950D01*
X66780Y257950D02*
X66780Y211950D01*
X48330Y205000D02*
X25330Y205000D01*
X19280Y234950D02*
X19285Y235381D01*
X19301Y235811D01*
X19328Y236241D01*
X19365Y236670D01*
X19412Y237098D01*
X19470Y237525D01*
X19538Y237950D01*
X19617Y238374D01*
X19706Y238795D01*
X19806Y239214D01*
X19916Y239631D01*
X20036Y240044D01*
X20166Y240455D01*
X20306Y240862D01*
X20456Y241266D01*
X20616Y241666D01*
X20786Y242062D01*
X20965Y242454D01*
X21154Y242841D01*
X21352Y243223D01*
X21560Y243600D01*
X21777Y243973D01*
X22003Y244339D01*
X22238Y244700D01*
X22481Y245055D01*
X22734Y245405D01*
X22995Y245747D01*
X23264Y246084D01*
X23541Y246413D01*
X23826Y246736D01*
X24119Y247051D01*
X24420Y247360D01*
X24729Y247661D01*
X25044Y247954D01*
X25367Y248239D01*
X25696Y248516D01*
X26033Y248785D01*
X26375Y249046D01*
X26725Y249299D01*
X27080Y249542D01*
X27441Y249777D01*
X27807Y250003D01*
X28180Y250220D01*
X28557Y250428D01*
X28939Y250626D01*
X29326Y250815D01*
X29718Y250994D01*
X30114Y251164D01*
X30514Y251324D01*
X30918Y251474D01*
X31325Y251614D01*
X31736Y251744D01*
X32149Y251864D01*
X32566Y251974D01*
X32985Y252074D01*
X33406Y252163D01*
X33830Y252242D01*
X34255Y252310D01*
X34682Y252368D01*
X35110Y252415D01*
X35539Y252452D01*
X35969Y252479D01*
X36399Y252495D01*
X36830Y252500D01*
X37261Y252495D01*
X37691Y252479D01*
X38121Y252452D01*
X38550Y252415D01*
X38978Y252368D01*
X39405Y252310D01*
X39830Y252242D01*
X40254Y252163D01*
X40675Y252074D01*
X41094Y251974D01*
X41511Y251864D01*
X41924Y251744D01*
X42335Y251614D01*
X42742Y251474D01*
X43146Y251324D01*
X43546Y251164D01*
X43942Y250994D01*
X44334Y250815D01*
X44721Y250626D01*
X45103Y250428D01*
X45480Y250220D01*
X45853Y250003D01*
X46219Y249777D01*
X46580Y249542D01*
X46935Y249299D01*
X47285Y249046D01*
X47627Y248785D01*
X47964Y248516D01*
X48293Y248239D01*
X48616Y247954D01*
X48931Y247661D01*
X49240Y247360D01*
X49541Y247051D01*
X49834Y246736D01*
X50119Y246413D01*
X50396Y246084D01*
X50665Y245747D01*
X50926Y245405D01*
X51179Y245055D01*
X51422Y244700D01*
X51657Y244339D01*
X51883Y243973D01*
X52100Y243600D01*
X52308Y243223D01*
X52506Y242841D01*
X52695Y242454D01*
X52874Y242062D01*
X53044Y241666D01*
X53204Y241266D01*
X53354Y240862D01*
X53494Y240455D01*
X53624Y240044D01*
X53744Y239631D01*
X53854Y239214D01*
X53954Y238795D01*
X54043Y238374D01*
X54122Y237950D01*
X54190Y237525D01*
X54248Y237098D01*
X54295Y236670D01*
X54332Y236241D01*
X54359Y235811D01*
X54375Y235381D01*
X54380Y234950D01*
X54375Y234519D01*
X54359Y234089D01*
X54332Y233659D01*
X54295Y233230D01*
X54248Y232802D01*
X54190Y232375D01*
X54122Y231950D01*
X54043Y231526D01*
X53954Y231105D01*
X53854Y230686D01*
X53744Y230269D01*
X53624Y229856D01*
X53494Y229445D01*
X53354Y229038D01*
X53204Y228634D01*
X53044Y228234D01*
X52874Y227838D01*
X52695Y227446D01*
X52506Y227059D01*
X52308Y226677D01*
X52100Y226300D01*
X51883Y225927D01*
X51657Y225561D01*
X51422Y225200D01*
X51179Y224845D01*
X50926Y224495D01*
X50665Y224153D01*
X50396Y223816D01*
X50119Y223487D01*
X49834Y223164D01*
X49541Y222849D01*
X49240Y222540D01*
X48931Y222239D01*
X48616Y221946D01*
X48293Y221661D01*
X47964Y221384D01*
X47627Y221115D01*
X47285Y220854D01*
X46935Y220601D01*
X46580Y220358D01*
X46219Y220123D01*
X45853Y219897D01*
X45480Y219680D01*
X45103Y219472D01*
X44721Y219274D01*
X44334Y219085D01*
X43942Y218906D01*
X43546Y218736D01*
X43146Y218576D01*
X42742Y218426D01*
X42335Y218286D01*
X41924Y218156D01*
X41511Y218036D01*
X41094Y217926D01*
X40675Y217826D01*
X40254Y217737D01*
X39830Y217658D01*
X39405Y217590D01*
X38978Y217532D01*
X38550Y217485D01*
X38121Y217448D01*
X37691Y217421D01*
X37261Y217405D01*
X36830Y217400D01*
X36399Y217405D01*
X35969Y217421D01*
X35539Y217448D01*
X35110Y217485D01*
X34682Y217532D01*
X34255Y217590D01*
X33830Y217658D01*
X33406Y217737D01*
X32985Y217826D01*
X32566Y217926D01*
X32149Y218036D01*
X31736Y218156D01*
X31325Y218286D01*
X30918Y218426D01*
X30514Y218576D01*
X30114Y218736D01*
X29718Y218906D01*
X29326Y219085D01*
X28939Y219274D01*
X28557Y219472D01*
X28180Y219680D01*
X27807Y219897D01*
X27441Y220123D01*
X27080Y220358D01*
X26725Y220601D01*
X26375Y220854D01*
X26033Y221115D01*
X25696Y221384D01*
X25367Y221661D01*
X25044Y221946D01*
X24729Y222239D01*
X24420Y222540D01*
X24119Y222849D01*
X23826Y223164D01*
X23541Y223487D01*
X23264Y223816D01*
X22995Y224153D01*
X22734Y224495D01*
X22481Y224845D01*
X22238Y225200D01*
X22003Y225561D01*
X21777Y225927D01*
X21560Y226300D01*
X21352Y226677D01*
X21154Y227059D01*
X20965Y227446D01*
X20786Y227838D01*
X20616Y228234D01*
X20456Y228634D01*
X20306Y229038D01*
X20166Y229445D01*
X20036Y229856D01*
X19916Y230269D01*
X19806Y230686D01*
X19706Y231105D01*
X19617Y231526D01*
X19538Y231950D01*
X19470Y232375D01*
X19412Y232802D01*
X19365Y233230D01*
X19328Y233659D01*
X19301Y234089D01*
X19285Y234519D01*
X19280Y234950D01*
D10*
X13330Y190500D02*
X13332Y190563D01*
X13338Y190625D01*
X13348Y190687D01*
X13361Y190749D01*
X13379Y190809D01*
X13400Y190868D01*
X13425Y190926D01*
X13454Y190982D01*
X13486Y191036D01*
X13521Y191088D01*
X13559Y191137D01*
X13601Y191185D01*
X13645Y191229D01*
X13693Y191271D01*
X13742Y191309D01*
X13794Y191344D01*
X13848Y191376D01*
X13904Y191405D01*
X13962Y191430D01*
X14021Y191451D01*
X14081Y191469D01*
X14143Y191482D01*
X14205Y191492D01*
X14267Y191498D01*
X14330Y191500D01*
X14393Y191498D01*
X14455Y191492D01*
X14517Y191482D01*
X14579Y191469D01*
X14639Y191451D01*
X14698Y191430D01*
X14756Y191405D01*
X14812Y191376D01*
X14866Y191344D01*
X14918Y191309D01*
X14967Y191271D01*
X15015Y191229D01*
X15059Y191185D01*
X15101Y191137D01*
X15139Y191088D01*
X15174Y191036D01*
X15206Y190982D01*
X15235Y190926D01*
X15260Y190868D01*
X15281Y190809D01*
X15299Y190749D01*
X15312Y190687D01*
X15322Y190625D01*
X15328Y190563D01*
X15330Y190500D01*
X15328Y190437D01*
X15322Y190375D01*
X15312Y190313D01*
X15299Y190251D01*
X15281Y190191D01*
X15260Y190132D01*
X15235Y190074D01*
X15206Y190018D01*
X15174Y189964D01*
X15139Y189912D01*
X15101Y189863D01*
X15059Y189815D01*
X15015Y189771D01*
X14967Y189729D01*
X14918Y189691D01*
X14866Y189656D01*
X14812Y189624D01*
X14756Y189595D01*
X14698Y189570D01*
X14639Y189549D01*
X14579Y189531D01*
X14517Y189518D01*
X14455Y189508D01*
X14393Y189502D01*
X14330Y189500D01*
X14267Y189502D01*
X14205Y189508D01*
X14143Y189518D01*
X14081Y189531D01*
X14021Y189549D01*
X13962Y189570D01*
X13904Y189595D01*
X13848Y189624D01*
X13794Y189656D01*
X13742Y189691D01*
X13693Y189729D01*
X13645Y189771D01*
X13601Y189815D01*
X13559Y189863D01*
X13521Y189912D01*
X13486Y189964D01*
X13454Y190018D01*
X13425Y190074D01*
X13400Y190132D01*
X13379Y190191D01*
X13361Y190251D01*
X13348Y190313D01*
X13338Y190375D01*
X13332Y190437D01*
X13330Y190500D01*
D11*
X8150Y309470D02*
X8150Y354470D01*
X26600Y361470D02*
X49600Y361470D01*
X68050Y354470D02*
X68050Y308470D01*
X49600Y301520D02*
X26600Y301520D01*
X20550Y331470D02*
X20555Y331901D01*
X20571Y332331D01*
X20598Y332761D01*
X20635Y333190D01*
X20682Y333618D01*
X20740Y334045D01*
X20808Y334470D01*
X20887Y334894D01*
X20976Y335315D01*
X21076Y335734D01*
X21186Y336151D01*
X21306Y336564D01*
X21436Y336975D01*
X21576Y337382D01*
X21726Y337786D01*
X21886Y338186D01*
X22056Y338582D01*
X22235Y338974D01*
X22424Y339361D01*
X22622Y339743D01*
X22830Y340120D01*
X23047Y340493D01*
X23273Y340859D01*
X23508Y341220D01*
X23751Y341575D01*
X24004Y341925D01*
X24265Y342267D01*
X24534Y342604D01*
X24811Y342933D01*
X25096Y343256D01*
X25389Y343571D01*
X25690Y343880D01*
X25999Y344181D01*
X26314Y344474D01*
X26637Y344759D01*
X26966Y345036D01*
X27303Y345305D01*
X27645Y345566D01*
X27995Y345819D01*
X28350Y346062D01*
X28711Y346297D01*
X29077Y346523D01*
X29450Y346740D01*
X29827Y346948D01*
X30209Y347146D01*
X30596Y347335D01*
X30988Y347514D01*
X31384Y347684D01*
X31784Y347844D01*
X32188Y347994D01*
X32595Y348134D01*
X33006Y348264D01*
X33419Y348384D01*
X33836Y348494D01*
X34255Y348594D01*
X34676Y348683D01*
X35100Y348762D01*
X35525Y348830D01*
X35952Y348888D01*
X36380Y348935D01*
X36809Y348972D01*
X37239Y348999D01*
X37669Y349015D01*
X38100Y349020D01*
X38531Y349015D01*
X38961Y348999D01*
X39391Y348972D01*
X39820Y348935D01*
X40248Y348888D01*
X40675Y348830D01*
X41100Y348762D01*
X41524Y348683D01*
X41945Y348594D01*
X42364Y348494D01*
X42781Y348384D01*
X43194Y348264D01*
X43605Y348134D01*
X44012Y347994D01*
X44416Y347844D01*
X44816Y347684D01*
X45212Y347514D01*
X45604Y347335D01*
X45991Y347146D01*
X46373Y346948D01*
X46750Y346740D01*
X47123Y346523D01*
X47489Y346297D01*
X47850Y346062D01*
X48205Y345819D01*
X48555Y345566D01*
X48897Y345305D01*
X49234Y345036D01*
X49563Y344759D01*
X49886Y344474D01*
X50201Y344181D01*
X50510Y343880D01*
X50811Y343571D01*
X51104Y343256D01*
X51389Y342933D01*
X51666Y342604D01*
X51935Y342267D01*
X52196Y341925D01*
X52449Y341575D01*
X52692Y341220D01*
X52927Y340859D01*
X53153Y340493D01*
X53370Y340120D01*
X53578Y339743D01*
X53776Y339361D01*
X53965Y338974D01*
X54144Y338582D01*
X54314Y338186D01*
X54474Y337786D01*
X54624Y337382D01*
X54764Y336975D01*
X54894Y336564D01*
X55014Y336151D01*
X55124Y335734D01*
X55224Y335315D01*
X55313Y334894D01*
X55392Y334470D01*
X55460Y334045D01*
X55518Y333618D01*
X55565Y333190D01*
X55602Y332761D01*
X55629Y332331D01*
X55645Y331901D01*
X55650Y331470D01*
X55645Y331039D01*
X55629Y330609D01*
X55602Y330179D01*
X55565Y329750D01*
X55518Y329322D01*
X55460Y328895D01*
X55392Y328470D01*
X55313Y328046D01*
X55224Y327625D01*
X55124Y327206D01*
X55014Y326789D01*
X54894Y326376D01*
X54764Y325965D01*
X54624Y325558D01*
X54474Y325154D01*
X54314Y324754D01*
X54144Y324358D01*
X53965Y323966D01*
X53776Y323579D01*
X53578Y323197D01*
X53370Y322820D01*
X53153Y322447D01*
X52927Y322081D01*
X52692Y321720D01*
X52449Y321365D01*
X52196Y321015D01*
X51935Y320673D01*
X51666Y320336D01*
X51389Y320007D01*
X51104Y319684D01*
X50811Y319369D01*
X50510Y319060D01*
X50201Y318759D01*
X49886Y318466D01*
X49563Y318181D01*
X49234Y317904D01*
X48897Y317635D01*
X48555Y317374D01*
X48205Y317121D01*
X47850Y316878D01*
X47489Y316643D01*
X47123Y316417D01*
X46750Y316200D01*
X46373Y315992D01*
X45991Y315794D01*
X45604Y315605D01*
X45212Y315426D01*
X44816Y315256D01*
X44416Y315096D01*
X44012Y314946D01*
X43605Y314806D01*
X43194Y314676D01*
X42781Y314556D01*
X42364Y314446D01*
X41945Y314346D01*
X41524Y314257D01*
X41100Y314178D01*
X40675Y314110D01*
X40248Y314052D01*
X39820Y314005D01*
X39391Y313968D01*
X38961Y313941D01*
X38531Y313925D01*
X38100Y313920D01*
X37669Y313925D01*
X37239Y313941D01*
X36809Y313968D01*
X36380Y314005D01*
X35952Y314052D01*
X35525Y314110D01*
X35100Y314178D01*
X34676Y314257D01*
X34255Y314346D01*
X33836Y314446D01*
X33419Y314556D01*
X33006Y314676D01*
X32595Y314806D01*
X32188Y314946D01*
X31784Y315096D01*
X31384Y315256D01*
X30988Y315426D01*
X30596Y315605D01*
X30209Y315794D01*
X29827Y315992D01*
X29450Y316200D01*
X29077Y316417D01*
X28711Y316643D01*
X28350Y316878D01*
X27995Y317121D01*
X27645Y317374D01*
X27303Y317635D01*
X26966Y317904D01*
X26637Y318181D01*
X26314Y318466D01*
X25999Y318759D01*
X25690Y319060D01*
X25389Y319369D01*
X25096Y319684D01*
X24811Y320007D01*
X24534Y320336D01*
X24265Y320673D01*
X24004Y321015D01*
X23751Y321365D01*
X23508Y321720D01*
X23273Y322081D01*
X23047Y322447D01*
X22830Y322820D01*
X22622Y323197D01*
X22424Y323579D01*
X22235Y323966D01*
X22056Y324358D01*
X21886Y324754D01*
X21726Y325154D01*
X21576Y325558D01*
X21436Y325965D01*
X21306Y326376D01*
X21186Y326789D01*
X21076Y327206D01*
X20976Y327625D01*
X20887Y328046D01*
X20808Y328470D01*
X20740Y328895D01*
X20682Y329322D01*
X20635Y329750D01*
X20598Y330179D01*
X20571Y330609D01*
X20555Y331039D01*
X20550Y331470D01*
D10*
X14600Y287020D02*
X14602Y287083D01*
X14608Y287145D01*
X14618Y287207D01*
X14631Y287269D01*
X14649Y287329D01*
X14670Y287388D01*
X14695Y287446D01*
X14724Y287502D01*
X14756Y287556D01*
X14791Y287608D01*
X14829Y287657D01*
X14871Y287705D01*
X14915Y287749D01*
X14963Y287791D01*
X15012Y287829D01*
X15064Y287864D01*
X15118Y287896D01*
X15174Y287925D01*
X15232Y287950D01*
X15291Y287971D01*
X15351Y287989D01*
X15413Y288002D01*
X15475Y288012D01*
X15537Y288018D01*
X15600Y288020D01*
X15663Y288018D01*
X15725Y288012D01*
X15787Y288002D01*
X15849Y287989D01*
X15909Y287971D01*
X15968Y287950D01*
X16026Y287925D01*
X16082Y287896D01*
X16136Y287864D01*
X16188Y287829D01*
X16237Y287791D01*
X16285Y287749D01*
X16329Y287705D01*
X16371Y287657D01*
X16409Y287608D01*
X16444Y287556D01*
X16476Y287502D01*
X16505Y287446D01*
X16530Y287388D01*
X16551Y287329D01*
X16569Y287269D01*
X16582Y287207D01*
X16592Y287145D01*
X16598Y287083D01*
X16600Y287020D01*
X16598Y286957D01*
X16592Y286895D01*
X16582Y286833D01*
X16569Y286771D01*
X16551Y286711D01*
X16530Y286652D01*
X16505Y286594D01*
X16476Y286538D01*
X16444Y286484D01*
X16409Y286432D01*
X16371Y286383D01*
X16329Y286335D01*
X16285Y286291D01*
X16237Y286249D01*
X16188Y286211D01*
X16136Y286176D01*
X16082Y286144D01*
X16026Y286115D01*
X15968Y286090D01*
X15909Y286069D01*
X15849Y286051D01*
X15787Y286038D01*
X15725Y286028D01*
X15663Y286022D01*
X15600Y286020D01*
X15537Y286022D01*
X15475Y286028D01*
X15413Y286038D01*
X15351Y286051D01*
X15291Y286069D01*
X15232Y286090D01*
X15174Y286115D01*
X15118Y286144D01*
X15064Y286176D01*
X15012Y286211D01*
X14963Y286249D01*
X14915Y286291D01*
X14871Y286335D01*
X14829Y286383D01*
X14791Y286432D01*
X14756Y286484D01*
X14724Y286538D01*
X14695Y286594D01*
X14670Y286652D01*
X14649Y286711D01*
X14631Y286771D01*
X14618Y286833D01*
X14608Y286895D01*
X14602Y286957D01*
X14600Y287020D01*
D11*
X6880Y399640D02*
X6880Y444640D01*
X25330Y451640D02*
X48330Y451640D01*
X66780Y444640D02*
X66780Y398640D01*
X48330Y391690D02*
X25330Y391690D01*
X19280Y421640D02*
X19285Y422071D01*
X19301Y422501D01*
X19328Y422931D01*
X19365Y423360D01*
X19412Y423788D01*
X19470Y424215D01*
X19538Y424640D01*
X19617Y425064D01*
X19706Y425485D01*
X19806Y425904D01*
X19916Y426321D01*
X20036Y426734D01*
X20166Y427145D01*
X20306Y427552D01*
X20456Y427956D01*
X20616Y428356D01*
X20786Y428752D01*
X20965Y429144D01*
X21154Y429531D01*
X21352Y429913D01*
X21560Y430290D01*
X21777Y430663D01*
X22003Y431029D01*
X22238Y431390D01*
X22481Y431745D01*
X22734Y432095D01*
X22995Y432437D01*
X23264Y432774D01*
X23541Y433103D01*
X23826Y433426D01*
X24119Y433741D01*
X24420Y434050D01*
X24729Y434351D01*
X25044Y434644D01*
X25367Y434929D01*
X25696Y435206D01*
X26033Y435475D01*
X26375Y435736D01*
X26725Y435989D01*
X27080Y436232D01*
X27441Y436467D01*
X27807Y436693D01*
X28180Y436910D01*
X28557Y437118D01*
X28939Y437316D01*
X29326Y437505D01*
X29718Y437684D01*
X30114Y437854D01*
X30514Y438014D01*
X30918Y438164D01*
X31325Y438304D01*
X31736Y438434D01*
X32149Y438554D01*
X32566Y438664D01*
X32985Y438764D01*
X33406Y438853D01*
X33830Y438932D01*
X34255Y439000D01*
X34682Y439058D01*
X35110Y439105D01*
X35539Y439142D01*
X35969Y439169D01*
X36399Y439185D01*
X36830Y439190D01*
X37261Y439185D01*
X37691Y439169D01*
X38121Y439142D01*
X38550Y439105D01*
X38978Y439058D01*
X39405Y439000D01*
X39830Y438932D01*
X40254Y438853D01*
X40675Y438764D01*
X41094Y438664D01*
X41511Y438554D01*
X41924Y438434D01*
X42335Y438304D01*
X42742Y438164D01*
X43146Y438014D01*
X43546Y437854D01*
X43942Y437684D01*
X44334Y437505D01*
X44721Y437316D01*
X45103Y437118D01*
X45480Y436910D01*
X45853Y436693D01*
X46219Y436467D01*
X46580Y436232D01*
X46935Y435989D01*
X47285Y435736D01*
X47627Y435475D01*
X47964Y435206D01*
X48293Y434929D01*
X48616Y434644D01*
X48931Y434351D01*
X49240Y434050D01*
X49541Y433741D01*
X49834Y433426D01*
X50119Y433103D01*
X50396Y432774D01*
X50665Y432437D01*
X50926Y432095D01*
X51179Y431745D01*
X51422Y431390D01*
X51657Y431029D01*
X51883Y430663D01*
X52100Y430290D01*
X52308Y429913D01*
X52506Y429531D01*
X52695Y429144D01*
X52874Y428752D01*
X53044Y428356D01*
X53204Y427956D01*
X53354Y427552D01*
X53494Y427145D01*
X53624Y426734D01*
X53744Y426321D01*
X53854Y425904D01*
X53954Y425485D01*
X54043Y425064D01*
X54122Y424640D01*
X54190Y424215D01*
X54248Y423788D01*
X54295Y423360D01*
X54332Y422931D01*
X54359Y422501D01*
X54375Y422071D01*
X54380Y421640D01*
X54375Y421209D01*
X54359Y420779D01*
X54332Y420349D01*
X54295Y419920D01*
X54248Y419492D01*
X54190Y419065D01*
X54122Y418640D01*
X54043Y418216D01*
X53954Y417795D01*
X53854Y417376D01*
X53744Y416959D01*
X53624Y416546D01*
X53494Y416135D01*
X53354Y415728D01*
X53204Y415324D01*
X53044Y414924D01*
X52874Y414528D01*
X52695Y414136D01*
X52506Y413749D01*
X52308Y413367D01*
X52100Y412990D01*
X51883Y412617D01*
X51657Y412251D01*
X51422Y411890D01*
X51179Y411535D01*
X50926Y411185D01*
X50665Y410843D01*
X50396Y410506D01*
X50119Y410177D01*
X49834Y409854D01*
X49541Y409539D01*
X49240Y409230D01*
X48931Y408929D01*
X48616Y408636D01*
X48293Y408351D01*
X47964Y408074D01*
X47627Y407805D01*
X47285Y407544D01*
X46935Y407291D01*
X46580Y407048D01*
X46219Y406813D01*
X45853Y406587D01*
X45480Y406370D01*
X45103Y406162D01*
X44721Y405964D01*
X44334Y405775D01*
X43942Y405596D01*
X43546Y405426D01*
X43146Y405266D01*
X42742Y405116D01*
X42335Y404976D01*
X41924Y404846D01*
X41511Y404726D01*
X41094Y404616D01*
X40675Y404516D01*
X40254Y404427D01*
X39830Y404348D01*
X39405Y404280D01*
X38978Y404222D01*
X38550Y404175D01*
X38121Y404138D01*
X37691Y404111D01*
X37261Y404095D01*
X36830Y404090D01*
X36399Y404095D01*
X35969Y404111D01*
X35539Y404138D01*
X35110Y404175D01*
X34682Y404222D01*
X34255Y404280D01*
X33830Y404348D01*
X33406Y404427D01*
X32985Y404516D01*
X32566Y404616D01*
X32149Y404726D01*
X31736Y404846D01*
X31325Y404976D01*
X30918Y405116D01*
X30514Y405266D01*
X30114Y405426D01*
X29718Y405596D01*
X29326Y405775D01*
X28939Y405964D01*
X28557Y406162D01*
X28180Y406370D01*
X27807Y406587D01*
X27441Y406813D01*
X27080Y407048D01*
X26725Y407291D01*
X26375Y407544D01*
X26033Y407805D01*
X25696Y408074D01*
X25367Y408351D01*
X25044Y408636D01*
X24729Y408929D01*
X24420Y409230D01*
X24119Y409539D01*
X23826Y409854D01*
X23541Y410177D01*
X23264Y410506D01*
X22995Y410843D01*
X22734Y411185D01*
X22481Y411535D01*
X22238Y411890D01*
X22003Y412251D01*
X21777Y412617D01*
X21560Y412990D01*
X21352Y413367D01*
X21154Y413749D01*
X20965Y414136D01*
X20786Y414528D01*
X20616Y414924D01*
X20456Y415324D01*
X20306Y415728D01*
X20166Y416135D01*
X20036Y416546D01*
X19916Y416959D01*
X19806Y417376D01*
X19706Y417795D01*
X19617Y418216D01*
X19538Y418640D01*
X19470Y419065D01*
X19412Y419492D01*
X19365Y419920D01*
X19328Y420349D01*
X19301Y420779D01*
X19285Y421209D01*
X19280Y421640D01*
D10*
X13330Y377190D02*
X13332Y377253D01*
X13338Y377315D01*
X13348Y377377D01*
X13361Y377439D01*
X13379Y377499D01*
X13400Y377558D01*
X13425Y377616D01*
X13454Y377672D01*
X13486Y377726D01*
X13521Y377778D01*
X13559Y377827D01*
X13601Y377875D01*
X13645Y377919D01*
X13693Y377961D01*
X13742Y377999D01*
X13794Y378034D01*
X13848Y378066D01*
X13904Y378095D01*
X13962Y378120D01*
X14021Y378141D01*
X14081Y378159D01*
X14143Y378172D01*
X14205Y378182D01*
X14267Y378188D01*
X14330Y378190D01*
X14393Y378188D01*
X14455Y378182D01*
X14517Y378172D01*
X14579Y378159D01*
X14639Y378141D01*
X14698Y378120D01*
X14756Y378095D01*
X14812Y378066D01*
X14866Y378034D01*
X14918Y377999D01*
X14967Y377961D01*
X15015Y377919D01*
X15059Y377875D01*
X15101Y377827D01*
X15139Y377778D01*
X15174Y377726D01*
X15206Y377672D01*
X15235Y377616D01*
X15260Y377558D01*
X15281Y377499D01*
X15299Y377439D01*
X15312Y377377D01*
X15322Y377315D01*
X15328Y377253D01*
X15330Y377190D01*
X15328Y377127D01*
X15322Y377065D01*
X15312Y377003D01*
X15299Y376941D01*
X15281Y376881D01*
X15260Y376822D01*
X15235Y376764D01*
X15206Y376708D01*
X15174Y376654D01*
X15139Y376602D01*
X15101Y376553D01*
X15059Y376505D01*
X15015Y376461D01*
X14967Y376419D01*
X14918Y376381D01*
X14866Y376346D01*
X14812Y376314D01*
X14756Y376285D01*
X14698Y376260D01*
X14639Y376239D01*
X14579Y376221D01*
X14517Y376208D01*
X14455Y376198D01*
X14393Y376192D01*
X14330Y376190D01*
X14267Y376192D01*
X14205Y376198D01*
X14143Y376208D01*
X14081Y376221D01*
X14021Y376239D01*
X13962Y376260D01*
X13904Y376285D01*
X13848Y376314D01*
X13794Y376346D01*
X13742Y376381D01*
X13693Y376419D01*
X13645Y376461D01*
X13601Y376505D01*
X13559Y376553D01*
X13521Y376602D01*
X13486Y376654D01*
X13454Y376708D01*
X13425Y376764D01*
X13400Y376822D01*
X13379Y376881D01*
X13361Y376941D01*
X13348Y377003D01*
X13338Y377065D01*
X13332Y377127D01*
X13330Y377190D01*
X316970Y278590D02*
X316970Y272590D01*
X316970Y278590D02*
X345970Y278590D01*
X345970Y272590D01*
X316970Y272590D01*
X316470Y269090D02*
X316470Y257090D01*
D14*
X379400Y208280D02*
X379408Y207623D01*
X379432Y206965D01*
X379472Y206309D01*
X379528Y205654D01*
X379600Y205000D01*
X379688Y204349D01*
X379791Y203699D01*
X379911Y203053D01*
X380046Y202409D01*
X380197Y201769D01*
X380363Y201133D01*
X380545Y200501D01*
X380742Y199874D01*
X380954Y199252D01*
X381182Y198635D01*
X381424Y198024D01*
X381681Y197418D01*
X381953Y196820D01*
X382239Y196228D01*
X382540Y195643D01*
X382855Y195066D01*
X383183Y194496D01*
X383526Y193935D01*
X383882Y193382D01*
X384252Y192838D01*
X384634Y192304D01*
X385030Y191778D01*
X385438Y191263D01*
X385858Y190757D01*
X386291Y190262D01*
X386736Y189778D01*
X387192Y189305D01*
X387660Y188843D01*
X388139Y188392D01*
X388629Y187953D01*
X389129Y187527D01*
X389639Y187112D01*
X390160Y186710D01*
X390690Y186321D01*
X391229Y185945D01*
X391778Y185582D01*
X392335Y185233D01*
X392900Y184897D01*
X393473Y184576D01*
X394054Y184268D01*
X394643Y183974D01*
X395238Y183695D01*
X395840Y183431D01*
X396448Y183181D01*
X397063Y182946D01*
X397682Y182726D01*
X398307Y182521D01*
X398937Y182332D01*
X399571Y182158D01*
X400209Y181999D01*
X400851Y181856D01*
X401496Y181729D01*
X402144Y181618D01*
X402794Y181522D01*
X403447Y181442D01*
X404101Y181378D01*
X404757Y181330D01*
X405414Y181298D01*
X406071Y181282D01*
X406729Y181282D01*
X407386Y181298D01*
X408043Y181330D01*
X408699Y181378D01*
X409353Y181442D01*
X410006Y181522D01*
X410656Y181618D01*
X411304Y181729D01*
X411949Y181856D01*
X412591Y181999D01*
X413229Y182158D01*
X413863Y182332D01*
X414493Y182521D01*
X415118Y182726D01*
X415737Y182946D01*
X416352Y183181D01*
X416960Y183431D01*
X417562Y183695D01*
X418157Y183974D01*
X418746Y184268D01*
X419327Y184576D01*
X419900Y184897D01*
X420465Y185233D01*
X421022Y185582D01*
X421571Y185945D01*
X422110Y186321D01*
X422640Y186710D01*
X423161Y187112D01*
X423671Y187527D01*
X424171Y187953D01*
X424661Y188392D01*
X425140Y188843D01*
X425608Y189305D01*
X426064Y189778D01*
X426509Y190262D01*
X426942Y190757D01*
X427362Y191263D01*
X427770Y191778D01*
X428166Y192304D01*
X428548Y192838D01*
X428918Y193382D01*
X429274Y193935D01*
X429617Y194496D01*
X429945Y195066D01*
X430260Y195643D01*
X430561Y196228D01*
X430847Y196820D01*
X431119Y197418D01*
X431376Y198024D01*
X431618Y198635D01*
X431846Y199252D01*
X432058Y199874D01*
X432255Y200501D01*
X432437Y201133D01*
X432603Y201769D01*
X432754Y202409D01*
X432889Y203053D01*
X433009Y203699D01*
X433112Y204349D01*
X433200Y205000D01*
X433272Y205654D01*
X433328Y206309D01*
X433368Y206965D01*
X433392Y207623D01*
X433400Y208280D01*
X433392Y208937D01*
X433368Y209595D01*
X433328Y210251D01*
X433272Y210906D01*
X433200Y211560D01*
X433112Y212211D01*
X433009Y212861D01*
X432889Y213507D01*
X432754Y214151D01*
X432603Y214791D01*
X432437Y215427D01*
X432255Y216059D01*
X432058Y216686D01*
X431846Y217308D01*
X431618Y217925D01*
X431376Y218536D01*
X431119Y219142D01*
X430847Y219740D01*
X430561Y220332D01*
X430260Y220917D01*
X429945Y221494D01*
X429617Y222064D01*
X429274Y222625D01*
X428918Y223178D01*
X428548Y223722D01*
X428166Y224256D01*
X427770Y224782D01*
X427362Y225297D01*
X426942Y225803D01*
X426509Y226298D01*
X426064Y226782D01*
X425608Y227255D01*
X425140Y227717D01*
X424661Y228168D01*
X424171Y228607D01*
X423671Y229033D01*
X423161Y229448D01*
X422640Y229850D01*
X422110Y230239D01*
X421571Y230615D01*
X421022Y230978D01*
X420465Y231327D01*
X419900Y231663D01*
X419327Y231984D01*
X418746Y232292D01*
X418157Y232586D01*
X417562Y232865D01*
X416960Y233129D01*
X416352Y233379D01*
X415737Y233614D01*
X415118Y233834D01*
X414493Y234039D01*
X413863Y234228D01*
X413229Y234402D01*
X412591Y234561D01*
X411949Y234704D01*
X411304Y234831D01*
X410656Y234942D01*
X410006Y235038D01*
X409353Y235118D01*
X408699Y235182D01*
X408043Y235230D01*
X407386Y235262D01*
X406729Y235278D01*
X406071Y235278D01*
X405414Y235262D01*
X404757Y235230D01*
X404101Y235182D01*
X403447Y235118D01*
X402794Y235038D01*
X402144Y234942D01*
X401496Y234831D01*
X400851Y234704D01*
X400209Y234561D01*
X399571Y234402D01*
X398937Y234228D01*
X398307Y234039D01*
X397682Y233834D01*
X397063Y233614D01*
X396448Y233379D01*
X395840Y233129D01*
X395238Y232865D01*
X394643Y232586D01*
X394054Y232292D01*
X393473Y231984D01*
X392900Y231663D01*
X392335Y231327D01*
X391778Y230978D01*
X391229Y230615D01*
X390690Y230239D01*
X390160Y229850D01*
X389639Y229448D01*
X389129Y229033D01*
X388629Y228607D01*
X388139Y228168D01*
X387660Y227717D01*
X387192Y227255D01*
X386736Y226782D01*
X386291Y226298D01*
X385858Y225803D01*
X385438Y225297D01*
X385030Y224782D01*
X384634Y224256D01*
X384252Y223722D01*
X383882Y223178D01*
X383526Y222625D01*
X383183Y222064D01*
X382855Y221494D01*
X382540Y220917D01*
X382239Y220332D01*
X381953Y219740D01*
X381681Y219142D01*
X381424Y218536D01*
X381182Y217925D01*
X380954Y217308D01*
X380742Y216686D01*
X380545Y216059D01*
X380363Y215427D01*
X380197Y214791D01*
X380046Y214151D01*
X379911Y213507D01*
X379791Y212861D01*
X379688Y212211D01*
X379600Y211560D01*
X379528Y210906D01*
X379472Y210251D01*
X379432Y209595D01*
X379408Y208937D01*
X379400Y208280D01*
D10*
X363850Y222770D02*
X363850Y224270D01*
X363850Y222770D02*
X334650Y222770D01*
X334650Y224270D01*
X363850Y224270D01*
X364250Y227770D02*
X364250Y240270D01*
D14*
X45460Y592240D02*
X-24540Y592240D01*
X-24540Y494240D01*
X120460Y494240D01*
X120460Y513240D01*
D10*
X145460Y542240D02*
X145522Y542242D01*
X145583Y542248D01*
X145644Y542257D01*
X145704Y542270D01*
X145763Y542287D01*
X145821Y542308D01*
X145878Y542332D01*
X145933Y542359D01*
X145986Y542390D01*
X146038Y542424D01*
X146087Y542461D01*
X146134Y542501D01*
X146178Y542544D01*
X146219Y542589D01*
X146258Y542637D01*
X146294Y542688D01*
X146326Y542740D01*
X146355Y542794D01*
X146381Y542850D01*
X146403Y542908D01*
X146422Y542966D01*
X146437Y543026D01*
X146448Y543087D01*
X146456Y543148D01*
X146460Y543209D01*
X146460Y543271D01*
X146456Y543332D01*
X146448Y543393D01*
X146437Y543454D01*
X146422Y543514D01*
X146403Y543572D01*
X146381Y543630D01*
X146355Y543686D01*
X146326Y543740D01*
X146294Y543792D01*
X146258Y543843D01*
X146219Y543891D01*
X146178Y543936D01*
X146134Y543979D01*
X146087Y544019D01*
X146038Y544056D01*
X145986Y544090D01*
X145933Y544121D01*
X145878Y544148D01*
X145821Y544172D01*
X145763Y544193D01*
X145704Y544210D01*
X145644Y544223D01*
X145583Y544232D01*
X145522Y544238D01*
X145460Y544240D01*
X145398Y544238D01*
X145337Y544232D01*
X145276Y544223D01*
X145216Y544210D01*
X145157Y544193D01*
X145099Y544172D01*
X145042Y544148D01*
X144987Y544121D01*
X144934Y544090D01*
X144882Y544056D01*
X144833Y544019D01*
X144786Y543979D01*
X144742Y543936D01*
X144701Y543891D01*
X144662Y543843D01*
X144626Y543792D01*
X144594Y543740D01*
X144565Y543686D01*
X144539Y543630D01*
X144517Y543572D01*
X144498Y543514D01*
X144483Y543454D01*
X144472Y543393D01*
X144464Y543332D01*
X144460Y543271D01*
X144460Y543209D01*
X144464Y543148D01*
X144472Y543087D01*
X144483Y543026D01*
X144498Y542966D01*
X144517Y542908D01*
X144539Y542850D01*
X144565Y542794D01*
X144594Y542740D01*
X144626Y542688D01*
X144662Y542637D01*
X144701Y542589D01*
X144742Y542544D01*
X144786Y542501D01*
X144833Y542461D01*
X144882Y542424D01*
X144934Y542390D01*
X144987Y542359D01*
X145042Y542332D01*
X145099Y542308D01*
X145157Y542287D01*
X145216Y542270D01*
X145276Y542257D01*
X145337Y542248D01*
X145398Y542242D01*
X145460Y542240D01*
X106833Y179199D02*
X106833Y153799D01*
X208433Y153799D02*
X208433Y179199D01*
X106833Y179199D01*
X106833Y153799D02*
X208433Y153799D01*
X99333Y166499D02*
X99335Y166562D01*
X99341Y166624D01*
X99351Y166686D01*
X99364Y166748D01*
X99382Y166808D01*
X99403Y166867D01*
X99428Y166925D01*
X99457Y166981D01*
X99489Y167035D01*
X99524Y167087D01*
X99562Y167136D01*
X99604Y167184D01*
X99648Y167228D01*
X99696Y167270D01*
X99745Y167308D01*
X99797Y167343D01*
X99851Y167375D01*
X99907Y167404D01*
X99965Y167429D01*
X100024Y167450D01*
X100084Y167468D01*
X100146Y167481D01*
X100208Y167491D01*
X100270Y167497D01*
X100333Y167499D01*
X100396Y167497D01*
X100458Y167491D01*
X100520Y167481D01*
X100582Y167468D01*
X100642Y167450D01*
X100701Y167429D01*
X100759Y167404D01*
X100815Y167375D01*
X100869Y167343D01*
X100921Y167308D01*
X100970Y167270D01*
X101018Y167228D01*
X101062Y167184D01*
X101104Y167136D01*
X101142Y167087D01*
X101177Y167035D01*
X101209Y166981D01*
X101238Y166925D01*
X101263Y166867D01*
X101284Y166808D01*
X101302Y166748D01*
X101315Y166686D01*
X101325Y166624D01*
X101331Y166562D01*
X101333Y166499D01*
X101331Y166436D01*
X101325Y166374D01*
X101315Y166312D01*
X101302Y166250D01*
X101284Y166190D01*
X101263Y166131D01*
X101238Y166073D01*
X101209Y166017D01*
X101177Y165963D01*
X101142Y165911D01*
X101104Y165862D01*
X101062Y165814D01*
X101018Y165770D01*
X100970Y165728D01*
X100921Y165690D01*
X100869Y165655D01*
X100815Y165623D01*
X100759Y165594D01*
X100701Y165569D01*
X100642Y165548D01*
X100582Y165530D01*
X100520Y165517D01*
X100458Y165507D01*
X100396Y165501D01*
X100333Y165499D01*
X100270Y165501D01*
X100208Y165507D01*
X100146Y165517D01*
X100084Y165530D01*
X100024Y165548D01*
X99965Y165569D01*
X99907Y165594D01*
X99851Y165623D01*
X99797Y165655D01*
X99745Y165690D01*
X99696Y165728D01*
X99648Y165770D01*
X99604Y165814D01*
X99562Y165862D01*
X99524Y165911D01*
X99489Y165963D01*
X99457Y166017D01*
X99428Y166073D01*
X99403Y166131D01*
X99382Y166190D01*
X99364Y166250D01*
X99351Y166312D01*
X99341Y166374D01*
X99335Y166436D01*
X99333Y166499D01*
X414630Y605790D02*
X414635Y605403D01*
X414649Y605016D01*
X414672Y604629D01*
X414705Y604244D01*
X414748Y603859D01*
X414799Y603475D01*
X414860Y603093D01*
X414931Y602712D01*
X415010Y602333D01*
X415099Y601956D01*
X415197Y601581D01*
X415304Y601209D01*
X415420Y600840D01*
X415545Y600473D01*
X415679Y600110D01*
X415822Y599750D01*
X415973Y599394D01*
X416133Y599041D01*
X416302Y598693D01*
X416479Y598348D01*
X416664Y598008D01*
X416858Y597673D01*
X417060Y597342D01*
X417269Y597017D01*
X417487Y596697D01*
X417712Y596382D01*
X417945Y596072D01*
X418186Y595769D01*
X418433Y595471D01*
X418688Y595180D01*
X418950Y594894D01*
X419219Y594616D01*
X419494Y594344D01*
X419776Y594078D01*
X420065Y593820D01*
X420359Y593569D01*
X420660Y593324D01*
X420966Y593088D01*
X421278Y592859D01*
X421596Y592637D01*
X421919Y592424D01*
X422247Y592218D01*
X422580Y592020D01*
X422918Y591831D01*
X423260Y591649D01*
X423606Y591477D01*
X423957Y591312D01*
X424311Y591156D01*
X424670Y591009D01*
X425031Y590871D01*
X425396Y590742D01*
X425764Y590621D01*
X426135Y590510D01*
X426508Y590407D01*
X426884Y590314D01*
X427262Y590229D01*
X427642Y590154D01*
X428024Y590089D01*
X428407Y590032D01*
X428791Y589985D01*
X429176Y589948D01*
X429563Y589919D01*
X429949Y589901D01*
X430336Y589891D01*
X430724Y589891D01*
X431111Y589901D01*
X431497Y589919D01*
X431884Y589948D01*
X432269Y589985D01*
X432653Y590032D01*
X433036Y590089D01*
X433418Y590154D01*
X433798Y590229D01*
X434176Y590314D01*
X434552Y590407D01*
X434925Y590510D01*
X435296Y590621D01*
X435664Y590742D01*
X436029Y590871D01*
X436390Y591009D01*
X436749Y591156D01*
X437103Y591312D01*
X437454Y591477D01*
X437800Y591649D01*
X438142Y591831D01*
X438480Y592020D01*
X438813Y592218D01*
X439141Y592424D01*
X439464Y592637D01*
X439782Y592859D01*
X440094Y593088D01*
X440400Y593324D01*
X440701Y593569D01*
X440995Y593820D01*
X441284Y594078D01*
X441566Y594344D01*
X441841Y594616D01*
X442110Y594894D01*
X442372Y595180D01*
X442627Y595471D01*
X442874Y595769D01*
X443115Y596072D01*
X443348Y596382D01*
X443573Y596697D01*
X443791Y597017D01*
X444000Y597342D01*
X444202Y597673D01*
X444396Y598008D01*
X444581Y598348D01*
X444758Y598693D01*
X444927Y599041D01*
X445087Y599394D01*
X445238Y599750D01*
X445381Y600110D01*
X445515Y600473D01*
X445640Y600840D01*
X445756Y601209D01*
X445863Y601581D01*
X445961Y601956D01*
X446050Y602333D01*
X446129Y602712D01*
X446200Y603093D01*
X446261Y603475D01*
X446312Y603859D01*
X446355Y604244D01*
X446388Y604629D01*
X446411Y605016D01*
X446425Y605403D01*
X446430Y605790D01*
X446425Y606177D01*
X446411Y606564D01*
X446388Y606951D01*
X446355Y607336D01*
X446312Y607721D01*
X446261Y608105D01*
X446200Y608487D01*
X446129Y608868D01*
X446050Y609247D01*
X445961Y609624D01*
X445863Y609999D01*
X445756Y610371D01*
X445640Y610740D01*
X445515Y611107D01*
X445381Y611470D01*
X445238Y611830D01*
X445087Y612186D01*
X444927Y612539D01*
X444758Y612887D01*
X444581Y613232D01*
X444396Y613572D01*
X444202Y613907D01*
X444000Y614238D01*
X443791Y614563D01*
X443573Y614883D01*
X443348Y615198D01*
X443115Y615508D01*
X442874Y615811D01*
X442627Y616109D01*
X442372Y616400D01*
X442110Y616686D01*
X441841Y616964D01*
X441566Y617236D01*
X441284Y617502D01*
X440995Y617760D01*
X440701Y618011D01*
X440400Y618256D01*
X440094Y618492D01*
X439782Y618721D01*
X439464Y618943D01*
X439141Y619156D01*
X438813Y619362D01*
X438480Y619560D01*
X438142Y619749D01*
X437800Y619931D01*
X437454Y620103D01*
X437103Y620268D01*
X436749Y620424D01*
X436390Y620571D01*
X436029Y620709D01*
X435664Y620838D01*
X435296Y620959D01*
X434925Y621070D01*
X434552Y621173D01*
X434176Y621266D01*
X433798Y621351D01*
X433418Y621426D01*
X433036Y621491D01*
X432653Y621548D01*
X432269Y621595D01*
X431884Y621632D01*
X431497Y621661D01*
X431111Y621679D01*
X430724Y621689D01*
X430336Y621689D01*
X429949Y621679D01*
X429563Y621661D01*
X429176Y621632D01*
X428791Y621595D01*
X428407Y621548D01*
X428024Y621491D01*
X427642Y621426D01*
X427262Y621351D01*
X426884Y621266D01*
X426508Y621173D01*
X426135Y621070D01*
X425764Y620959D01*
X425396Y620838D01*
X425031Y620709D01*
X424670Y620571D01*
X424311Y620424D01*
X423957Y620268D01*
X423606Y620103D01*
X423260Y619931D01*
X422918Y619749D01*
X422580Y619560D01*
X422247Y619362D01*
X421919Y619156D01*
X421596Y618943D01*
X421278Y618721D01*
X420966Y618492D01*
X420660Y618256D01*
X420359Y618011D01*
X420065Y617760D01*
X419776Y617502D01*
X419494Y617236D01*
X419219Y616964D01*
X418950Y616686D01*
X418688Y616400D01*
X418433Y616109D01*
X418186Y615811D01*
X417945Y615508D01*
X417712Y615198D01*
X417487Y614883D01*
X417269Y614563D01*
X417060Y614238D01*
X416858Y613907D01*
X416664Y613572D01*
X416479Y613232D01*
X416302Y612887D01*
X416133Y612539D01*
X415973Y612186D01*
X415822Y611830D01*
X415679Y611470D01*
X415545Y611107D01*
X415420Y610740D01*
X415304Y610371D01*
X415197Y609999D01*
X415099Y609624D01*
X415010Y609247D01*
X414931Y608868D01*
X414860Y608487D01*
X414799Y608105D01*
X414748Y607721D01*
X414705Y607336D01*
X414672Y606951D01*
X414649Y606564D01*
X414635Y606177D01*
X414630Y605790D01*
D14*
X430530Y584790D02*
X430574Y584788D01*
X430617Y584782D01*
X430659Y584773D01*
X430701Y584760D01*
X430741Y584743D01*
X430780Y584723D01*
X430817Y584700D01*
X430851Y584673D01*
X430884Y584644D01*
X430913Y584611D01*
X430940Y584577D01*
X430963Y584540D01*
X430983Y584501D01*
X431000Y584461D01*
X431013Y584419D01*
X431022Y584377D01*
X431028Y584334D01*
X431030Y584290D01*
X431028Y584246D01*
X431022Y584203D01*
X431013Y584161D01*
X431000Y584119D01*
X430983Y584079D01*
X430963Y584040D01*
X430940Y584003D01*
X430913Y583969D01*
X430884Y583936D01*
X430851Y583907D01*
X430817Y583880D01*
X430780Y583857D01*
X430741Y583837D01*
X430701Y583820D01*
X430659Y583807D01*
X430617Y583798D01*
X430574Y583792D01*
X430530Y583790D01*
X430486Y583792D01*
X430443Y583798D01*
X430401Y583807D01*
X430359Y583820D01*
X430319Y583837D01*
X430280Y583857D01*
X430243Y583880D01*
X430209Y583907D01*
X430176Y583936D01*
X430147Y583969D01*
X430120Y584003D01*
X430097Y584040D01*
X430077Y584079D01*
X430060Y584119D01*
X430047Y584161D01*
X430038Y584203D01*
X430032Y584246D01*
X430030Y584290D01*
X430032Y584334D01*
X430038Y584377D01*
X430047Y584419D01*
X430060Y584461D01*
X430077Y584501D01*
X430097Y584540D01*
X430120Y584577D01*
X430147Y584611D01*
X430176Y584644D01*
X430209Y584673D01*
X430243Y584700D01*
X430280Y584723D01*
X430319Y584743D01*
X430359Y584760D01*
X430401Y584773D01*
X430443Y584782D01*
X430486Y584788D01*
X430530Y584790D01*
D10*
X183540Y422910D02*
X183535Y422523D01*
X183521Y422136D01*
X183498Y421749D01*
X183465Y421364D01*
X183422Y420979D01*
X183371Y420595D01*
X183310Y420213D01*
X183239Y419832D01*
X183160Y419453D01*
X183071Y419076D01*
X182973Y418701D01*
X182866Y418329D01*
X182750Y417960D01*
X182625Y417593D01*
X182491Y417230D01*
X182348Y416870D01*
X182197Y416514D01*
X182037Y416161D01*
X181868Y415813D01*
X181691Y415468D01*
X181506Y415128D01*
X181312Y414793D01*
X181110Y414462D01*
X180901Y414137D01*
X180683Y413817D01*
X180458Y413502D01*
X180225Y413192D01*
X179984Y412889D01*
X179737Y412591D01*
X179482Y412300D01*
X179220Y412014D01*
X178951Y411736D01*
X178676Y411464D01*
X178394Y411198D01*
X178105Y410940D01*
X177811Y410689D01*
X177510Y410444D01*
X177204Y410208D01*
X176892Y409979D01*
X176574Y409757D01*
X176251Y409544D01*
X175923Y409338D01*
X175590Y409140D01*
X175252Y408951D01*
X174910Y408769D01*
X174564Y408597D01*
X174213Y408432D01*
X173859Y408276D01*
X173500Y408129D01*
X173139Y407991D01*
X172774Y407862D01*
X172406Y407741D01*
X172035Y407630D01*
X171662Y407527D01*
X171286Y407434D01*
X170908Y407349D01*
X170528Y407274D01*
X170146Y407209D01*
X169763Y407152D01*
X169379Y407105D01*
X168994Y407068D01*
X168607Y407039D01*
X168221Y407021D01*
X167834Y407011D01*
X167446Y407011D01*
X167059Y407021D01*
X166673Y407039D01*
X166286Y407068D01*
X165901Y407105D01*
X165517Y407152D01*
X165134Y407209D01*
X164752Y407274D01*
X164372Y407349D01*
X163994Y407434D01*
X163618Y407527D01*
X163245Y407630D01*
X162874Y407741D01*
X162506Y407862D01*
X162141Y407991D01*
X161780Y408129D01*
X161421Y408276D01*
X161067Y408432D01*
X160716Y408597D01*
X160370Y408769D01*
X160028Y408951D01*
X159690Y409140D01*
X159357Y409338D01*
X159029Y409544D01*
X158706Y409757D01*
X158388Y409979D01*
X158076Y410208D01*
X157770Y410444D01*
X157469Y410689D01*
X157175Y410940D01*
X156886Y411198D01*
X156604Y411464D01*
X156329Y411736D01*
X156060Y412014D01*
X155798Y412300D01*
X155543Y412591D01*
X155296Y412889D01*
X155055Y413192D01*
X154822Y413502D01*
X154597Y413817D01*
X154379Y414137D01*
X154170Y414462D01*
X153968Y414793D01*
X153774Y415128D01*
X153589Y415468D01*
X153412Y415813D01*
X153243Y416161D01*
X153083Y416514D01*
X152932Y416870D01*
X152789Y417230D01*
X152655Y417593D01*
X152530Y417960D01*
X152414Y418329D01*
X152307Y418701D01*
X152209Y419076D01*
X152120Y419453D01*
X152041Y419832D01*
X151970Y420213D01*
X151909Y420595D01*
X151858Y420979D01*
X151815Y421364D01*
X151782Y421749D01*
X151759Y422136D01*
X151745Y422523D01*
X151740Y422910D01*
X151745Y423297D01*
X151759Y423684D01*
X151782Y424071D01*
X151815Y424456D01*
X151858Y424841D01*
X151909Y425225D01*
X151970Y425607D01*
X152041Y425988D01*
X152120Y426367D01*
X152209Y426744D01*
X152307Y427119D01*
X152414Y427491D01*
X152530Y427860D01*
X152655Y428227D01*
X152789Y428590D01*
X152932Y428950D01*
X153083Y429306D01*
X153243Y429659D01*
X153412Y430007D01*
X153589Y430352D01*
X153774Y430692D01*
X153968Y431027D01*
X154170Y431358D01*
X154379Y431683D01*
X154597Y432003D01*
X154822Y432318D01*
X155055Y432628D01*
X155296Y432931D01*
X155543Y433229D01*
X155798Y433520D01*
X156060Y433806D01*
X156329Y434084D01*
X156604Y434356D01*
X156886Y434622D01*
X157175Y434880D01*
X157469Y435131D01*
X157770Y435376D01*
X158076Y435612D01*
X158388Y435841D01*
X158706Y436063D01*
X159029Y436276D01*
X159357Y436482D01*
X159690Y436680D01*
X160028Y436869D01*
X160370Y437051D01*
X160716Y437223D01*
X161067Y437388D01*
X161421Y437544D01*
X161780Y437691D01*
X162141Y437829D01*
X162506Y437958D01*
X162874Y438079D01*
X163245Y438190D01*
X163618Y438293D01*
X163994Y438386D01*
X164372Y438471D01*
X164752Y438546D01*
X165134Y438611D01*
X165517Y438668D01*
X165901Y438715D01*
X166286Y438752D01*
X166673Y438781D01*
X167059Y438799D01*
X167446Y438809D01*
X167834Y438809D01*
X168221Y438799D01*
X168607Y438781D01*
X168994Y438752D01*
X169379Y438715D01*
X169763Y438668D01*
X170146Y438611D01*
X170528Y438546D01*
X170908Y438471D01*
X171286Y438386D01*
X171662Y438293D01*
X172035Y438190D01*
X172406Y438079D01*
X172774Y437958D01*
X173139Y437829D01*
X173500Y437691D01*
X173859Y437544D01*
X174213Y437388D01*
X174564Y437223D01*
X174910Y437051D01*
X175252Y436869D01*
X175590Y436680D01*
X175923Y436482D01*
X176251Y436276D01*
X176574Y436063D01*
X176892Y435841D01*
X177204Y435612D01*
X177510Y435376D01*
X177811Y435131D01*
X178105Y434880D01*
X178394Y434622D01*
X178676Y434356D01*
X178951Y434084D01*
X179220Y433806D01*
X179482Y433520D01*
X179737Y433229D01*
X179984Y432931D01*
X180225Y432628D01*
X180458Y432318D01*
X180683Y432003D01*
X180901Y431683D01*
X181110Y431358D01*
X181312Y431027D01*
X181506Y430692D01*
X181691Y430352D01*
X181868Y430007D01*
X182037Y429659D01*
X182197Y429306D01*
X182348Y428950D01*
X182491Y428590D01*
X182625Y428227D01*
X182750Y427860D01*
X182866Y427491D01*
X182973Y427119D01*
X183071Y426744D01*
X183160Y426367D01*
X183239Y425988D01*
X183310Y425607D01*
X183371Y425225D01*
X183422Y424841D01*
X183465Y424456D01*
X183498Y424071D01*
X183521Y423684D01*
X183535Y423297D01*
X183540Y422910D01*
D14*
X167640Y401910D02*
X167684Y401908D01*
X167727Y401902D01*
X167769Y401893D01*
X167811Y401880D01*
X167851Y401863D01*
X167890Y401843D01*
X167927Y401820D01*
X167961Y401793D01*
X167994Y401764D01*
X168023Y401731D01*
X168050Y401697D01*
X168073Y401660D01*
X168093Y401621D01*
X168110Y401581D01*
X168123Y401539D01*
X168132Y401497D01*
X168138Y401454D01*
X168140Y401410D01*
X168138Y401366D01*
X168132Y401323D01*
X168123Y401281D01*
X168110Y401239D01*
X168093Y401199D01*
X168073Y401160D01*
X168050Y401123D01*
X168023Y401089D01*
X167994Y401056D01*
X167961Y401027D01*
X167927Y401000D01*
X167890Y400977D01*
X167851Y400957D01*
X167811Y400940D01*
X167769Y400927D01*
X167727Y400918D01*
X167684Y400912D01*
X167640Y400910D01*
X167596Y400912D01*
X167553Y400918D01*
X167511Y400927D01*
X167469Y400940D01*
X167429Y400957D01*
X167390Y400977D01*
X167353Y401000D01*
X167319Y401027D01*
X167286Y401056D01*
X167257Y401089D01*
X167230Y401123D01*
X167207Y401160D01*
X167187Y401199D01*
X167170Y401239D01*
X167157Y401281D01*
X167148Y401323D01*
X167142Y401366D01*
X167140Y401410D01*
X167142Y401454D01*
X167148Y401497D01*
X167157Y401539D01*
X167170Y401581D01*
X167187Y401621D01*
X167207Y401660D01*
X167230Y401697D01*
X167257Y401731D01*
X167286Y401764D01*
X167319Y401793D01*
X167353Y401820D01*
X167390Y401843D01*
X167429Y401863D01*
X167469Y401880D01*
X167511Y401893D01*
X167553Y401902D01*
X167596Y401908D01*
X167640Y401910D01*
D10*
X155550Y331470D02*
X155555Y331083D01*
X155569Y330696D01*
X155592Y330309D01*
X155625Y329924D01*
X155668Y329539D01*
X155719Y329155D01*
X155780Y328773D01*
X155851Y328392D01*
X155930Y328013D01*
X156019Y327636D01*
X156117Y327261D01*
X156224Y326889D01*
X156340Y326520D01*
X156465Y326153D01*
X156599Y325790D01*
X156742Y325430D01*
X156893Y325074D01*
X157053Y324721D01*
X157222Y324373D01*
X157399Y324028D01*
X157584Y323688D01*
X157778Y323353D01*
X157980Y323022D01*
X158189Y322697D01*
X158407Y322377D01*
X158632Y322062D01*
X158865Y321752D01*
X159106Y321449D01*
X159353Y321151D01*
X159608Y320860D01*
X159870Y320574D01*
X160139Y320296D01*
X160414Y320024D01*
X160696Y319758D01*
X160985Y319500D01*
X161279Y319249D01*
X161580Y319004D01*
X161886Y318768D01*
X162198Y318539D01*
X162516Y318317D01*
X162839Y318104D01*
X163167Y317898D01*
X163500Y317700D01*
X163838Y317511D01*
X164180Y317329D01*
X164526Y317157D01*
X164877Y316992D01*
X165231Y316836D01*
X165590Y316689D01*
X165951Y316551D01*
X166316Y316422D01*
X166684Y316301D01*
X167055Y316190D01*
X167428Y316087D01*
X167804Y315994D01*
X168182Y315909D01*
X168562Y315834D01*
X168944Y315769D01*
X169327Y315712D01*
X169711Y315665D01*
X170096Y315628D01*
X170483Y315599D01*
X170869Y315581D01*
X171256Y315571D01*
X171644Y315571D01*
X172031Y315581D01*
X172417Y315599D01*
X172804Y315628D01*
X173189Y315665D01*
X173573Y315712D01*
X173956Y315769D01*
X174338Y315834D01*
X174718Y315909D01*
X175096Y315994D01*
X175472Y316087D01*
X175845Y316190D01*
X176216Y316301D01*
X176584Y316422D01*
X176949Y316551D01*
X177310Y316689D01*
X177669Y316836D01*
X178023Y316992D01*
X178374Y317157D01*
X178720Y317329D01*
X179062Y317511D01*
X179400Y317700D01*
X179733Y317898D01*
X180061Y318104D01*
X180384Y318317D01*
X180702Y318539D01*
X181014Y318768D01*
X181320Y319004D01*
X181621Y319249D01*
X181915Y319500D01*
X182204Y319758D01*
X182486Y320024D01*
X182761Y320296D01*
X183030Y320574D01*
X183292Y320860D01*
X183547Y321151D01*
X183794Y321449D01*
X184035Y321752D01*
X184268Y322062D01*
X184493Y322377D01*
X184711Y322697D01*
X184920Y323022D01*
X185122Y323353D01*
X185316Y323688D01*
X185501Y324028D01*
X185678Y324373D01*
X185847Y324721D01*
X186007Y325074D01*
X186158Y325430D01*
X186301Y325790D01*
X186435Y326153D01*
X186560Y326520D01*
X186676Y326889D01*
X186783Y327261D01*
X186881Y327636D01*
X186970Y328013D01*
X187049Y328392D01*
X187120Y328773D01*
X187181Y329155D01*
X187232Y329539D01*
X187275Y329924D01*
X187308Y330309D01*
X187331Y330696D01*
X187345Y331083D01*
X187350Y331470D01*
X187345Y331857D01*
X187331Y332244D01*
X187308Y332631D01*
X187275Y333016D01*
X187232Y333401D01*
X187181Y333785D01*
X187120Y334167D01*
X187049Y334548D01*
X186970Y334927D01*
X186881Y335304D01*
X186783Y335679D01*
X186676Y336051D01*
X186560Y336420D01*
X186435Y336787D01*
X186301Y337150D01*
X186158Y337510D01*
X186007Y337866D01*
X185847Y338219D01*
X185678Y338567D01*
X185501Y338912D01*
X185316Y339252D01*
X185122Y339587D01*
X184920Y339918D01*
X184711Y340243D01*
X184493Y340563D01*
X184268Y340878D01*
X184035Y341188D01*
X183794Y341491D01*
X183547Y341789D01*
X183292Y342080D01*
X183030Y342366D01*
X182761Y342644D01*
X182486Y342916D01*
X182204Y343182D01*
X181915Y343440D01*
X181621Y343691D01*
X181320Y343936D01*
X181014Y344172D01*
X180702Y344401D01*
X180384Y344623D01*
X180061Y344836D01*
X179733Y345042D01*
X179400Y345240D01*
X179062Y345429D01*
X178720Y345611D01*
X178374Y345783D01*
X178023Y345948D01*
X177669Y346104D01*
X177310Y346251D01*
X176949Y346389D01*
X176584Y346518D01*
X176216Y346639D01*
X175845Y346750D01*
X175472Y346853D01*
X175096Y346946D01*
X174718Y347031D01*
X174338Y347106D01*
X173956Y347171D01*
X173573Y347228D01*
X173189Y347275D01*
X172804Y347312D01*
X172417Y347341D01*
X172031Y347359D01*
X171644Y347369D01*
X171256Y347369D01*
X170869Y347359D01*
X170483Y347341D01*
X170096Y347312D01*
X169711Y347275D01*
X169327Y347228D01*
X168944Y347171D01*
X168562Y347106D01*
X168182Y347031D01*
X167804Y346946D01*
X167428Y346853D01*
X167055Y346750D01*
X166684Y346639D01*
X166316Y346518D01*
X165951Y346389D01*
X165590Y346251D01*
X165231Y346104D01*
X164877Y345948D01*
X164526Y345783D01*
X164180Y345611D01*
X163838Y345429D01*
X163500Y345240D01*
X163167Y345042D01*
X162839Y344836D01*
X162516Y344623D01*
X162198Y344401D01*
X161886Y344172D01*
X161580Y343936D01*
X161279Y343691D01*
X160985Y343440D01*
X160696Y343182D01*
X160414Y342916D01*
X160139Y342644D01*
X159870Y342366D01*
X159608Y342080D01*
X159353Y341789D01*
X159106Y341491D01*
X158865Y341188D01*
X158632Y340878D01*
X158407Y340563D01*
X158189Y340243D01*
X157980Y339918D01*
X157778Y339587D01*
X157584Y339252D01*
X157399Y338912D01*
X157222Y338567D01*
X157053Y338219D01*
X156893Y337866D01*
X156742Y337510D01*
X156599Y337150D01*
X156465Y336787D01*
X156340Y336420D01*
X156224Y336051D01*
X156117Y335679D01*
X156019Y335304D01*
X155930Y334927D01*
X155851Y334548D01*
X155780Y334167D01*
X155719Y333785D01*
X155668Y333401D01*
X155625Y333016D01*
X155592Y332631D01*
X155569Y332244D01*
X155555Y331857D01*
X155550Y331470D01*
D14*
X171450Y310470D02*
X171494Y310468D01*
X171537Y310462D01*
X171579Y310453D01*
X171621Y310440D01*
X171661Y310423D01*
X171700Y310403D01*
X171737Y310380D01*
X171771Y310353D01*
X171804Y310324D01*
X171833Y310291D01*
X171860Y310257D01*
X171883Y310220D01*
X171903Y310181D01*
X171920Y310141D01*
X171933Y310099D01*
X171942Y310057D01*
X171948Y310014D01*
X171950Y309970D01*
X171948Y309926D01*
X171942Y309883D01*
X171933Y309841D01*
X171920Y309799D01*
X171903Y309759D01*
X171883Y309720D01*
X171860Y309683D01*
X171833Y309649D01*
X171804Y309616D01*
X171771Y309587D01*
X171737Y309560D01*
X171700Y309537D01*
X171661Y309517D01*
X171621Y309500D01*
X171579Y309487D01*
X171537Y309478D01*
X171494Y309472D01*
X171450Y309470D01*
X171406Y309472D01*
X171363Y309478D01*
X171321Y309487D01*
X171279Y309500D01*
X171239Y309517D01*
X171200Y309537D01*
X171163Y309560D01*
X171129Y309587D01*
X171096Y309616D01*
X171067Y309649D01*
X171040Y309683D01*
X171017Y309720D01*
X170997Y309759D01*
X170980Y309799D01*
X170967Y309841D01*
X170958Y309883D01*
X170952Y309926D01*
X170950Y309970D01*
X170952Y310014D01*
X170958Y310057D01*
X170967Y310099D01*
X170980Y310141D01*
X170997Y310181D01*
X171017Y310220D01*
X171040Y310257D01*
X171067Y310291D01*
X171096Y310324D01*
X171129Y310353D01*
X171163Y310380D01*
X171200Y310403D01*
X171239Y310423D01*
X171279Y310440D01*
X171321Y310453D01*
X171363Y310462D01*
X171406Y310468D01*
X171450Y310470D01*
D10*
X124396Y336981D02*
X124391Y336594D01*
X124377Y336207D01*
X124354Y335820D01*
X124321Y335435D01*
X124278Y335050D01*
X124227Y334666D01*
X124166Y334284D01*
X124095Y333903D01*
X124016Y333524D01*
X123927Y333147D01*
X123829Y332772D01*
X123722Y332400D01*
X123606Y332031D01*
X123481Y331664D01*
X123347Y331301D01*
X123204Y330941D01*
X123053Y330585D01*
X122893Y330232D01*
X122724Y329884D01*
X122547Y329539D01*
X122362Y329199D01*
X122168Y328864D01*
X121966Y328533D01*
X121757Y328208D01*
X121539Y327888D01*
X121314Y327573D01*
X121081Y327263D01*
X120840Y326960D01*
X120593Y326662D01*
X120338Y326371D01*
X120076Y326085D01*
X119807Y325807D01*
X119532Y325535D01*
X119250Y325269D01*
X118961Y325011D01*
X118667Y324760D01*
X118366Y324515D01*
X118060Y324279D01*
X117748Y324050D01*
X117430Y323828D01*
X117107Y323615D01*
X116779Y323409D01*
X116446Y323211D01*
X116108Y323022D01*
X115766Y322840D01*
X115420Y322668D01*
X115069Y322503D01*
X114715Y322347D01*
X114356Y322200D01*
X113995Y322062D01*
X113630Y321933D01*
X113262Y321812D01*
X112891Y321701D01*
X112518Y321598D01*
X112142Y321505D01*
X111764Y321420D01*
X111384Y321345D01*
X111002Y321280D01*
X110619Y321223D01*
X110235Y321176D01*
X109850Y321139D01*
X109463Y321110D01*
X109077Y321092D01*
X108690Y321082D01*
X108302Y321082D01*
X107915Y321092D01*
X107529Y321110D01*
X107142Y321139D01*
X106757Y321176D01*
X106373Y321223D01*
X105990Y321280D01*
X105608Y321345D01*
X105228Y321420D01*
X104850Y321505D01*
X104474Y321598D01*
X104101Y321701D01*
X103730Y321812D01*
X103362Y321933D01*
X102997Y322062D01*
X102636Y322200D01*
X102277Y322347D01*
X101923Y322503D01*
X101572Y322668D01*
X101226Y322840D01*
X100884Y323022D01*
X100546Y323211D01*
X100213Y323409D01*
X99885Y323615D01*
X99562Y323828D01*
X99244Y324050D01*
X98932Y324279D01*
X98626Y324515D01*
X98325Y324760D01*
X98031Y325011D01*
X97742Y325269D01*
X97460Y325535D01*
X97185Y325807D01*
X96916Y326085D01*
X96654Y326371D01*
X96399Y326662D01*
X96152Y326960D01*
X95911Y327263D01*
X95678Y327573D01*
X95453Y327888D01*
X95235Y328208D01*
X95026Y328533D01*
X94824Y328864D01*
X94630Y329199D01*
X94445Y329539D01*
X94268Y329884D01*
X94099Y330232D01*
X93939Y330585D01*
X93788Y330941D01*
X93645Y331301D01*
X93511Y331664D01*
X93386Y332031D01*
X93270Y332400D01*
X93163Y332772D01*
X93065Y333147D01*
X92976Y333524D01*
X92897Y333903D01*
X92826Y334284D01*
X92765Y334666D01*
X92714Y335050D01*
X92671Y335435D01*
X92638Y335820D01*
X92615Y336207D01*
X92601Y336594D01*
X92596Y336981D01*
X92601Y337368D01*
X92615Y337755D01*
X92638Y338142D01*
X92671Y338527D01*
X92714Y338912D01*
X92765Y339296D01*
X92826Y339678D01*
X92897Y340059D01*
X92976Y340438D01*
X93065Y340815D01*
X93163Y341190D01*
X93270Y341562D01*
X93386Y341931D01*
X93511Y342298D01*
X93645Y342661D01*
X93788Y343021D01*
X93939Y343377D01*
X94099Y343730D01*
X94268Y344078D01*
X94445Y344423D01*
X94630Y344763D01*
X94824Y345098D01*
X95026Y345429D01*
X95235Y345754D01*
X95453Y346074D01*
X95678Y346389D01*
X95911Y346699D01*
X96152Y347002D01*
X96399Y347300D01*
X96654Y347591D01*
X96916Y347877D01*
X97185Y348155D01*
X97460Y348427D01*
X97742Y348693D01*
X98031Y348951D01*
X98325Y349202D01*
X98626Y349447D01*
X98932Y349683D01*
X99244Y349912D01*
X99562Y350134D01*
X99885Y350347D01*
X100213Y350553D01*
X100546Y350751D01*
X100884Y350940D01*
X101226Y351122D01*
X101572Y351294D01*
X101923Y351459D01*
X102277Y351615D01*
X102636Y351762D01*
X102997Y351900D01*
X103362Y352029D01*
X103730Y352150D01*
X104101Y352261D01*
X104474Y352364D01*
X104850Y352457D01*
X105228Y352542D01*
X105608Y352617D01*
X105990Y352682D01*
X106373Y352739D01*
X106757Y352786D01*
X107142Y352823D01*
X107529Y352852D01*
X107915Y352870D01*
X108302Y352880D01*
X108690Y352880D01*
X109077Y352870D01*
X109463Y352852D01*
X109850Y352823D01*
X110235Y352786D01*
X110619Y352739D01*
X111002Y352682D01*
X111384Y352617D01*
X111764Y352542D01*
X112142Y352457D01*
X112518Y352364D01*
X112891Y352261D01*
X113262Y352150D01*
X113630Y352029D01*
X113995Y351900D01*
X114356Y351762D01*
X114715Y351615D01*
X115069Y351459D01*
X115420Y351294D01*
X115766Y351122D01*
X116108Y350940D01*
X116446Y350751D01*
X116779Y350553D01*
X117107Y350347D01*
X117430Y350134D01*
X117748Y349912D01*
X118060Y349683D01*
X118366Y349447D01*
X118667Y349202D01*
X118961Y348951D01*
X119250Y348693D01*
X119532Y348427D01*
X119807Y348155D01*
X120076Y347877D01*
X120338Y347591D01*
X120593Y347300D01*
X120840Y347002D01*
X121081Y346699D01*
X121314Y346389D01*
X121539Y346074D01*
X121757Y345754D01*
X121966Y345429D01*
X122168Y345098D01*
X122362Y344763D01*
X122547Y344423D01*
X122724Y344078D01*
X122893Y343730D01*
X123053Y343377D01*
X123204Y343021D01*
X123347Y342661D01*
X123481Y342298D01*
X123606Y341931D01*
X123722Y341562D01*
X123829Y341190D01*
X123927Y340815D01*
X124016Y340438D01*
X124095Y340059D01*
X124166Y339678D01*
X124227Y339296D01*
X124278Y338912D01*
X124321Y338527D01*
X124354Y338142D01*
X124377Y337755D01*
X124391Y337368D01*
X124396Y336981D01*
D14*
X108496Y315981D02*
X108540Y315979D01*
X108583Y315973D01*
X108625Y315964D01*
X108667Y315951D01*
X108707Y315934D01*
X108746Y315914D01*
X108783Y315891D01*
X108817Y315864D01*
X108850Y315835D01*
X108879Y315802D01*
X108906Y315768D01*
X108929Y315731D01*
X108949Y315692D01*
X108966Y315652D01*
X108979Y315610D01*
X108988Y315568D01*
X108994Y315525D01*
X108996Y315481D01*
X108994Y315437D01*
X108988Y315394D01*
X108979Y315352D01*
X108966Y315310D01*
X108949Y315270D01*
X108929Y315231D01*
X108906Y315194D01*
X108879Y315160D01*
X108850Y315127D01*
X108817Y315098D01*
X108783Y315071D01*
X108746Y315048D01*
X108707Y315028D01*
X108667Y315011D01*
X108625Y314998D01*
X108583Y314989D01*
X108540Y314983D01*
X108496Y314981D01*
X108452Y314983D01*
X108409Y314989D01*
X108367Y314998D01*
X108325Y315011D01*
X108285Y315028D01*
X108246Y315048D01*
X108209Y315071D01*
X108175Y315098D01*
X108142Y315127D01*
X108113Y315160D01*
X108086Y315194D01*
X108063Y315231D01*
X108043Y315270D01*
X108026Y315310D01*
X108013Y315352D01*
X108004Y315394D01*
X107998Y315437D01*
X107996Y315481D01*
X107998Y315525D01*
X108004Y315568D01*
X108013Y315610D01*
X108026Y315652D01*
X108043Y315692D01*
X108063Y315731D01*
X108086Y315768D01*
X108113Y315802D01*
X108142Y315835D01*
X108175Y315864D01*
X108209Y315891D01*
X108246Y315914D01*
X108285Y315934D01*
X108325Y315951D01*
X108367Y315964D01*
X108409Y315973D01*
X108452Y315979D01*
X108496Y315981D01*
D10*
X471780Y270510D02*
X471785Y270123D01*
X471799Y269736D01*
X471822Y269349D01*
X471855Y268964D01*
X471898Y268579D01*
X471949Y268195D01*
X472010Y267813D01*
X472081Y267432D01*
X472160Y267053D01*
X472249Y266676D01*
X472347Y266301D01*
X472454Y265929D01*
X472570Y265560D01*
X472695Y265193D01*
X472829Y264830D01*
X472972Y264470D01*
X473123Y264114D01*
X473283Y263761D01*
X473452Y263413D01*
X473629Y263068D01*
X473814Y262728D01*
X474008Y262393D01*
X474210Y262062D01*
X474419Y261737D01*
X474637Y261417D01*
X474862Y261102D01*
X475095Y260792D01*
X475336Y260489D01*
X475583Y260191D01*
X475838Y259900D01*
X476100Y259614D01*
X476369Y259336D01*
X476644Y259064D01*
X476926Y258798D01*
X477215Y258540D01*
X477509Y258289D01*
X477810Y258044D01*
X478116Y257808D01*
X478428Y257579D01*
X478746Y257357D01*
X479069Y257144D01*
X479397Y256938D01*
X479730Y256740D01*
X480068Y256551D01*
X480410Y256369D01*
X480756Y256197D01*
X481107Y256032D01*
X481461Y255876D01*
X481820Y255729D01*
X482181Y255591D01*
X482546Y255462D01*
X482914Y255341D01*
X483285Y255230D01*
X483658Y255127D01*
X484034Y255034D01*
X484412Y254949D01*
X484792Y254874D01*
X485174Y254809D01*
X485557Y254752D01*
X485941Y254705D01*
X486326Y254668D01*
X486713Y254639D01*
X487099Y254621D01*
X487486Y254611D01*
X487874Y254611D01*
X488261Y254621D01*
X488647Y254639D01*
X489034Y254668D01*
X489419Y254705D01*
X489803Y254752D01*
X490186Y254809D01*
X490568Y254874D01*
X490948Y254949D01*
X491326Y255034D01*
X491702Y255127D01*
X492075Y255230D01*
X492446Y255341D01*
X492814Y255462D01*
X493179Y255591D01*
X493540Y255729D01*
X493899Y255876D01*
X494253Y256032D01*
X494604Y256197D01*
X494950Y256369D01*
X495292Y256551D01*
X495630Y256740D01*
X495963Y256938D01*
X496291Y257144D01*
X496614Y257357D01*
X496932Y257579D01*
X497244Y257808D01*
X497550Y258044D01*
X497851Y258289D01*
X498145Y258540D01*
X498434Y258798D01*
X498716Y259064D01*
X498991Y259336D01*
X499260Y259614D01*
X499522Y259900D01*
X499777Y260191D01*
X500024Y260489D01*
X500265Y260792D01*
X500498Y261102D01*
X500723Y261417D01*
X500941Y261737D01*
X501150Y262062D01*
X501352Y262393D01*
X501546Y262728D01*
X501731Y263068D01*
X501908Y263413D01*
X502077Y263761D01*
X502237Y264114D01*
X502388Y264470D01*
X502531Y264830D01*
X502665Y265193D01*
X502790Y265560D01*
X502906Y265929D01*
X503013Y266301D01*
X503111Y266676D01*
X503200Y267053D01*
X503279Y267432D01*
X503350Y267813D01*
X503411Y268195D01*
X503462Y268579D01*
X503505Y268964D01*
X503538Y269349D01*
X503561Y269736D01*
X503575Y270123D01*
X503580Y270510D01*
X503575Y270897D01*
X503561Y271284D01*
X503538Y271671D01*
X503505Y272056D01*
X503462Y272441D01*
X503411Y272825D01*
X503350Y273207D01*
X503279Y273588D01*
X503200Y273967D01*
X503111Y274344D01*
X503013Y274719D01*
X502906Y275091D01*
X502790Y275460D01*
X502665Y275827D01*
X502531Y276190D01*
X502388Y276550D01*
X502237Y276906D01*
X502077Y277259D01*
X501908Y277607D01*
X501731Y277952D01*
X501546Y278292D01*
X501352Y278627D01*
X501150Y278958D01*
X500941Y279283D01*
X500723Y279603D01*
X500498Y279918D01*
X500265Y280228D01*
X500024Y280531D01*
X499777Y280829D01*
X499522Y281120D01*
X499260Y281406D01*
X498991Y281684D01*
X498716Y281956D01*
X498434Y282222D01*
X498145Y282480D01*
X497851Y282731D01*
X497550Y282976D01*
X497244Y283212D01*
X496932Y283441D01*
X496614Y283663D01*
X496291Y283876D01*
X495963Y284082D01*
X495630Y284280D01*
X495292Y284469D01*
X494950Y284651D01*
X494604Y284823D01*
X494253Y284988D01*
X493899Y285144D01*
X493540Y285291D01*
X493179Y285429D01*
X492814Y285558D01*
X492446Y285679D01*
X492075Y285790D01*
X491702Y285893D01*
X491326Y285986D01*
X490948Y286071D01*
X490568Y286146D01*
X490186Y286211D01*
X489803Y286268D01*
X489419Y286315D01*
X489034Y286352D01*
X488647Y286381D01*
X488261Y286399D01*
X487874Y286409D01*
X487486Y286409D01*
X487099Y286399D01*
X486713Y286381D01*
X486326Y286352D01*
X485941Y286315D01*
X485557Y286268D01*
X485174Y286211D01*
X484792Y286146D01*
X484412Y286071D01*
X484034Y285986D01*
X483658Y285893D01*
X483285Y285790D01*
X482914Y285679D01*
X482546Y285558D01*
X482181Y285429D01*
X481820Y285291D01*
X481461Y285144D01*
X481107Y284988D01*
X480756Y284823D01*
X480410Y284651D01*
X480068Y284469D01*
X479730Y284280D01*
X479397Y284082D01*
X479069Y283876D01*
X478746Y283663D01*
X478428Y283441D01*
X478116Y283212D01*
X477810Y282976D01*
X477509Y282731D01*
X477215Y282480D01*
X476926Y282222D01*
X476644Y281956D01*
X476369Y281684D01*
X476100Y281406D01*
X475838Y281120D01*
X475583Y280829D01*
X475336Y280531D01*
X475095Y280228D01*
X474862Y279918D01*
X474637Y279603D01*
X474419Y279283D01*
X474210Y278958D01*
X474008Y278627D01*
X473814Y278292D01*
X473629Y277952D01*
X473452Y277607D01*
X473283Y277259D01*
X473123Y276906D01*
X472972Y276550D01*
X472829Y276190D01*
X472695Y275827D01*
X472570Y275460D01*
X472454Y275091D01*
X472347Y274719D01*
X472249Y274344D01*
X472160Y273967D01*
X472081Y273588D01*
X472010Y273207D01*
X471949Y272825D01*
X471898Y272441D01*
X471855Y272056D01*
X471822Y271671D01*
X471799Y271284D01*
X471785Y270897D01*
X471780Y270510D01*
D14*
X487680Y249510D02*
X487724Y249508D01*
X487767Y249502D01*
X487809Y249493D01*
X487851Y249480D01*
X487891Y249463D01*
X487930Y249443D01*
X487967Y249420D01*
X488001Y249393D01*
X488034Y249364D01*
X488063Y249331D01*
X488090Y249297D01*
X488113Y249260D01*
X488133Y249221D01*
X488150Y249181D01*
X488163Y249139D01*
X488172Y249097D01*
X488178Y249054D01*
X488180Y249010D01*
X488178Y248966D01*
X488172Y248923D01*
X488163Y248881D01*
X488150Y248839D01*
X488133Y248799D01*
X488113Y248760D01*
X488090Y248723D01*
X488063Y248689D01*
X488034Y248656D01*
X488001Y248627D01*
X487967Y248600D01*
X487930Y248577D01*
X487891Y248557D01*
X487851Y248540D01*
X487809Y248527D01*
X487767Y248518D01*
X487724Y248512D01*
X487680Y248510D01*
X487636Y248512D01*
X487593Y248518D01*
X487551Y248527D01*
X487509Y248540D01*
X487469Y248557D01*
X487430Y248577D01*
X487393Y248600D01*
X487359Y248627D01*
X487326Y248656D01*
X487297Y248689D01*
X487270Y248723D01*
X487247Y248760D01*
X487227Y248799D01*
X487210Y248839D01*
X487197Y248881D01*
X487188Y248923D01*
X487182Y248966D01*
X487180Y249010D01*
X487182Y249054D01*
X487188Y249097D01*
X487197Y249139D01*
X487210Y249181D01*
X487227Y249221D01*
X487247Y249260D01*
X487270Y249297D01*
X487297Y249331D01*
X487326Y249364D01*
X487359Y249393D01*
X487393Y249420D01*
X487430Y249443D01*
X487469Y249463D01*
X487509Y249480D01*
X487551Y249493D01*
X487593Y249502D01*
X487636Y249508D01*
X487680Y249510D01*
D10*
X447700Y354313D02*
X447695Y353926D01*
X447681Y353539D01*
X447658Y353152D01*
X447625Y352767D01*
X447582Y352382D01*
X447531Y351998D01*
X447470Y351616D01*
X447399Y351235D01*
X447320Y350856D01*
X447231Y350479D01*
X447133Y350104D01*
X447026Y349732D01*
X446910Y349363D01*
X446785Y348996D01*
X446651Y348633D01*
X446508Y348273D01*
X446357Y347917D01*
X446197Y347564D01*
X446028Y347216D01*
X445851Y346871D01*
X445666Y346531D01*
X445472Y346196D01*
X445270Y345865D01*
X445061Y345540D01*
X444843Y345220D01*
X444618Y344905D01*
X444385Y344595D01*
X444144Y344292D01*
X443897Y343994D01*
X443642Y343703D01*
X443380Y343417D01*
X443111Y343139D01*
X442836Y342867D01*
X442554Y342601D01*
X442265Y342343D01*
X441971Y342092D01*
X441670Y341847D01*
X441364Y341611D01*
X441052Y341382D01*
X440734Y341160D01*
X440411Y340947D01*
X440083Y340741D01*
X439750Y340543D01*
X439412Y340354D01*
X439070Y340172D01*
X438724Y340000D01*
X438373Y339835D01*
X438019Y339679D01*
X437660Y339532D01*
X437299Y339394D01*
X436934Y339265D01*
X436566Y339144D01*
X436195Y339033D01*
X435822Y338930D01*
X435446Y338837D01*
X435068Y338752D01*
X434688Y338677D01*
X434306Y338612D01*
X433923Y338555D01*
X433539Y338508D01*
X433154Y338471D01*
X432767Y338442D01*
X432381Y338424D01*
X431994Y338414D01*
X431606Y338414D01*
X431219Y338424D01*
X430833Y338442D01*
X430446Y338471D01*
X430061Y338508D01*
X429677Y338555D01*
X429294Y338612D01*
X428912Y338677D01*
X428532Y338752D01*
X428154Y338837D01*
X427778Y338930D01*
X427405Y339033D01*
X427034Y339144D01*
X426666Y339265D01*
X426301Y339394D01*
X425940Y339532D01*
X425581Y339679D01*
X425227Y339835D01*
X424876Y340000D01*
X424530Y340172D01*
X424188Y340354D01*
X423850Y340543D01*
X423517Y340741D01*
X423189Y340947D01*
X422866Y341160D01*
X422548Y341382D01*
X422236Y341611D01*
X421930Y341847D01*
X421629Y342092D01*
X421335Y342343D01*
X421046Y342601D01*
X420764Y342867D01*
X420489Y343139D01*
X420220Y343417D01*
X419958Y343703D01*
X419703Y343994D01*
X419456Y344292D01*
X419215Y344595D01*
X418982Y344905D01*
X418757Y345220D01*
X418539Y345540D01*
X418330Y345865D01*
X418128Y346196D01*
X417934Y346531D01*
X417749Y346871D01*
X417572Y347216D01*
X417403Y347564D01*
X417243Y347917D01*
X417092Y348273D01*
X416949Y348633D01*
X416815Y348996D01*
X416690Y349363D01*
X416574Y349732D01*
X416467Y350104D01*
X416369Y350479D01*
X416280Y350856D01*
X416201Y351235D01*
X416130Y351616D01*
X416069Y351998D01*
X416018Y352382D01*
X415975Y352767D01*
X415942Y353152D01*
X415919Y353539D01*
X415905Y353926D01*
X415900Y354313D01*
X415905Y354700D01*
X415919Y355087D01*
X415942Y355474D01*
X415975Y355859D01*
X416018Y356244D01*
X416069Y356628D01*
X416130Y357010D01*
X416201Y357391D01*
X416280Y357770D01*
X416369Y358147D01*
X416467Y358522D01*
X416574Y358894D01*
X416690Y359263D01*
X416815Y359630D01*
X416949Y359993D01*
X417092Y360353D01*
X417243Y360709D01*
X417403Y361062D01*
X417572Y361410D01*
X417749Y361755D01*
X417934Y362095D01*
X418128Y362430D01*
X418330Y362761D01*
X418539Y363086D01*
X418757Y363406D01*
X418982Y363721D01*
X419215Y364031D01*
X419456Y364334D01*
X419703Y364632D01*
X419958Y364923D01*
X420220Y365209D01*
X420489Y365487D01*
X420764Y365759D01*
X421046Y366025D01*
X421335Y366283D01*
X421629Y366534D01*
X421930Y366779D01*
X422236Y367015D01*
X422548Y367244D01*
X422866Y367466D01*
X423189Y367679D01*
X423517Y367885D01*
X423850Y368083D01*
X424188Y368272D01*
X424530Y368454D01*
X424876Y368626D01*
X425227Y368791D01*
X425581Y368947D01*
X425940Y369094D01*
X426301Y369232D01*
X426666Y369361D01*
X427034Y369482D01*
X427405Y369593D01*
X427778Y369696D01*
X428154Y369789D01*
X428532Y369874D01*
X428912Y369949D01*
X429294Y370014D01*
X429677Y370071D01*
X430061Y370118D01*
X430446Y370155D01*
X430833Y370184D01*
X431219Y370202D01*
X431606Y370212D01*
X431994Y370212D01*
X432381Y370202D01*
X432767Y370184D01*
X433154Y370155D01*
X433539Y370118D01*
X433923Y370071D01*
X434306Y370014D01*
X434688Y369949D01*
X435068Y369874D01*
X435446Y369789D01*
X435822Y369696D01*
X436195Y369593D01*
X436566Y369482D01*
X436934Y369361D01*
X437299Y369232D01*
X437660Y369094D01*
X438019Y368947D01*
X438373Y368791D01*
X438724Y368626D01*
X439070Y368454D01*
X439412Y368272D01*
X439750Y368083D01*
X440083Y367885D01*
X440411Y367679D01*
X440734Y367466D01*
X441052Y367244D01*
X441364Y367015D01*
X441670Y366779D01*
X441971Y366534D01*
X442265Y366283D01*
X442554Y366025D01*
X442836Y365759D01*
X443111Y365487D01*
X443380Y365209D01*
X443642Y364923D01*
X443897Y364632D01*
X444144Y364334D01*
X444385Y364031D01*
X444618Y363721D01*
X444843Y363406D01*
X445061Y363086D01*
X445270Y362761D01*
X445472Y362430D01*
X445666Y362095D01*
X445851Y361755D01*
X446028Y361410D01*
X446197Y361062D01*
X446357Y360709D01*
X446508Y360353D01*
X446651Y359993D01*
X446785Y359630D01*
X446910Y359263D01*
X447026Y358894D01*
X447133Y358522D01*
X447231Y358147D01*
X447320Y357770D01*
X447399Y357391D01*
X447470Y357010D01*
X447531Y356628D01*
X447582Y356244D01*
X447625Y355859D01*
X447658Y355474D01*
X447681Y355087D01*
X447695Y354700D01*
X447700Y354313D01*
D14*
X431800Y333313D02*
X431844Y333311D01*
X431887Y333305D01*
X431929Y333296D01*
X431971Y333283D01*
X432011Y333266D01*
X432050Y333246D01*
X432087Y333223D01*
X432121Y333196D01*
X432154Y333167D01*
X432183Y333134D01*
X432210Y333100D01*
X432233Y333063D01*
X432253Y333024D01*
X432270Y332984D01*
X432283Y332942D01*
X432292Y332900D01*
X432298Y332857D01*
X432300Y332813D01*
X432298Y332769D01*
X432292Y332726D01*
X432283Y332684D01*
X432270Y332642D01*
X432253Y332602D01*
X432233Y332563D01*
X432210Y332526D01*
X432183Y332492D01*
X432154Y332459D01*
X432121Y332430D01*
X432087Y332403D01*
X432050Y332380D01*
X432011Y332360D01*
X431971Y332343D01*
X431929Y332330D01*
X431887Y332321D01*
X431844Y332315D01*
X431800Y332313D01*
X431756Y332315D01*
X431713Y332321D01*
X431671Y332330D01*
X431629Y332343D01*
X431589Y332360D01*
X431550Y332380D01*
X431513Y332403D01*
X431479Y332430D01*
X431446Y332459D01*
X431417Y332492D01*
X431390Y332526D01*
X431367Y332563D01*
X431347Y332602D01*
X431330Y332642D01*
X431317Y332684D01*
X431308Y332726D01*
X431302Y332769D01*
X431300Y332813D01*
X431302Y332857D01*
X431308Y332900D01*
X431317Y332942D01*
X431330Y332984D01*
X431347Y333024D01*
X431367Y333063D01*
X431390Y333100D01*
X431417Y333134D01*
X431446Y333167D01*
X431479Y333196D01*
X431513Y333223D01*
X431550Y333246D01*
X431589Y333266D01*
X431629Y333283D01*
X431671Y333296D01*
X431713Y333305D01*
X431756Y333311D01*
X431800Y333313D01*
D10*
X471780Y201930D02*
X471785Y201543D01*
X471799Y201156D01*
X471822Y200769D01*
X471855Y200384D01*
X471898Y199999D01*
X471949Y199615D01*
X472010Y199233D01*
X472081Y198852D01*
X472160Y198473D01*
X472249Y198096D01*
X472347Y197721D01*
X472454Y197349D01*
X472570Y196980D01*
X472695Y196613D01*
X472829Y196250D01*
X472972Y195890D01*
X473123Y195534D01*
X473283Y195181D01*
X473452Y194833D01*
X473629Y194488D01*
X473814Y194148D01*
X474008Y193813D01*
X474210Y193482D01*
X474419Y193157D01*
X474637Y192837D01*
X474862Y192522D01*
X475095Y192212D01*
X475336Y191909D01*
X475583Y191611D01*
X475838Y191320D01*
X476100Y191034D01*
X476369Y190756D01*
X476644Y190484D01*
X476926Y190218D01*
X477215Y189960D01*
X477509Y189709D01*
X477810Y189464D01*
X478116Y189228D01*
X478428Y188999D01*
X478746Y188777D01*
X479069Y188564D01*
X479397Y188358D01*
X479730Y188160D01*
X480068Y187971D01*
X480410Y187789D01*
X480756Y187617D01*
X481107Y187452D01*
X481461Y187296D01*
X481820Y187149D01*
X482181Y187011D01*
X482546Y186882D01*
X482914Y186761D01*
X483285Y186650D01*
X483658Y186547D01*
X484034Y186454D01*
X484412Y186369D01*
X484792Y186294D01*
X485174Y186229D01*
X485557Y186172D01*
X485941Y186125D01*
X486326Y186088D01*
X486713Y186059D01*
X487099Y186041D01*
X487486Y186031D01*
X487874Y186031D01*
X488261Y186041D01*
X488647Y186059D01*
X489034Y186088D01*
X489419Y186125D01*
X489803Y186172D01*
X490186Y186229D01*
X490568Y186294D01*
X490948Y186369D01*
X491326Y186454D01*
X491702Y186547D01*
X492075Y186650D01*
X492446Y186761D01*
X492814Y186882D01*
X493179Y187011D01*
X493540Y187149D01*
X493899Y187296D01*
X494253Y187452D01*
X494604Y187617D01*
X494950Y187789D01*
X495292Y187971D01*
X495630Y188160D01*
X495963Y188358D01*
X496291Y188564D01*
X496614Y188777D01*
X496932Y188999D01*
X497244Y189228D01*
X497550Y189464D01*
X497851Y189709D01*
X498145Y189960D01*
X498434Y190218D01*
X498716Y190484D01*
X498991Y190756D01*
X499260Y191034D01*
X499522Y191320D01*
X499777Y191611D01*
X500024Y191909D01*
X500265Y192212D01*
X500498Y192522D01*
X500723Y192837D01*
X500941Y193157D01*
X501150Y193482D01*
X501352Y193813D01*
X501546Y194148D01*
X501731Y194488D01*
X501908Y194833D01*
X502077Y195181D01*
X502237Y195534D01*
X502388Y195890D01*
X502531Y196250D01*
X502665Y196613D01*
X502790Y196980D01*
X502906Y197349D01*
X503013Y197721D01*
X503111Y198096D01*
X503200Y198473D01*
X503279Y198852D01*
X503350Y199233D01*
X503411Y199615D01*
X503462Y199999D01*
X503505Y200384D01*
X503538Y200769D01*
X503561Y201156D01*
X503575Y201543D01*
X503580Y201930D01*
X503575Y202317D01*
X503561Y202704D01*
X503538Y203091D01*
X503505Y203476D01*
X503462Y203861D01*
X503411Y204245D01*
X503350Y204627D01*
X503279Y205008D01*
X503200Y205387D01*
X503111Y205764D01*
X503013Y206139D01*
X502906Y206511D01*
X502790Y206880D01*
X502665Y207247D01*
X502531Y207610D01*
X502388Y207970D01*
X502237Y208326D01*
X502077Y208679D01*
X501908Y209027D01*
X501731Y209372D01*
X501546Y209712D01*
X501352Y210047D01*
X501150Y210378D01*
X500941Y210703D01*
X500723Y211023D01*
X500498Y211338D01*
X500265Y211648D01*
X500024Y211951D01*
X499777Y212249D01*
X499522Y212540D01*
X499260Y212826D01*
X498991Y213104D01*
X498716Y213376D01*
X498434Y213642D01*
X498145Y213900D01*
X497851Y214151D01*
X497550Y214396D01*
X497244Y214632D01*
X496932Y214861D01*
X496614Y215083D01*
X496291Y215296D01*
X495963Y215502D01*
X495630Y215700D01*
X495292Y215889D01*
X494950Y216071D01*
X494604Y216243D01*
X494253Y216408D01*
X493899Y216564D01*
X493540Y216711D01*
X493179Y216849D01*
X492814Y216978D01*
X492446Y217099D01*
X492075Y217210D01*
X491702Y217313D01*
X491326Y217406D01*
X490948Y217491D01*
X490568Y217566D01*
X490186Y217631D01*
X489803Y217688D01*
X489419Y217735D01*
X489034Y217772D01*
X488647Y217801D01*
X488261Y217819D01*
X487874Y217829D01*
X487486Y217829D01*
X487099Y217819D01*
X486713Y217801D01*
X486326Y217772D01*
X485941Y217735D01*
X485557Y217688D01*
X485174Y217631D01*
X484792Y217566D01*
X484412Y217491D01*
X484034Y217406D01*
X483658Y217313D01*
X483285Y217210D01*
X482914Y217099D01*
X482546Y216978D01*
X482181Y216849D01*
X481820Y216711D01*
X481461Y216564D01*
X481107Y216408D01*
X480756Y216243D01*
X480410Y216071D01*
X480068Y215889D01*
X479730Y215700D01*
X479397Y215502D01*
X479069Y215296D01*
X478746Y215083D01*
X478428Y214861D01*
X478116Y214632D01*
X477810Y214396D01*
X477509Y214151D01*
X477215Y213900D01*
X476926Y213642D01*
X476644Y213376D01*
X476369Y213104D01*
X476100Y212826D01*
X475838Y212540D01*
X475583Y212249D01*
X475336Y211951D01*
X475095Y211648D01*
X474862Y211338D01*
X474637Y211023D01*
X474419Y210703D01*
X474210Y210378D01*
X474008Y210047D01*
X473814Y209712D01*
X473629Y209372D01*
X473452Y209027D01*
X473283Y208679D01*
X473123Y208326D01*
X472972Y207970D01*
X472829Y207610D01*
X472695Y207247D01*
X472570Y206880D01*
X472454Y206511D01*
X472347Y206139D01*
X472249Y205764D01*
X472160Y205387D01*
X472081Y205008D01*
X472010Y204627D01*
X471949Y204245D01*
X471898Y203861D01*
X471855Y203476D01*
X471822Y203091D01*
X471799Y202704D01*
X471785Y202317D01*
X471780Y201930D01*
D14*
X487680Y180930D02*
X487724Y180928D01*
X487767Y180922D01*
X487809Y180913D01*
X487851Y180900D01*
X487891Y180883D01*
X487930Y180863D01*
X487967Y180840D01*
X488001Y180813D01*
X488034Y180784D01*
X488063Y180751D01*
X488090Y180717D01*
X488113Y180680D01*
X488133Y180641D01*
X488150Y180601D01*
X488163Y180559D01*
X488172Y180517D01*
X488178Y180474D01*
X488180Y180430D01*
X488178Y180386D01*
X488172Y180343D01*
X488163Y180301D01*
X488150Y180259D01*
X488133Y180219D01*
X488113Y180180D01*
X488090Y180143D01*
X488063Y180109D01*
X488034Y180076D01*
X488001Y180047D01*
X487967Y180020D01*
X487930Y179997D01*
X487891Y179977D01*
X487851Y179960D01*
X487809Y179947D01*
X487767Y179938D01*
X487724Y179932D01*
X487680Y179930D01*
X487636Y179932D01*
X487593Y179938D01*
X487551Y179947D01*
X487509Y179960D01*
X487469Y179977D01*
X487430Y179997D01*
X487393Y180020D01*
X487359Y180047D01*
X487326Y180076D01*
X487297Y180109D01*
X487270Y180143D01*
X487247Y180180D01*
X487227Y180219D01*
X487210Y180259D01*
X487197Y180301D01*
X487188Y180343D01*
X487182Y180386D01*
X487180Y180430D01*
X487182Y180474D01*
X487188Y180517D01*
X487197Y180559D01*
X487210Y180601D01*
X487227Y180641D01*
X487247Y180680D01*
X487270Y180717D01*
X487297Y180751D01*
X487326Y180784D01*
X487359Y180813D01*
X487393Y180840D01*
X487430Y180863D01*
X487469Y180883D01*
X487509Y180900D01*
X487551Y180913D01*
X487593Y180922D01*
X487636Y180928D01*
X487680Y180930D01*
D10*
X482259Y69659D02*
X482264Y69272D01*
X482278Y68885D01*
X482301Y68498D01*
X482334Y68113D01*
X482377Y67728D01*
X482428Y67344D01*
X482489Y66962D01*
X482560Y66581D01*
X482639Y66202D01*
X482728Y65825D01*
X482826Y65450D01*
X482933Y65078D01*
X483049Y64709D01*
X483174Y64342D01*
X483308Y63979D01*
X483451Y63619D01*
X483602Y63263D01*
X483762Y62910D01*
X483931Y62562D01*
X484108Y62217D01*
X484293Y61877D01*
X484487Y61542D01*
X484689Y61211D01*
X484898Y60886D01*
X485116Y60566D01*
X485341Y60251D01*
X485574Y59941D01*
X485815Y59638D01*
X486062Y59340D01*
X486317Y59049D01*
X486579Y58763D01*
X486848Y58485D01*
X487123Y58213D01*
X487405Y57947D01*
X487694Y57689D01*
X487988Y57438D01*
X488289Y57193D01*
X488595Y56957D01*
X488907Y56728D01*
X489225Y56506D01*
X489548Y56293D01*
X489876Y56087D01*
X490209Y55889D01*
X490547Y55700D01*
X490889Y55518D01*
X491235Y55346D01*
X491586Y55181D01*
X491940Y55025D01*
X492299Y54878D01*
X492660Y54740D01*
X493025Y54611D01*
X493393Y54490D01*
X493764Y54379D01*
X494137Y54276D01*
X494513Y54183D01*
X494891Y54098D01*
X495271Y54023D01*
X495653Y53958D01*
X496036Y53901D01*
X496420Y53854D01*
X496805Y53817D01*
X497192Y53788D01*
X497578Y53770D01*
X497965Y53760D01*
X498353Y53760D01*
X498740Y53770D01*
X499126Y53788D01*
X499513Y53817D01*
X499898Y53854D01*
X500282Y53901D01*
X500665Y53958D01*
X501047Y54023D01*
X501427Y54098D01*
X501805Y54183D01*
X502181Y54276D01*
X502554Y54379D01*
X502925Y54490D01*
X503293Y54611D01*
X503658Y54740D01*
X504019Y54878D01*
X504378Y55025D01*
X504732Y55181D01*
X505083Y55346D01*
X505429Y55518D01*
X505771Y55700D01*
X506109Y55889D01*
X506442Y56087D01*
X506770Y56293D01*
X507093Y56506D01*
X507411Y56728D01*
X507723Y56957D01*
X508029Y57193D01*
X508330Y57438D01*
X508624Y57689D01*
X508913Y57947D01*
X509195Y58213D01*
X509470Y58485D01*
X509739Y58763D01*
X510001Y59049D01*
X510256Y59340D01*
X510503Y59638D01*
X510744Y59941D01*
X510977Y60251D01*
X511202Y60566D01*
X511420Y60886D01*
X511629Y61211D01*
X511831Y61542D01*
X512025Y61877D01*
X512210Y62217D01*
X512387Y62562D01*
X512556Y62910D01*
X512716Y63263D01*
X512867Y63619D01*
X513010Y63979D01*
X513144Y64342D01*
X513269Y64709D01*
X513385Y65078D01*
X513492Y65450D01*
X513590Y65825D01*
X513679Y66202D01*
X513758Y66581D01*
X513829Y66962D01*
X513890Y67344D01*
X513941Y67728D01*
X513984Y68113D01*
X514017Y68498D01*
X514040Y68885D01*
X514054Y69272D01*
X514059Y69659D01*
X514054Y70046D01*
X514040Y70433D01*
X514017Y70820D01*
X513984Y71205D01*
X513941Y71590D01*
X513890Y71974D01*
X513829Y72356D01*
X513758Y72737D01*
X513679Y73116D01*
X513590Y73493D01*
X513492Y73868D01*
X513385Y74240D01*
X513269Y74609D01*
X513144Y74976D01*
X513010Y75339D01*
X512867Y75699D01*
X512716Y76055D01*
X512556Y76408D01*
X512387Y76756D01*
X512210Y77101D01*
X512025Y77441D01*
X511831Y77776D01*
X511629Y78107D01*
X511420Y78432D01*
X511202Y78752D01*
X510977Y79067D01*
X510744Y79377D01*
X510503Y79680D01*
X510256Y79978D01*
X510001Y80269D01*
X509739Y80555D01*
X509470Y80833D01*
X509195Y81105D01*
X508913Y81371D01*
X508624Y81629D01*
X508330Y81880D01*
X508029Y82125D01*
X507723Y82361D01*
X507411Y82590D01*
X507093Y82812D01*
X506770Y83025D01*
X506442Y83231D01*
X506109Y83429D01*
X505771Y83618D01*
X505429Y83800D01*
X505083Y83972D01*
X504732Y84137D01*
X504378Y84293D01*
X504019Y84440D01*
X503658Y84578D01*
X503293Y84707D01*
X502925Y84828D01*
X502554Y84939D01*
X502181Y85042D01*
X501805Y85135D01*
X501427Y85220D01*
X501047Y85295D01*
X500665Y85360D01*
X500282Y85417D01*
X499898Y85464D01*
X499513Y85501D01*
X499126Y85530D01*
X498740Y85548D01*
X498353Y85558D01*
X497965Y85558D01*
X497578Y85548D01*
X497192Y85530D01*
X496805Y85501D01*
X496420Y85464D01*
X496036Y85417D01*
X495653Y85360D01*
X495271Y85295D01*
X494891Y85220D01*
X494513Y85135D01*
X494137Y85042D01*
X493764Y84939D01*
X493393Y84828D01*
X493025Y84707D01*
X492660Y84578D01*
X492299Y84440D01*
X491940Y84293D01*
X491586Y84137D01*
X491235Y83972D01*
X490889Y83800D01*
X490547Y83618D01*
X490209Y83429D01*
X489876Y83231D01*
X489548Y83025D01*
X489225Y82812D01*
X488907Y82590D01*
X488595Y82361D01*
X488289Y82125D01*
X487988Y81880D01*
X487694Y81629D01*
X487405Y81371D01*
X487123Y81105D01*
X486848Y80833D01*
X486579Y80555D01*
X486317Y80269D01*
X486062Y79978D01*
X485815Y79680D01*
X485574Y79377D01*
X485341Y79067D01*
X485116Y78752D01*
X484898Y78432D01*
X484689Y78107D01*
X484487Y77776D01*
X484293Y77441D01*
X484108Y77101D01*
X483931Y76756D01*
X483762Y76408D01*
X483602Y76055D01*
X483451Y75699D01*
X483308Y75339D01*
X483174Y74976D01*
X483049Y74609D01*
X482933Y74240D01*
X482826Y73868D01*
X482728Y73493D01*
X482639Y73116D01*
X482560Y72737D01*
X482489Y72356D01*
X482428Y71974D01*
X482377Y71590D01*
X482334Y71205D01*
X482301Y70820D01*
X482278Y70433D01*
X482264Y70046D01*
X482259Y69659D01*
D14*
X498159Y48659D02*
X498203Y48657D01*
X498246Y48651D01*
X498288Y48642D01*
X498330Y48629D01*
X498370Y48612D01*
X498409Y48592D01*
X498446Y48569D01*
X498480Y48542D01*
X498513Y48513D01*
X498542Y48480D01*
X498569Y48446D01*
X498592Y48409D01*
X498612Y48370D01*
X498629Y48330D01*
X498642Y48288D01*
X498651Y48246D01*
X498657Y48203D01*
X498659Y48159D01*
X498657Y48115D01*
X498651Y48072D01*
X498642Y48030D01*
X498629Y47988D01*
X498612Y47948D01*
X498592Y47909D01*
X498569Y47872D01*
X498542Y47838D01*
X498513Y47805D01*
X498480Y47776D01*
X498446Y47749D01*
X498409Y47726D01*
X498370Y47706D01*
X498330Y47689D01*
X498288Y47676D01*
X498246Y47667D01*
X498203Y47661D01*
X498159Y47659D01*
X498115Y47661D01*
X498072Y47667D01*
X498030Y47676D01*
X497988Y47689D01*
X497948Y47706D01*
X497909Y47726D01*
X497872Y47749D01*
X497838Y47776D01*
X497805Y47805D01*
X497776Y47838D01*
X497749Y47872D01*
X497726Y47909D01*
X497706Y47948D01*
X497689Y47988D01*
X497676Y48030D01*
X497667Y48072D01*
X497661Y48115D01*
X497659Y48159D01*
X497661Y48203D01*
X497667Y48246D01*
X497676Y48288D01*
X497689Y48330D01*
X497706Y48370D01*
X497726Y48409D01*
X497749Y48446D01*
X497776Y48480D01*
X497805Y48513D01*
X497838Y48542D01*
X497872Y48569D01*
X497909Y48592D01*
X497948Y48612D01*
X497988Y48629D01*
X498030Y48642D01*
X498072Y48651D01*
X498115Y48657D01*
X498159Y48659D01*
D10*
X280060Y121920D02*
X280055Y121533D01*
X280041Y121146D01*
X280018Y120759D01*
X279985Y120374D01*
X279942Y119989D01*
X279891Y119605D01*
X279830Y119223D01*
X279759Y118842D01*
X279680Y118463D01*
X279591Y118086D01*
X279493Y117711D01*
X279386Y117339D01*
X279270Y116970D01*
X279145Y116603D01*
X279011Y116240D01*
X278868Y115880D01*
X278717Y115524D01*
X278557Y115171D01*
X278388Y114823D01*
X278211Y114478D01*
X278026Y114138D01*
X277832Y113803D01*
X277630Y113472D01*
X277421Y113147D01*
X277203Y112827D01*
X276978Y112512D01*
X276745Y112202D01*
X276504Y111899D01*
X276257Y111601D01*
X276002Y111310D01*
X275740Y111024D01*
X275471Y110746D01*
X275196Y110474D01*
X274914Y110208D01*
X274625Y109950D01*
X274331Y109699D01*
X274030Y109454D01*
X273724Y109218D01*
X273412Y108989D01*
X273094Y108767D01*
X272771Y108554D01*
X272443Y108348D01*
X272110Y108150D01*
X271772Y107961D01*
X271430Y107779D01*
X271084Y107607D01*
X270733Y107442D01*
X270379Y107286D01*
X270020Y107139D01*
X269659Y107001D01*
X269294Y106872D01*
X268926Y106751D01*
X268555Y106640D01*
X268182Y106537D01*
X267806Y106444D01*
X267428Y106359D01*
X267048Y106284D01*
X266666Y106219D01*
X266283Y106162D01*
X265899Y106115D01*
X265514Y106078D01*
X265127Y106049D01*
X264741Y106031D01*
X264354Y106021D01*
X263966Y106021D01*
X263579Y106031D01*
X263193Y106049D01*
X262806Y106078D01*
X262421Y106115D01*
X262037Y106162D01*
X261654Y106219D01*
X261272Y106284D01*
X260892Y106359D01*
X260514Y106444D01*
X260138Y106537D01*
X259765Y106640D01*
X259394Y106751D01*
X259026Y106872D01*
X258661Y107001D01*
X258300Y107139D01*
X257941Y107286D01*
X257587Y107442D01*
X257236Y107607D01*
X256890Y107779D01*
X256548Y107961D01*
X256210Y108150D01*
X255877Y108348D01*
X255549Y108554D01*
X255226Y108767D01*
X254908Y108989D01*
X254596Y109218D01*
X254290Y109454D01*
X253989Y109699D01*
X253695Y109950D01*
X253406Y110208D01*
X253124Y110474D01*
X252849Y110746D01*
X252580Y111024D01*
X252318Y111310D01*
X252063Y111601D01*
X251816Y111899D01*
X251575Y112202D01*
X251342Y112512D01*
X251117Y112827D01*
X250899Y113147D01*
X250690Y113472D01*
X250488Y113803D01*
X250294Y114138D01*
X250109Y114478D01*
X249932Y114823D01*
X249763Y115171D01*
X249603Y115524D01*
X249452Y115880D01*
X249309Y116240D01*
X249175Y116603D01*
X249050Y116970D01*
X248934Y117339D01*
X248827Y117711D01*
X248729Y118086D01*
X248640Y118463D01*
X248561Y118842D01*
X248490Y119223D01*
X248429Y119605D01*
X248378Y119989D01*
X248335Y120374D01*
X248302Y120759D01*
X248279Y121146D01*
X248265Y121533D01*
X248260Y121920D01*
X248265Y122307D01*
X248279Y122694D01*
X248302Y123081D01*
X248335Y123466D01*
X248378Y123851D01*
X248429Y124235D01*
X248490Y124617D01*
X248561Y124998D01*
X248640Y125377D01*
X248729Y125754D01*
X248827Y126129D01*
X248934Y126501D01*
X249050Y126870D01*
X249175Y127237D01*
X249309Y127600D01*
X249452Y127960D01*
X249603Y128316D01*
X249763Y128669D01*
X249932Y129017D01*
X250109Y129362D01*
X250294Y129702D01*
X250488Y130037D01*
X250690Y130368D01*
X250899Y130693D01*
X251117Y131013D01*
X251342Y131328D01*
X251575Y131638D01*
X251816Y131941D01*
X252063Y132239D01*
X252318Y132530D01*
X252580Y132816D01*
X252849Y133094D01*
X253124Y133366D01*
X253406Y133632D01*
X253695Y133890D01*
X253989Y134141D01*
X254290Y134386D01*
X254596Y134622D01*
X254908Y134851D01*
X255226Y135073D01*
X255549Y135286D01*
X255877Y135492D01*
X256210Y135690D01*
X256548Y135879D01*
X256890Y136061D01*
X257236Y136233D01*
X257587Y136398D01*
X257941Y136554D01*
X258300Y136701D01*
X258661Y136839D01*
X259026Y136968D01*
X259394Y137089D01*
X259765Y137200D01*
X260138Y137303D01*
X260514Y137396D01*
X260892Y137481D01*
X261272Y137556D01*
X261654Y137621D01*
X262037Y137678D01*
X262421Y137725D01*
X262806Y137762D01*
X263193Y137791D01*
X263579Y137809D01*
X263966Y137819D01*
X264354Y137819D01*
X264741Y137809D01*
X265127Y137791D01*
X265514Y137762D01*
X265899Y137725D01*
X266283Y137678D01*
X266666Y137621D01*
X267048Y137556D01*
X267428Y137481D01*
X267806Y137396D01*
X268182Y137303D01*
X268555Y137200D01*
X268926Y137089D01*
X269294Y136968D01*
X269659Y136839D01*
X270020Y136701D01*
X270379Y136554D01*
X270733Y136398D01*
X271084Y136233D01*
X271430Y136061D01*
X271772Y135879D01*
X272110Y135690D01*
X272443Y135492D01*
X272771Y135286D01*
X273094Y135073D01*
X273412Y134851D01*
X273724Y134622D01*
X274030Y134386D01*
X274331Y134141D01*
X274625Y133890D01*
X274914Y133632D01*
X275196Y133366D01*
X275471Y133094D01*
X275740Y132816D01*
X276002Y132530D01*
X276257Y132239D01*
X276504Y131941D01*
X276745Y131638D01*
X276978Y131328D01*
X277203Y131013D01*
X277421Y130693D01*
X277630Y130368D01*
X277832Y130037D01*
X278026Y129702D01*
X278211Y129362D01*
X278388Y129017D01*
X278557Y128669D01*
X278717Y128316D01*
X278868Y127960D01*
X279011Y127600D01*
X279145Y127237D01*
X279270Y126870D01*
X279386Y126501D01*
X279493Y126129D01*
X279591Y125754D01*
X279680Y125377D01*
X279759Y124998D01*
X279830Y124617D01*
X279891Y124235D01*
X279942Y123851D01*
X279985Y123466D01*
X280018Y123081D01*
X280041Y122694D01*
X280055Y122307D01*
X280060Y121920D01*
D14*
X264160Y100920D02*
X264204Y100918D01*
X264247Y100912D01*
X264289Y100903D01*
X264331Y100890D01*
X264371Y100873D01*
X264410Y100853D01*
X264447Y100830D01*
X264481Y100803D01*
X264514Y100774D01*
X264543Y100741D01*
X264570Y100707D01*
X264593Y100670D01*
X264613Y100631D01*
X264630Y100591D01*
X264643Y100549D01*
X264652Y100507D01*
X264658Y100464D01*
X264660Y100420D01*
X264658Y100376D01*
X264652Y100333D01*
X264643Y100291D01*
X264630Y100249D01*
X264613Y100209D01*
X264593Y100170D01*
X264570Y100133D01*
X264543Y100099D01*
X264514Y100066D01*
X264481Y100037D01*
X264447Y100010D01*
X264410Y99987D01*
X264371Y99967D01*
X264331Y99950D01*
X264289Y99937D01*
X264247Y99928D01*
X264204Y99922D01*
X264160Y99920D01*
X264116Y99922D01*
X264073Y99928D01*
X264031Y99937D01*
X263989Y99950D01*
X263949Y99967D01*
X263910Y99987D01*
X263873Y100010D01*
X263839Y100037D01*
X263806Y100066D01*
X263777Y100099D01*
X263750Y100133D01*
X263727Y100170D01*
X263707Y100209D01*
X263690Y100249D01*
X263677Y100291D01*
X263668Y100333D01*
X263662Y100376D01*
X263660Y100420D01*
X263662Y100464D01*
X263668Y100507D01*
X263677Y100549D01*
X263690Y100591D01*
X263707Y100631D01*
X263727Y100670D01*
X263750Y100707D01*
X263777Y100741D01*
X263806Y100774D01*
X263839Y100803D01*
X263873Y100830D01*
X263910Y100853D01*
X263949Y100873D01*
X263989Y100890D01*
X264031Y100903D01*
X264073Y100912D01*
X264116Y100918D01*
X264160Y100920D01*
D10*
X269850Y-76200D02*
X269855Y-76587D01*
X269869Y-76974D01*
X269892Y-77361D01*
X269925Y-77746D01*
X269968Y-78131D01*
X270019Y-78515D01*
X270080Y-78897D01*
X270151Y-79278D01*
X270230Y-79657D01*
X270319Y-80034D01*
X270417Y-80409D01*
X270524Y-80781D01*
X270640Y-81150D01*
X270765Y-81517D01*
X270899Y-81880D01*
X271042Y-82240D01*
X271193Y-82596D01*
X271353Y-82949D01*
X271522Y-83297D01*
X271699Y-83642D01*
X271884Y-83982D01*
X272078Y-84317D01*
X272280Y-84648D01*
X272489Y-84973D01*
X272707Y-85293D01*
X272932Y-85608D01*
X273165Y-85918D01*
X273406Y-86221D01*
X273653Y-86519D01*
X273908Y-86810D01*
X274170Y-87096D01*
X274439Y-87374D01*
X274714Y-87646D01*
X274996Y-87912D01*
X275285Y-88170D01*
X275579Y-88421D01*
X275880Y-88666D01*
X276186Y-88902D01*
X276498Y-89131D01*
X276816Y-89353D01*
X277139Y-89566D01*
X277467Y-89772D01*
X277800Y-89970D01*
X278138Y-90159D01*
X278480Y-90341D01*
X278826Y-90513D01*
X279177Y-90678D01*
X279531Y-90834D01*
X279890Y-90981D01*
X280251Y-91119D01*
X280616Y-91248D01*
X280984Y-91369D01*
X281355Y-91480D01*
X281728Y-91583D01*
X282104Y-91676D01*
X282482Y-91761D01*
X282862Y-91836D01*
X283244Y-91901D01*
X283627Y-91958D01*
X284011Y-92005D01*
X284396Y-92042D01*
X284783Y-92071D01*
X285169Y-92089D01*
X285556Y-92099D01*
X285944Y-92099D01*
X286331Y-92089D01*
X286717Y-92071D01*
X287104Y-92042D01*
X287489Y-92005D01*
X287873Y-91958D01*
X288256Y-91901D01*
X288638Y-91836D01*
X289018Y-91761D01*
X289396Y-91676D01*
X289772Y-91583D01*
X290145Y-91480D01*
X290516Y-91369D01*
X290884Y-91248D01*
X291249Y-91119D01*
X291610Y-90981D01*
X291969Y-90834D01*
X292323Y-90678D01*
X292674Y-90513D01*
X293020Y-90341D01*
X293362Y-90159D01*
X293700Y-89970D01*
X294033Y-89772D01*
X294361Y-89566D01*
X294684Y-89353D01*
X295002Y-89131D01*
X295314Y-88902D01*
X295620Y-88666D01*
X295921Y-88421D01*
X296215Y-88170D01*
X296504Y-87912D01*
X296786Y-87646D01*
X297061Y-87374D01*
X297330Y-87096D01*
X297592Y-86810D01*
X297847Y-86519D01*
X298094Y-86221D01*
X298335Y-85918D01*
X298568Y-85608D01*
X298793Y-85293D01*
X299011Y-84973D01*
X299220Y-84648D01*
X299422Y-84317D01*
X299616Y-83982D01*
X299801Y-83642D01*
X299978Y-83297D01*
X300147Y-82949D01*
X300307Y-82596D01*
X300458Y-82240D01*
X300601Y-81880D01*
X300735Y-81517D01*
X300860Y-81150D01*
X300976Y-80781D01*
X301083Y-80409D01*
X301181Y-80034D01*
X301270Y-79657D01*
X301349Y-79278D01*
X301420Y-78897D01*
X301481Y-78515D01*
X301532Y-78131D01*
X301575Y-77746D01*
X301608Y-77361D01*
X301631Y-76974D01*
X301645Y-76587D01*
X301650Y-76200D01*
X301645Y-75813D01*
X301631Y-75426D01*
X301608Y-75039D01*
X301575Y-74654D01*
X301532Y-74269D01*
X301481Y-73885D01*
X301420Y-73503D01*
X301349Y-73122D01*
X301270Y-72743D01*
X301181Y-72366D01*
X301083Y-71991D01*
X300976Y-71619D01*
X300860Y-71250D01*
X300735Y-70883D01*
X300601Y-70520D01*
X300458Y-70160D01*
X300307Y-69804D01*
X300147Y-69451D01*
X299978Y-69103D01*
X299801Y-68758D01*
X299616Y-68418D01*
X299422Y-68083D01*
X299220Y-67752D01*
X299011Y-67427D01*
X298793Y-67107D01*
X298568Y-66792D01*
X298335Y-66482D01*
X298094Y-66179D01*
X297847Y-65881D01*
X297592Y-65590D01*
X297330Y-65304D01*
X297061Y-65026D01*
X296786Y-64754D01*
X296504Y-64488D01*
X296215Y-64230D01*
X295921Y-63979D01*
X295620Y-63734D01*
X295314Y-63498D01*
X295002Y-63269D01*
X294684Y-63047D01*
X294361Y-62834D01*
X294033Y-62628D01*
X293700Y-62430D01*
X293362Y-62241D01*
X293020Y-62059D01*
X292674Y-61887D01*
X292323Y-61722D01*
X291969Y-61566D01*
X291610Y-61419D01*
X291249Y-61281D01*
X290884Y-61152D01*
X290516Y-61031D01*
X290145Y-60920D01*
X289772Y-60817D01*
X289396Y-60724D01*
X289018Y-60639D01*
X288638Y-60564D01*
X288256Y-60499D01*
X287873Y-60442D01*
X287489Y-60395D01*
X287104Y-60358D01*
X286717Y-60329D01*
X286331Y-60311D01*
X285944Y-60301D01*
X285556Y-60301D01*
X285169Y-60311D01*
X284783Y-60329D01*
X284396Y-60358D01*
X284011Y-60395D01*
X283627Y-60442D01*
X283244Y-60499D01*
X282862Y-60564D01*
X282482Y-60639D01*
X282104Y-60724D01*
X281728Y-60817D01*
X281355Y-60920D01*
X280984Y-61031D01*
X280616Y-61152D01*
X280251Y-61281D01*
X279890Y-61419D01*
X279531Y-61566D01*
X279177Y-61722D01*
X278826Y-61887D01*
X278480Y-62059D01*
X278138Y-62241D01*
X277800Y-62430D01*
X277467Y-62628D01*
X277139Y-62834D01*
X276816Y-63047D01*
X276498Y-63269D01*
X276186Y-63498D01*
X275880Y-63734D01*
X275579Y-63979D01*
X275285Y-64230D01*
X274996Y-64488D01*
X274714Y-64754D01*
X274439Y-65026D01*
X274170Y-65304D01*
X273908Y-65590D01*
X273653Y-65881D01*
X273406Y-66179D01*
X273165Y-66482D01*
X272932Y-66792D01*
X272707Y-67107D01*
X272489Y-67427D01*
X272280Y-67752D01*
X272078Y-68083D01*
X271884Y-68418D01*
X271699Y-68758D01*
X271522Y-69103D01*
X271353Y-69451D01*
X271193Y-69804D01*
X271042Y-70160D01*
X270899Y-70520D01*
X270765Y-70883D01*
X270640Y-71250D01*
X270524Y-71619D01*
X270417Y-71991D01*
X270319Y-72366D01*
X270230Y-72743D01*
X270151Y-73122D01*
X270080Y-73503D01*
X270019Y-73885D01*
X269968Y-74269D01*
X269925Y-74654D01*
X269892Y-75039D01*
X269869Y-75426D01*
X269855Y-75813D01*
X269850Y-76200D01*
D14*
X285750Y-97200D02*
X285794Y-97202D01*
X285837Y-97208D01*
X285879Y-97217D01*
X285921Y-97230D01*
X285961Y-97247D01*
X286000Y-97267D01*
X286037Y-97290D01*
X286071Y-97317D01*
X286104Y-97346D01*
X286133Y-97379D01*
X286160Y-97413D01*
X286183Y-97450D01*
X286203Y-97489D01*
X286220Y-97529D01*
X286233Y-97571D01*
X286242Y-97613D01*
X286248Y-97656D01*
X286250Y-97700D01*
X286248Y-97744D01*
X286242Y-97787D01*
X286233Y-97829D01*
X286220Y-97871D01*
X286203Y-97911D01*
X286183Y-97950D01*
X286160Y-97987D01*
X286133Y-98021D01*
X286104Y-98054D01*
X286071Y-98083D01*
X286037Y-98110D01*
X286000Y-98133D01*
X285961Y-98153D01*
X285921Y-98170D01*
X285879Y-98183D01*
X285837Y-98192D01*
X285794Y-98198D01*
X285750Y-98200D01*
X285706Y-98198D01*
X285663Y-98192D01*
X285621Y-98183D01*
X285579Y-98170D01*
X285539Y-98153D01*
X285500Y-98133D01*
X285463Y-98110D01*
X285429Y-98083D01*
X285396Y-98054D01*
X285367Y-98021D01*
X285340Y-97987D01*
X285317Y-97950D01*
X285297Y-97911D01*
X285280Y-97871D01*
X285267Y-97829D01*
X285258Y-97787D01*
X285252Y-97744D01*
X285250Y-97700D01*
X285252Y-97656D01*
X285258Y-97613D01*
X285267Y-97571D01*
X285280Y-97529D01*
X285297Y-97489D01*
X285317Y-97450D01*
X285340Y-97413D01*
X285367Y-97379D01*
X285396Y-97346D01*
X285429Y-97317D01*
X285463Y-97290D01*
X285500Y-97267D01*
X285539Y-97247D01*
X285579Y-97230D01*
X285621Y-97217D01*
X285663Y-97208D01*
X285706Y-97202D01*
X285750Y-97200D01*
D10*
X391770Y-76200D02*
X391775Y-76587D01*
X391789Y-76974D01*
X391812Y-77361D01*
X391845Y-77746D01*
X391888Y-78131D01*
X391939Y-78515D01*
X392000Y-78897D01*
X392071Y-79278D01*
X392150Y-79657D01*
X392239Y-80034D01*
X392337Y-80409D01*
X392444Y-80781D01*
X392560Y-81150D01*
X392685Y-81517D01*
X392819Y-81880D01*
X392962Y-82240D01*
X393113Y-82596D01*
X393273Y-82949D01*
X393442Y-83297D01*
X393619Y-83642D01*
X393804Y-83982D01*
X393998Y-84317D01*
X394200Y-84648D01*
X394409Y-84973D01*
X394627Y-85293D01*
X394852Y-85608D01*
X395085Y-85918D01*
X395326Y-86221D01*
X395573Y-86519D01*
X395828Y-86810D01*
X396090Y-87096D01*
X396359Y-87374D01*
X396634Y-87646D01*
X396916Y-87912D01*
X397205Y-88170D01*
X397499Y-88421D01*
X397800Y-88666D01*
X398106Y-88902D01*
X398418Y-89131D01*
X398736Y-89353D01*
X399059Y-89566D01*
X399387Y-89772D01*
X399720Y-89970D01*
X400058Y-90159D01*
X400400Y-90341D01*
X400746Y-90513D01*
X401097Y-90678D01*
X401451Y-90834D01*
X401810Y-90981D01*
X402171Y-91119D01*
X402536Y-91248D01*
X402904Y-91369D01*
X403275Y-91480D01*
X403648Y-91583D01*
X404024Y-91676D01*
X404402Y-91761D01*
X404782Y-91836D01*
X405164Y-91901D01*
X405547Y-91958D01*
X405931Y-92005D01*
X406316Y-92042D01*
X406703Y-92071D01*
X407089Y-92089D01*
X407476Y-92099D01*
X407864Y-92099D01*
X408251Y-92089D01*
X408637Y-92071D01*
X409024Y-92042D01*
X409409Y-92005D01*
X409793Y-91958D01*
X410176Y-91901D01*
X410558Y-91836D01*
X410938Y-91761D01*
X411316Y-91676D01*
X411692Y-91583D01*
X412065Y-91480D01*
X412436Y-91369D01*
X412804Y-91248D01*
X413169Y-91119D01*
X413530Y-90981D01*
X413889Y-90834D01*
X414243Y-90678D01*
X414594Y-90513D01*
X414940Y-90341D01*
X415282Y-90159D01*
X415620Y-89970D01*
X415953Y-89772D01*
X416281Y-89566D01*
X416604Y-89353D01*
X416922Y-89131D01*
X417234Y-88902D01*
X417540Y-88666D01*
X417841Y-88421D01*
X418135Y-88170D01*
X418424Y-87912D01*
X418706Y-87646D01*
X418981Y-87374D01*
X419250Y-87096D01*
X419512Y-86810D01*
X419767Y-86519D01*
X420014Y-86221D01*
X420255Y-85918D01*
X420488Y-85608D01*
X420713Y-85293D01*
X420931Y-84973D01*
X421140Y-84648D01*
X421342Y-84317D01*
X421536Y-83982D01*
X421721Y-83642D01*
X421898Y-83297D01*
X422067Y-82949D01*
X422227Y-82596D01*
X422378Y-82240D01*
X422521Y-81880D01*
X422655Y-81517D01*
X422780Y-81150D01*
X422896Y-80781D01*
X423003Y-80409D01*
X423101Y-80034D01*
X423190Y-79657D01*
X423269Y-79278D01*
X423340Y-78897D01*
X423401Y-78515D01*
X423452Y-78131D01*
X423495Y-77746D01*
X423528Y-77361D01*
X423551Y-76974D01*
X423565Y-76587D01*
X423570Y-76200D01*
X423565Y-75813D01*
X423551Y-75426D01*
X423528Y-75039D01*
X423495Y-74654D01*
X423452Y-74269D01*
X423401Y-73885D01*
X423340Y-73503D01*
X423269Y-73122D01*
X423190Y-72743D01*
X423101Y-72366D01*
X423003Y-71991D01*
X422896Y-71619D01*
X422780Y-71250D01*
X422655Y-70883D01*
X422521Y-70520D01*
X422378Y-70160D01*
X422227Y-69804D01*
X422067Y-69451D01*
X421898Y-69103D01*
X421721Y-68758D01*
X421536Y-68418D01*
X421342Y-68083D01*
X421140Y-67752D01*
X420931Y-67427D01*
X420713Y-67107D01*
X420488Y-66792D01*
X420255Y-66482D01*
X420014Y-66179D01*
X419767Y-65881D01*
X419512Y-65590D01*
X419250Y-65304D01*
X418981Y-65026D01*
X418706Y-64754D01*
X418424Y-64488D01*
X418135Y-64230D01*
X417841Y-63979D01*
X417540Y-63734D01*
X417234Y-63498D01*
X416922Y-63269D01*
X416604Y-63047D01*
X416281Y-62834D01*
X415953Y-62628D01*
X415620Y-62430D01*
X415282Y-62241D01*
X414940Y-62059D01*
X414594Y-61887D01*
X414243Y-61722D01*
X413889Y-61566D01*
X413530Y-61419D01*
X413169Y-61281D01*
X412804Y-61152D01*
X412436Y-61031D01*
X412065Y-60920D01*
X411692Y-60817D01*
X411316Y-60724D01*
X410938Y-60639D01*
X410558Y-60564D01*
X410176Y-60499D01*
X409793Y-60442D01*
X409409Y-60395D01*
X409024Y-60358D01*
X408637Y-60329D01*
X408251Y-60311D01*
X407864Y-60301D01*
X407476Y-60301D01*
X407089Y-60311D01*
X406703Y-60329D01*
X406316Y-60358D01*
X405931Y-60395D01*
X405547Y-60442D01*
X405164Y-60499D01*
X404782Y-60564D01*
X404402Y-60639D01*
X404024Y-60724D01*
X403648Y-60817D01*
X403275Y-60920D01*
X402904Y-61031D01*
X402536Y-61152D01*
X402171Y-61281D01*
X401810Y-61419D01*
X401451Y-61566D01*
X401097Y-61722D01*
X400746Y-61887D01*
X400400Y-62059D01*
X400058Y-62241D01*
X399720Y-62430D01*
X399387Y-62628D01*
X399059Y-62834D01*
X398736Y-63047D01*
X398418Y-63269D01*
X398106Y-63498D01*
X397800Y-63734D01*
X397499Y-63979D01*
X397205Y-64230D01*
X396916Y-64488D01*
X396634Y-64754D01*
X396359Y-65026D01*
X396090Y-65304D01*
X395828Y-65590D01*
X395573Y-65881D01*
X395326Y-66179D01*
X395085Y-66482D01*
X394852Y-66792D01*
X394627Y-67107D01*
X394409Y-67427D01*
X394200Y-67752D01*
X393998Y-68083D01*
X393804Y-68418D01*
X393619Y-68758D01*
X393442Y-69103D01*
X393273Y-69451D01*
X393113Y-69804D01*
X392962Y-70160D01*
X392819Y-70520D01*
X392685Y-70883D01*
X392560Y-71250D01*
X392444Y-71619D01*
X392337Y-71991D01*
X392239Y-72366D01*
X392150Y-72743D01*
X392071Y-73122D01*
X392000Y-73503D01*
X391939Y-73885D01*
X391888Y-74269D01*
X391845Y-74654D01*
X391812Y-75039D01*
X391789Y-75426D01*
X391775Y-75813D01*
X391770Y-76200D01*
D14*
X407670Y-97200D02*
X407714Y-97202D01*
X407757Y-97208D01*
X407799Y-97217D01*
X407841Y-97230D01*
X407881Y-97247D01*
X407920Y-97267D01*
X407957Y-97290D01*
X407991Y-97317D01*
X408024Y-97346D01*
X408053Y-97379D01*
X408080Y-97413D01*
X408103Y-97450D01*
X408123Y-97489D01*
X408140Y-97529D01*
X408153Y-97571D01*
X408162Y-97613D01*
X408168Y-97656D01*
X408170Y-97700D01*
X408168Y-97744D01*
X408162Y-97787D01*
X408153Y-97829D01*
X408140Y-97871D01*
X408123Y-97911D01*
X408103Y-97950D01*
X408080Y-97987D01*
X408053Y-98021D01*
X408024Y-98054D01*
X407991Y-98083D01*
X407957Y-98110D01*
X407920Y-98133D01*
X407881Y-98153D01*
X407841Y-98170D01*
X407799Y-98183D01*
X407757Y-98192D01*
X407714Y-98198D01*
X407670Y-98200D01*
X407626Y-98198D01*
X407583Y-98192D01*
X407541Y-98183D01*
X407499Y-98170D01*
X407459Y-98153D01*
X407420Y-98133D01*
X407383Y-98110D01*
X407349Y-98083D01*
X407316Y-98054D01*
X407287Y-98021D01*
X407260Y-97987D01*
X407237Y-97950D01*
X407217Y-97911D01*
X407200Y-97871D01*
X407187Y-97829D01*
X407178Y-97787D01*
X407172Y-97744D01*
X407170Y-97700D01*
X407172Y-97656D01*
X407178Y-97613D01*
X407187Y-97571D01*
X407200Y-97529D01*
X407217Y-97489D01*
X407237Y-97450D01*
X407260Y-97413D01*
X407287Y-97379D01*
X407316Y-97346D01*
X407349Y-97317D01*
X407383Y-97290D01*
X407420Y-97267D01*
X407459Y-97247D01*
X407499Y-97230D01*
X407541Y-97217D01*
X407583Y-97208D01*
X407626Y-97202D01*
X407670Y-97200D01*
D10*
X184350Y217555D02*
X184345Y217168D01*
X184331Y216781D01*
X184308Y216394D01*
X184275Y216009D01*
X184232Y215624D01*
X184181Y215240D01*
X184120Y214858D01*
X184049Y214477D01*
X183970Y214098D01*
X183881Y213721D01*
X183783Y213346D01*
X183676Y212974D01*
X183560Y212605D01*
X183435Y212238D01*
X183301Y211875D01*
X183158Y211515D01*
X183007Y211159D01*
X182847Y210806D01*
X182678Y210458D01*
X182501Y210113D01*
X182316Y209773D01*
X182122Y209438D01*
X181920Y209107D01*
X181711Y208782D01*
X181493Y208462D01*
X181268Y208147D01*
X181035Y207837D01*
X180794Y207534D01*
X180547Y207236D01*
X180292Y206945D01*
X180030Y206659D01*
X179761Y206381D01*
X179486Y206109D01*
X179204Y205843D01*
X178915Y205585D01*
X178621Y205334D01*
X178320Y205089D01*
X178014Y204853D01*
X177702Y204624D01*
X177384Y204402D01*
X177061Y204189D01*
X176733Y203983D01*
X176400Y203785D01*
X176062Y203596D01*
X175720Y203414D01*
X175374Y203242D01*
X175023Y203077D01*
X174669Y202921D01*
X174310Y202774D01*
X173949Y202636D01*
X173584Y202507D01*
X173216Y202386D01*
X172845Y202275D01*
X172472Y202172D01*
X172096Y202079D01*
X171718Y201994D01*
X171338Y201919D01*
X170956Y201854D01*
X170573Y201797D01*
X170189Y201750D01*
X169804Y201713D01*
X169417Y201684D01*
X169031Y201666D01*
X168644Y201656D01*
X168256Y201656D01*
X167869Y201666D01*
X167483Y201684D01*
X167096Y201713D01*
X166711Y201750D01*
X166327Y201797D01*
X165944Y201854D01*
X165562Y201919D01*
X165182Y201994D01*
X164804Y202079D01*
X164428Y202172D01*
X164055Y202275D01*
X163684Y202386D01*
X163316Y202507D01*
X162951Y202636D01*
X162590Y202774D01*
X162231Y202921D01*
X161877Y203077D01*
X161526Y203242D01*
X161180Y203414D01*
X160838Y203596D01*
X160500Y203785D01*
X160167Y203983D01*
X159839Y204189D01*
X159516Y204402D01*
X159198Y204624D01*
X158886Y204853D01*
X158580Y205089D01*
X158279Y205334D01*
X157985Y205585D01*
X157696Y205843D01*
X157414Y206109D01*
X157139Y206381D01*
X156870Y206659D01*
X156608Y206945D01*
X156353Y207236D01*
X156106Y207534D01*
X155865Y207837D01*
X155632Y208147D01*
X155407Y208462D01*
X155189Y208782D01*
X154980Y209107D01*
X154778Y209438D01*
X154584Y209773D01*
X154399Y210113D01*
X154222Y210458D01*
X154053Y210806D01*
X153893Y211159D01*
X153742Y211515D01*
X153599Y211875D01*
X153465Y212238D01*
X153340Y212605D01*
X153224Y212974D01*
X153117Y213346D01*
X153019Y213721D01*
X152930Y214098D01*
X152851Y214477D01*
X152780Y214858D01*
X152719Y215240D01*
X152668Y215624D01*
X152625Y216009D01*
X152592Y216394D01*
X152569Y216781D01*
X152555Y217168D01*
X152550Y217555D01*
X152555Y217942D01*
X152569Y218329D01*
X152592Y218716D01*
X152625Y219101D01*
X152668Y219486D01*
X152719Y219870D01*
X152780Y220252D01*
X152851Y220633D01*
X152930Y221012D01*
X153019Y221389D01*
X153117Y221764D01*
X153224Y222136D01*
X153340Y222505D01*
X153465Y222872D01*
X153599Y223235D01*
X153742Y223595D01*
X153893Y223951D01*
X154053Y224304D01*
X154222Y224652D01*
X154399Y224997D01*
X154584Y225337D01*
X154778Y225672D01*
X154980Y226003D01*
X155189Y226328D01*
X155407Y226648D01*
X155632Y226963D01*
X155865Y227273D01*
X156106Y227576D01*
X156353Y227874D01*
X156608Y228165D01*
X156870Y228451D01*
X157139Y228729D01*
X157414Y229001D01*
X157696Y229267D01*
X157985Y229525D01*
X158279Y229776D01*
X158580Y230021D01*
X158886Y230257D01*
X159198Y230486D01*
X159516Y230708D01*
X159839Y230921D01*
X160167Y231127D01*
X160500Y231325D01*
X160838Y231514D01*
X161180Y231696D01*
X161526Y231868D01*
X161877Y232033D01*
X162231Y232189D01*
X162590Y232336D01*
X162951Y232474D01*
X163316Y232603D01*
X163684Y232724D01*
X164055Y232835D01*
X164428Y232938D01*
X164804Y233031D01*
X165182Y233116D01*
X165562Y233191D01*
X165944Y233256D01*
X166327Y233313D01*
X166711Y233360D01*
X167096Y233397D01*
X167483Y233426D01*
X167869Y233444D01*
X168256Y233454D01*
X168644Y233454D01*
X169031Y233444D01*
X169417Y233426D01*
X169804Y233397D01*
X170189Y233360D01*
X170573Y233313D01*
X170956Y233256D01*
X171338Y233191D01*
X171718Y233116D01*
X172096Y233031D01*
X172472Y232938D01*
X172845Y232835D01*
X173216Y232724D01*
X173584Y232603D01*
X173949Y232474D01*
X174310Y232336D01*
X174669Y232189D01*
X175023Y232033D01*
X175374Y231868D01*
X175720Y231696D01*
X176062Y231514D01*
X176400Y231325D01*
X176733Y231127D01*
X177061Y230921D01*
X177384Y230708D01*
X177702Y230486D01*
X178014Y230257D01*
X178320Y230021D01*
X178621Y229776D01*
X178915Y229525D01*
X179204Y229267D01*
X179486Y229001D01*
X179761Y228729D01*
X180030Y228451D01*
X180292Y228165D01*
X180547Y227874D01*
X180794Y227576D01*
X181035Y227273D01*
X181268Y226963D01*
X181493Y226648D01*
X181711Y226328D01*
X181920Y226003D01*
X182122Y225672D01*
X182316Y225337D01*
X182501Y224997D01*
X182678Y224652D01*
X182847Y224304D01*
X183007Y223951D01*
X183158Y223595D01*
X183301Y223235D01*
X183435Y222872D01*
X183560Y222505D01*
X183676Y222136D01*
X183783Y221764D01*
X183881Y221389D01*
X183970Y221012D01*
X184049Y220633D01*
X184120Y220252D01*
X184181Y219870D01*
X184232Y219486D01*
X184275Y219101D01*
X184308Y218716D01*
X184331Y218329D01*
X184345Y217942D01*
X184350Y217555D01*
D14*
X168450Y196555D02*
X168494Y196553D01*
X168537Y196547D01*
X168579Y196538D01*
X168621Y196525D01*
X168661Y196508D01*
X168700Y196488D01*
X168737Y196465D01*
X168771Y196438D01*
X168804Y196409D01*
X168833Y196376D01*
X168860Y196342D01*
X168883Y196305D01*
X168903Y196266D01*
X168920Y196226D01*
X168933Y196184D01*
X168942Y196142D01*
X168948Y196099D01*
X168950Y196055D01*
X168948Y196011D01*
X168942Y195968D01*
X168933Y195926D01*
X168920Y195884D01*
X168903Y195844D01*
X168883Y195805D01*
X168860Y195768D01*
X168833Y195734D01*
X168804Y195701D01*
X168771Y195672D01*
X168737Y195645D01*
X168700Y195622D01*
X168661Y195602D01*
X168621Y195585D01*
X168579Y195572D01*
X168537Y195563D01*
X168494Y195557D01*
X168450Y195555D01*
X168406Y195557D01*
X168363Y195563D01*
X168321Y195572D01*
X168279Y195585D01*
X168239Y195602D01*
X168200Y195622D01*
X168163Y195645D01*
X168129Y195672D01*
X168096Y195701D01*
X168067Y195734D01*
X168040Y195768D01*
X168017Y195805D01*
X167997Y195844D01*
X167980Y195884D01*
X167967Y195926D01*
X167958Y195968D01*
X167952Y196011D01*
X167950Y196055D01*
X167952Y196099D01*
X167958Y196142D01*
X167967Y196184D01*
X167980Y196226D01*
X167997Y196266D01*
X168017Y196305D01*
X168040Y196342D01*
X168067Y196376D01*
X168096Y196409D01*
X168129Y196438D01*
X168163Y196465D01*
X168200Y196488D01*
X168239Y196508D01*
X168279Y196525D01*
X168321Y196538D01*
X168363Y196547D01*
X168406Y196553D01*
X168450Y196555D01*
D10*
X126258Y223509D02*
X126253Y223122D01*
X126239Y222735D01*
X126216Y222348D01*
X126183Y221963D01*
X126140Y221578D01*
X126089Y221194D01*
X126028Y220812D01*
X125957Y220431D01*
X125878Y220052D01*
X125789Y219675D01*
X125691Y219300D01*
X125584Y218928D01*
X125468Y218559D01*
X125343Y218192D01*
X125209Y217829D01*
X125066Y217469D01*
X124915Y217113D01*
X124755Y216760D01*
X124586Y216412D01*
X124409Y216067D01*
X124224Y215727D01*
X124030Y215392D01*
X123828Y215061D01*
X123619Y214736D01*
X123401Y214416D01*
X123176Y214101D01*
X122943Y213791D01*
X122702Y213488D01*
X122455Y213190D01*
X122200Y212899D01*
X121938Y212613D01*
X121669Y212335D01*
X121394Y212063D01*
X121112Y211797D01*
X120823Y211539D01*
X120529Y211288D01*
X120228Y211043D01*
X119922Y210807D01*
X119610Y210578D01*
X119292Y210356D01*
X118969Y210143D01*
X118641Y209937D01*
X118308Y209739D01*
X117970Y209550D01*
X117628Y209368D01*
X117282Y209196D01*
X116931Y209031D01*
X116577Y208875D01*
X116218Y208728D01*
X115857Y208590D01*
X115492Y208461D01*
X115124Y208340D01*
X114753Y208229D01*
X114380Y208126D01*
X114004Y208033D01*
X113626Y207948D01*
X113246Y207873D01*
X112864Y207808D01*
X112481Y207751D01*
X112097Y207704D01*
X111712Y207667D01*
X111325Y207638D01*
X110939Y207620D01*
X110552Y207610D01*
X110164Y207610D01*
X109777Y207620D01*
X109391Y207638D01*
X109004Y207667D01*
X108619Y207704D01*
X108235Y207751D01*
X107852Y207808D01*
X107470Y207873D01*
X107090Y207948D01*
X106712Y208033D01*
X106336Y208126D01*
X105963Y208229D01*
X105592Y208340D01*
X105224Y208461D01*
X104859Y208590D01*
X104498Y208728D01*
X104139Y208875D01*
X103785Y209031D01*
X103434Y209196D01*
X103088Y209368D01*
X102746Y209550D01*
X102408Y209739D01*
X102075Y209937D01*
X101747Y210143D01*
X101424Y210356D01*
X101106Y210578D01*
X100794Y210807D01*
X100488Y211043D01*
X100187Y211288D01*
X99893Y211539D01*
X99604Y211797D01*
X99322Y212063D01*
X99047Y212335D01*
X98778Y212613D01*
X98516Y212899D01*
X98261Y213190D01*
X98014Y213488D01*
X97773Y213791D01*
X97540Y214101D01*
X97315Y214416D01*
X97097Y214736D01*
X96888Y215061D01*
X96686Y215392D01*
X96492Y215727D01*
X96307Y216067D01*
X96130Y216412D01*
X95961Y216760D01*
X95801Y217113D01*
X95650Y217469D01*
X95507Y217829D01*
X95373Y218192D01*
X95248Y218559D01*
X95132Y218928D01*
X95025Y219300D01*
X94927Y219675D01*
X94838Y220052D01*
X94759Y220431D01*
X94688Y220812D01*
X94627Y221194D01*
X94576Y221578D01*
X94533Y221963D01*
X94500Y222348D01*
X94477Y222735D01*
X94463Y223122D01*
X94458Y223509D01*
X94463Y223896D01*
X94477Y224283D01*
X94500Y224670D01*
X94533Y225055D01*
X94576Y225440D01*
X94627Y225824D01*
X94688Y226206D01*
X94759Y226587D01*
X94838Y226966D01*
X94927Y227343D01*
X95025Y227718D01*
X95132Y228090D01*
X95248Y228459D01*
X95373Y228826D01*
X95507Y229189D01*
X95650Y229549D01*
X95801Y229905D01*
X95961Y230258D01*
X96130Y230606D01*
X96307Y230951D01*
X96492Y231291D01*
X96686Y231626D01*
X96888Y231957D01*
X97097Y232282D01*
X97315Y232602D01*
X97540Y232917D01*
X97773Y233227D01*
X98014Y233530D01*
X98261Y233828D01*
X98516Y234119D01*
X98778Y234405D01*
X99047Y234683D01*
X99322Y234955D01*
X99604Y235221D01*
X99893Y235479D01*
X100187Y235730D01*
X100488Y235975D01*
X100794Y236211D01*
X101106Y236440D01*
X101424Y236662D01*
X101747Y236875D01*
X102075Y237081D01*
X102408Y237279D01*
X102746Y237468D01*
X103088Y237650D01*
X103434Y237822D01*
X103785Y237987D01*
X104139Y238143D01*
X104498Y238290D01*
X104859Y238428D01*
X105224Y238557D01*
X105592Y238678D01*
X105963Y238789D01*
X106336Y238892D01*
X106712Y238985D01*
X107090Y239070D01*
X107470Y239145D01*
X107852Y239210D01*
X108235Y239267D01*
X108619Y239314D01*
X109004Y239351D01*
X109391Y239380D01*
X109777Y239398D01*
X110164Y239408D01*
X110552Y239408D01*
X110939Y239398D01*
X111325Y239380D01*
X111712Y239351D01*
X112097Y239314D01*
X112481Y239267D01*
X112864Y239210D01*
X113246Y239145D01*
X113626Y239070D01*
X114004Y238985D01*
X114380Y238892D01*
X114753Y238789D01*
X115124Y238678D01*
X115492Y238557D01*
X115857Y238428D01*
X116218Y238290D01*
X116577Y238143D01*
X116931Y237987D01*
X117282Y237822D01*
X117628Y237650D01*
X117970Y237468D01*
X118308Y237279D01*
X118641Y237081D01*
X118969Y236875D01*
X119292Y236662D01*
X119610Y236440D01*
X119922Y236211D01*
X120228Y235975D01*
X120529Y235730D01*
X120823Y235479D01*
X121112Y235221D01*
X121394Y234955D01*
X121669Y234683D01*
X121938Y234405D01*
X122200Y234119D01*
X122455Y233828D01*
X122702Y233530D01*
X122943Y233227D01*
X123176Y232917D01*
X123401Y232602D01*
X123619Y232282D01*
X123828Y231957D01*
X124030Y231626D01*
X124224Y231291D01*
X124409Y230951D01*
X124586Y230606D01*
X124755Y230258D01*
X124915Y229905D01*
X125066Y229549D01*
X125209Y229189D01*
X125343Y228826D01*
X125468Y228459D01*
X125584Y228090D01*
X125691Y227718D01*
X125789Y227343D01*
X125878Y226966D01*
X125957Y226587D01*
X126028Y226206D01*
X126089Y225824D01*
X126140Y225440D01*
X126183Y225055D01*
X126216Y224670D01*
X126239Y224283D01*
X126253Y223896D01*
X126258Y223509D01*
D14*
X110358Y202509D02*
X110402Y202507D01*
X110445Y202501D01*
X110487Y202492D01*
X110529Y202479D01*
X110569Y202462D01*
X110608Y202442D01*
X110645Y202419D01*
X110679Y202392D01*
X110712Y202363D01*
X110741Y202330D01*
X110768Y202296D01*
X110791Y202259D01*
X110811Y202220D01*
X110828Y202180D01*
X110841Y202138D01*
X110850Y202096D01*
X110856Y202053D01*
X110858Y202009D01*
X110856Y201965D01*
X110850Y201922D01*
X110841Y201880D01*
X110828Y201838D01*
X110811Y201798D01*
X110791Y201759D01*
X110768Y201722D01*
X110741Y201688D01*
X110712Y201655D01*
X110679Y201626D01*
X110645Y201599D01*
X110608Y201576D01*
X110569Y201556D01*
X110529Y201539D01*
X110487Y201526D01*
X110445Y201517D01*
X110402Y201511D01*
X110358Y201509D01*
X110314Y201511D01*
X110271Y201517D01*
X110229Y201526D01*
X110187Y201539D01*
X110147Y201556D01*
X110108Y201576D01*
X110071Y201599D01*
X110037Y201626D01*
X110004Y201655D01*
X109975Y201688D01*
X109948Y201722D01*
X109925Y201759D01*
X109905Y201798D01*
X109888Y201838D01*
X109875Y201880D01*
X109866Y201922D01*
X109860Y201965D01*
X109858Y202009D01*
X109860Y202053D01*
X109866Y202096D01*
X109875Y202138D01*
X109888Y202180D01*
X109905Y202220D01*
X109925Y202259D01*
X109948Y202296D01*
X109975Y202330D01*
X110004Y202363D01*
X110037Y202392D01*
X110071Y202419D01*
X110108Y202442D01*
X110147Y202462D01*
X110187Y202479D01*
X110229Y202492D01*
X110271Y202501D01*
X110314Y202507D01*
X110358Y202509D01*
D10*
X94590Y422910D02*
X94595Y422523D01*
X94609Y422136D01*
X94632Y421749D01*
X94665Y421364D01*
X94708Y420979D01*
X94759Y420595D01*
X94820Y420213D01*
X94891Y419832D01*
X94970Y419453D01*
X95059Y419076D01*
X95157Y418701D01*
X95264Y418329D01*
X95380Y417960D01*
X95505Y417593D01*
X95639Y417230D01*
X95782Y416870D01*
X95933Y416514D01*
X96093Y416161D01*
X96262Y415813D01*
X96439Y415468D01*
X96624Y415128D01*
X96818Y414793D01*
X97020Y414462D01*
X97229Y414137D01*
X97447Y413817D01*
X97672Y413502D01*
X97905Y413192D01*
X98146Y412889D01*
X98393Y412591D01*
X98648Y412300D01*
X98910Y412014D01*
X99179Y411736D01*
X99454Y411464D01*
X99736Y411198D01*
X100025Y410940D01*
X100319Y410689D01*
X100620Y410444D01*
X100926Y410208D01*
X101238Y409979D01*
X101556Y409757D01*
X101879Y409544D01*
X102207Y409338D01*
X102540Y409140D01*
X102878Y408951D01*
X103220Y408769D01*
X103566Y408597D01*
X103917Y408432D01*
X104271Y408276D01*
X104630Y408129D01*
X104991Y407991D01*
X105356Y407862D01*
X105724Y407741D01*
X106095Y407630D01*
X106468Y407527D01*
X106844Y407434D01*
X107222Y407349D01*
X107602Y407274D01*
X107984Y407209D01*
X108367Y407152D01*
X108751Y407105D01*
X109136Y407068D01*
X109523Y407039D01*
X109909Y407021D01*
X110296Y407011D01*
X110684Y407011D01*
X111071Y407021D01*
X111457Y407039D01*
X111844Y407068D01*
X112229Y407105D01*
X112613Y407152D01*
X112996Y407209D01*
X113378Y407274D01*
X113758Y407349D01*
X114136Y407434D01*
X114512Y407527D01*
X114885Y407630D01*
X115256Y407741D01*
X115624Y407862D01*
X115989Y407991D01*
X116350Y408129D01*
X116709Y408276D01*
X117063Y408432D01*
X117414Y408597D01*
X117760Y408769D01*
X118102Y408951D01*
X118440Y409140D01*
X118773Y409338D01*
X119101Y409544D01*
X119424Y409757D01*
X119742Y409979D01*
X120054Y410208D01*
X120360Y410444D01*
X120661Y410689D01*
X120955Y410940D01*
X121244Y411198D01*
X121526Y411464D01*
X121801Y411736D01*
X122070Y412014D01*
X122332Y412300D01*
X122587Y412591D01*
X122834Y412889D01*
X123075Y413192D01*
X123308Y413502D01*
X123533Y413817D01*
X123751Y414137D01*
X123960Y414462D01*
X124162Y414793D01*
X124356Y415128D01*
X124541Y415468D01*
X124718Y415813D01*
X124887Y416161D01*
X125047Y416514D01*
X125198Y416870D01*
X125341Y417230D01*
X125475Y417593D01*
X125600Y417960D01*
X125716Y418329D01*
X125823Y418701D01*
X125921Y419076D01*
X126010Y419453D01*
X126089Y419832D01*
X126160Y420213D01*
X126221Y420595D01*
X126272Y420979D01*
X126315Y421364D01*
X126348Y421749D01*
X126371Y422136D01*
X126385Y422523D01*
X126390Y422910D01*
X126385Y423297D01*
X126371Y423684D01*
X126348Y424071D01*
X126315Y424456D01*
X126272Y424841D01*
X126221Y425225D01*
X126160Y425607D01*
X126089Y425988D01*
X126010Y426367D01*
X125921Y426744D01*
X125823Y427119D01*
X125716Y427491D01*
X125600Y427860D01*
X125475Y428227D01*
X125341Y428590D01*
X125198Y428950D01*
X125047Y429306D01*
X124887Y429659D01*
X124718Y430007D01*
X124541Y430352D01*
X124356Y430692D01*
X124162Y431027D01*
X123960Y431358D01*
X123751Y431683D01*
X123533Y432003D01*
X123308Y432318D01*
X123075Y432628D01*
X122834Y432931D01*
X122587Y433229D01*
X122332Y433520D01*
X122070Y433806D01*
X121801Y434084D01*
X121526Y434356D01*
X121244Y434622D01*
X120955Y434880D01*
X120661Y435131D01*
X120360Y435376D01*
X120054Y435612D01*
X119742Y435841D01*
X119424Y436063D01*
X119101Y436276D01*
X118773Y436482D01*
X118440Y436680D01*
X118102Y436869D01*
X117760Y437051D01*
X117414Y437223D01*
X117063Y437388D01*
X116709Y437544D01*
X116350Y437691D01*
X115989Y437829D01*
X115624Y437958D01*
X115256Y438079D01*
X114885Y438190D01*
X114512Y438293D01*
X114136Y438386D01*
X113758Y438471D01*
X113378Y438546D01*
X112996Y438611D01*
X112613Y438668D01*
X112229Y438715D01*
X111844Y438752D01*
X111457Y438781D01*
X111071Y438799D01*
X110684Y438809D01*
X110296Y438809D01*
X109909Y438799D01*
X109523Y438781D01*
X109136Y438752D01*
X108751Y438715D01*
X108367Y438668D01*
X107984Y438611D01*
X107602Y438546D01*
X107222Y438471D01*
X106844Y438386D01*
X106468Y438293D01*
X106095Y438190D01*
X105724Y438079D01*
X105356Y437958D01*
X104991Y437829D01*
X104630Y437691D01*
X104271Y437544D01*
X103917Y437388D01*
X103566Y437223D01*
X103220Y437051D01*
X102878Y436869D01*
X102540Y436680D01*
X102207Y436482D01*
X101879Y436276D01*
X101556Y436063D01*
X101238Y435841D01*
X100926Y435612D01*
X100620Y435376D01*
X100319Y435131D01*
X100025Y434880D01*
X99736Y434622D01*
X99454Y434356D01*
X99179Y434084D01*
X98910Y433806D01*
X98648Y433520D01*
X98393Y433229D01*
X98146Y432931D01*
X97905Y432628D01*
X97672Y432318D01*
X97447Y432003D01*
X97229Y431683D01*
X97020Y431358D01*
X96818Y431027D01*
X96624Y430692D01*
X96439Y430352D01*
X96262Y430007D01*
X96093Y429659D01*
X95933Y429306D01*
X95782Y428950D01*
X95639Y428590D01*
X95505Y428227D01*
X95380Y427860D01*
X95264Y427491D01*
X95157Y427119D01*
X95059Y426744D01*
X94970Y426367D01*
X94891Y425988D01*
X94820Y425607D01*
X94759Y425225D01*
X94708Y424841D01*
X94665Y424456D01*
X94632Y424071D01*
X94609Y423684D01*
X94595Y423297D01*
X94590Y422910D01*
D14*
X110490Y401910D02*
X110534Y401908D01*
X110577Y401902D01*
X110619Y401893D01*
X110661Y401880D01*
X110701Y401863D01*
X110740Y401843D01*
X110777Y401820D01*
X110811Y401793D01*
X110844Y401764D01*
X110873Y401731D01*
X110900Y401697D01*
X110923Y401660D01*
X110943Y401621D01*
X110960Y401581D01*
X110973Y401539D01*
X110982Y401497D01*
X110988Y401454D01*
X110990Y401410D01*
X110988Y401366D01*
X110982Y401323D01*
X110973Y401281D01*
X110960Y401239D01*
X110943Y401199D01*
X110923Y401160D01*
X110900Y401123D01*
X110873Y401089D01*
X110844Y401056D01*
X110811Y401027D01*
X110777Y401000D01*
X110740Y400977D01*
X110701Y400957D01*
X110661Y400940D01*
X110619Y400927D01*
X110577Y400918D01*
X110534Y400912D01*
X110490Y400910D01*
X110446Y400912D01*
X110403Y400918D01*
X110361Y400927D01*
X110319Y400940D01*
X110279Y400957D01*
X110240Y400977D01*
X110203Y401000D01*
X110169Y401027D01*
X110136Y401056D01*
X110107Y401089D01*
X110080Y401123D01*
X110057Y401160D01*
X110037Y401199D01*
X110020Y401239D01*
X110007Y401281D01*
X109998Y401323D01*
X109992Y401366D01*
X109990Y401410D01*
X109992Y401454D01*
X109998Y401497D01*
X110007Y401539D01*
X110020Y401581D01*
X110037Y401621D01*
X110057Y401660D01*
X110080Y401697D01*
X110107Y401731D01*
X110136Y401764D01*
X110169Y401793D01*
X110203Y401820D01*
X110240Y401843D01*
X110279Y401863D01*
X110319Y401880D01*
X110361Y401893D01*
X110403Y401902D01*
X110446Y401908D01*
X110490Y401910D01*
D10*
X124630Y278930D02*
X124625Y278543D01*
X124611Y278156D01*
X124588Y277769D01*
X124555Y277384D01*
X124512Y276999D01*
X124461Y276615D01*
X124400Y276233D01*
X124329Y275852D01*
X124250Y275473D01*
X124161Y275096D01*
X124063Y274721D01*
X123956Y274349D01*
X123840Y273980D01*
X123715Y273613D01*
X123581Y273250D01*
X123438Y272890D01*
X123287Y272534D01*
X123127Y272181D01*
X122958Y271833D01*
X122781Y271488D01*
X122596Y271148D01*
X122402Y270813D01*
X122200Y270482D01*
X121991Y270157D01*
X121773Y269837D01*
X121548Y269522D01*
X121315Y269212D01*
X121074Y268909D01*
X120827Y268611D01*
X120572Y268320D01*
X120310Y268034D01*
X120041Y267756D01*
X119766Y267484D01*
X119484Y267218D01*
X119195Y266960D01*
X118901Y266709D01*
X118600Y266464D01*
X118294Y266228D01*
X117982Y265999D01*
X117664Y265777D01*
X117341Y265564D01*
X117013Y265358D01*
X116680Y265160D01*
X116342Y264971D01*
X116000Y264789D01*
X115654Y264617D01*
X115303Y264452D01*
X114949Y264296D01*
X114590Y264149D01*
X114229Y264011D01*
X113864Y263882D01*
X113496Y263761D01*
X113125Y263650D01*
X112752Y263547D01*
X112376Y263454D01*
X111998Y263369D01*
X111618Y263294D01*
X111236Y263229D01*
X110853Y263172D01*
X110469Y263125D01*
X110084Y263088D01*
X109697Y263059D01*
X109311Y263041D01*
X108924Y263031D01*
X108536Y263031D01*
X108149Y263041D01*
X107763Y263059D01*
X107376Y263088D01*
X106991Y263125D01*
X106607Y263172D01*
X106224Y263229D01*
X105842Y263294D01*
X105462Y263369D01*
X105084Y263454D01*
X104708Y263547D01*
X104335Y263650D01*
X103964Y263761D01*
X103596Y263882D01*
X103231Y264011D01*
X102870Y264149D01*
X102511Y264296D01*
X102157Y264452D01*
X101806Y264617D01*
X101460Y264789D01*
X101118Y264971D01*
X100780Y265160D01*
X100447Y265358D01*
X100119Y265564D01*
X99796Y265777D01*
X99478Y265999D01*
X99166Y266228D01*
X98860Y266464D01*
X98559Y266709D01*
X98265Y266960D01*
X97976Y267218D01*
X97694Y267484D01*
X97419Y267756D01*
X97150Y268034D01*
X96888Y268320D01*
X96633Y268611D01*
X96386Y268909D01*
X96145Y269212D01*
X95912Y269522D01*
X95687Y269837D01*
X95469Y270157D01*
X95260Y270482D01*
X95058Y270813D01*
X94864Y271148D01*
X94679Y271488D01*
X94502Y271833D01*
X94333Y272181D01*
X94173Y272534D01*
X94022Y272890D01*
X93879Y273250D01*
X93745Y273613D01*
X93620Y273980D01*
X93504Y274349D01*
X93397Y274721D01*
X93299Y275096D01*
X93210Y275473D01*
X93131Y275852D01*
X93060Y276233D01*
X92999Y276615D01*
X92948Y276999D01*
X92905Y277384D01*
X92872Y277769D01*
X92849Y278156D01*
X92835Y278543D01*
X92830Y278930D01*
X92835Y279317D01*
X92849Y279704D01*
X92872Y280091D01*
X92905Y280476D01*
X92948Y280861D01*
X92999Y281245D01*
X93060Y281627D01*
X93131Y282008D01*
X93210Y282387D01*
X93299Y282764D01*
X93397Y283139D01*
X93504Y283511D01*
X93620Y283880D01*
X93745Y284247D01*
X93879Y284610D01*
X94022Y284970D01*
X94173Y285326D01*
X94333Y285679D01*
X94502Y286027D01*
X94679Y286372D01*
X94864Y286712D01*
X95058Y287047D01*
X95260Y287378D01*
X95469Y287703D01*
X95687Y288023D01*
X95912Y288338D01*
X96145Y288648D01*
X96386Y288951D01*
X96633Y289249D01*
X96888Y289540D01*
X97150Y289826D01*
X97419Y290104D01*
X97694Y290376D01*
X97976Y290642D01*
X98265Y290900D01*
X98559Y291151D01*
X98860Y291396D01*
X99166Y291632D01*
X99478Y291861D01*
X99796Y292083D01*
X100119Y292296D01*
X100447Y292502D01*
X100780Y292700D01*
X101118Y292889D01*
X101460Y293071D01*
X101806Y293243D01*
X102157Y293408D01*
X102511Y293564D01*
X102870Y293711D01*
X103231Y293849D01*
X103596Y293978D01*
X103964Y294099D01*
X104335Y294210D01*
X104708Y294313D01*
X105084Y294406D01*
X105462Y294491D01*
X105842Y294566D01*
X106224Y294631D01*
X106607Y294688D01*
X106991Y294735D01*
X107376Y294772D01*
X107763Y294801D01*
X108149Y294819D01*
X108536Y294829D01*
X108924Y294829D01*
X109311Y294819D01*
X109697Y294801D01*
X110084Y294772D01*
X110469Y294735D01*
X110853Y294688D01*
X111236Y294631D01*
X111618Y294566D01*
X111998Y294491D01*
X112376Y294406D01*
X112752Y294313D01*
X113125Y294210D01*
X113496Y294099D01*
X113864Y293978D01*
X114229Y293849D01*
X114590Y293711D01*
X114949Y293564D01*
X115303Y293408D01*
X115654Y293243D01*
X116000Y293071D01*
X116342Y292889D01*
X116680Y292700D01*
X117013Y292502D01*
X117341Y292296D01*
X117664Y292083D01*
X117982Y291861D01*
X118294Y291632D01*
X118600Y291396D01*
X118901Y291151D01*
X119195Y290900D01*
X119484Y290642D01*
X119766Y290376D01*
X120041Y290104D01*
X120310Y289826D01*
X120572Y289540D01*
X120827Y289249D01*
X121074Y288951D01*
X121315Y288648D01*
X121548Y288338D01*
X121773Y288023D01*
X121991Y287703D01*
X122200Y287378D01*
X122402Y287047D01*
X122596Y286712D01*
X122781Y286372D01*
X122958Y286027D01*
X123127Y285679D01*
X123287Y285326D01*
X123438Y284970D01*
X123581Y284610D01*
X123715Y284247D01*
X123840Y283880D01*
X123956Y283511D01*
X124063Y283139D01*
X124161Y282764D01*
X124250Y282387D01*
X124329Y282008D01*
X124400Y281627D01*
X124461Y281245D01*
X124512Y280861D01*
X124555Y280476D01*
X124588Y280091D01*
X124611Y279704D01*
X124625Y279317D01*
X124630Y278930D01*
D14*
X108730Y257930D02*
X108774Y257928D01*
X108817Y257922D01*
X108859Y257913D01*
X108901Y257900D01*
X108941Y257883D01*
X108980Y257863D01*
X109017Y257840D01*
X109051Y257813D01*
X109084Y257784D01*
X109113Y257751D01*
X109140Y257717D01*
X109163Y257680D01*
X109183Y257641D01*
X109200Y257601D01*
X109213Y257559D01*
X109222Y257517D01*
X109228Y257474D01*
X109230Y257430D01*
X109228Y257386D01*
X109222Y257343D01*
X109213Y257301D01*
X109200Y257259D01*
X109183Y257219D01*
X109163Y257180D01*
X109140Y257143D01*
X109113Y257109D01*
X109084Y257076D01*
X109051Y257047D01*
X109017Y257020D01*
X108980Y256997D01*
X108941Y256977D01*
X108901Y256960D01*
X108859Y256947D01*
X108817Y256938D01*
X108774Y256932D01*
X108730Y256930D01*
X108686Y256932D01*
X108643Y256938D01*
X108601Y256947D01*
X108559Y256960D01*
X108519Y256977D01*
X108480Y256997D01*
X108443Y257020D01*
X108409Y257047D01*
X108376Y257076D01*
X108347Y257109D01*
X108320Y257143D01*
X108297Y257180D01*
X108277Y257219D01*
X108260Y257259D01*
X108247Y257301D01*
X108238Y257343D01*
X108232Y257386D01*
X108230Y257430D01*
X108232Y257474D01*
X108238Y257517D01*
X108247Y257559D01*
X108260Y257601D01*
X108277Y257641D01*
X108297Y257680D01*
X108320Y257717D01*
X108347Y257751D01*
X108376Y257784D01*
X108409Y257813D01*
X108443Y257840D01*
X108480Y257863D01*
X108519Y257883D01*
X108559Y257900D01*
X108601Y257913D01*
X108643Y257922D01*
X108686Y257928D01*
X108730Y257930D01*
D10*
X212700Y-77470D02*
X212705Y-77857D01*
X212719Y-78244D01*
X212742Y-78631D01*
X212775Y-79016D01*
X212818Y-79401D01*
X212869Y-79785D01*
X212930Y-80167D01*
X213001Y-80548D01*
X213080Y-80927D01*
X213169Y-81304D01*
X213267Y-81679D01*
X213374Y-82051D01*
X213490Y-82420D01*
X213615Y-82787D01*
X213749Y-83150D01*
X213892Y-83510D01*
X214043Y-83866D01*
X214203Y-84219D01*
X214372Y-84567D01*
X214549Y-84912D01*
X214734Y-85252D01*
X214928Y-85587D01*
X215130Y-85918D01*
X215339Y-86243D01*
X215557Y-86563D01*
X215782Y-86878D01*
X216015Y-87188D01*
X216256Y-87491D01*
X216503Y-87789D01*
X216758Y-88080D01*
X217020Y-88366D01*
X217289Y-88644D01*
X217564Y-88916D01*
X217846Y-89182D01*
X218135Y-89440D01*
X218429Y-89691D01*
X218730Y-89936D01*
X219036Y-90172D01*
X219348Y-90401D01*
X219666Y-90623D01*
X219989Y-90836D01*
X220317Y-91042D01*
X220650Y-91240D01*
X220988Y-91429D01*
X221330Y-91611D01*
X221676Y-91783D01*
X222027Y-91948D01*
X222381Y-92104D01*
X222740Y-92251D01*
X223101Y-92389D01*
X223466Y-92518D01*
X223834Y-92639D01*
X224205Y-92750D01*
X224578Y-92853D01*
X224954Y-92946D01*
X225332Y-93031D01*
X225712Y-93106D01*
X226094Y-93171D01*
X226477Y-93228D01*
X226861Y-93275D01*
X227246Y-93312D01*
X227633Y-93341D01*
X228019Y-93359D01*
X228406Y-93369D01*
X228794Y-93369D01*
X229181Y-93359D01*
X229567Y-93341D01*
X229954Y-93312D01*
X230339Y-93275D01*
X230723Y-93228D01*
X231106Y-93171D01*
X231488Y-93106D01*
X231868Y-93031D01*
X232246Y-92946D01*
X232622Y-92853D01*
X232995Y-92750D01*
X233366Y-92639D01*
X233734Y-92518D01*
X234099Y-92389D01*
X234460Y-92251D01*
X234819Y-92104D01*
X235173Y-91948D01*
X235524Y-91783D01*
X235870Y-91611D01*
X236212Y-91429D01*
X236550Y-91240D01*
X236883Y-91042D01*
X237211Y-90836D01*
X237534Y-90623D01*
X237852Y-90401D01*
X238164Y-90172D01*
X238470Y-89936D01*
X238771Y-89691D01*
X239065Y-89440D01*
X239354Y-89182D01*
X239636Y-88916D01*
X239911Y-88644D01*
X240180Y-88366D01*
X240442Y-88080D01*
X240697Y-87789D01*
X240944Y-87491D01*
X241185Y-87188D01*
X241418Y-86878D01*
X241643Y-86563D01*
X241861Y-86243D01*
X242070Y-85918D01*
X242272Y-85587D01*
X242466Y-85252D01*
X242651Y-84912D01*
X242828Y-84567D01*
X242997Y-84219D01*
X243157Y-83866D01*
X243308Y-83510D01*
X243451Y-83150D01*
X243585Y-82787D01*
X243710Y-82420D01*
X243826Y-82051D01*
X243933Y-81679D01*
X244031Y-81304D01*
X244120Y-80927D01*
X244199Y-80548D01*
X244270Y-80167D01*
X244331Y-79785D01*
X244382Y-79401D01*
X244425Y-79016D01*
X244458Y-78631D01*
X244481Y-78244D01*
X244495Y-77857D01*
X244500Y-77470D01*
X244495Y-77083D01*
X244481Y-76696D01*
X244458Y-76309D01*
X244425Y-75924D01*
X244382Y-75539D01*
X244331Y-75155D01*
X244270Y-74773D01*
X244199Y-74392D01*
X244120Y-74013D01*
X244031Y-73636D01*
X243933Y-73261D01*
X243826Y-72889D01*
X243710Y-72520D01*
X243585Y-72153D01*
X243451Y-71790D01*
X243308Y-71430D01*
X243157Y-71074D01*
X242997Y-70721D01*
X242828Y-70373D01*
X242651Y-70028D01*
X242466Y-69688D01*
X242272Y-69353D01*
X242070Y-69022D01*
X241861Y-68697D01*
X241643Y-68377D01*
X241418Y-68062D01*
X241185Y-67752D01*
X240944Y-67449D01*
X240697Y-67151D01*
X240442Y-66860D01*
X240180Y-66574D01*
X239911Y-66296D01*
X239636Y-66024D01*
X239354Y-65758D01*
X239065Y-65500D01*
X238771Y-65249D01*
X238470Y-65004D01*
X238164Y-64768D01*
X237852Y-64539D01*
X237534Y-64317D01*
X237211Y-64104D01*
X236883Y-63898D01*
X236550Y-63700D01*
X236212Y-63511D01*
X235870Y-63329D01*
X235524Y-63157D01*
X235173Y-62992D01*
X234819Y-62836D01*
X234460Y-62689D01*
X234099Y-62551D01*
X233734Y-62422D01*
X233366Y-62301D01*
X232995Y-62190D01*
X232622Y-62087D01*
X232246Y-61994D01*
X231868Y-61909D01*
X231488Y-61834D01*
X231106Y-61769D01*
X230723Y-61712D01*
X230339Y-61665D01*
X229954Y-61628D01*
X229567Y-61599D01*
X229181Y-61581D01*
X228794Y-61571D01*
X228406Y-61571D01*
X228019Y-61581D01*
X227633Y-61599D01*
X227246Y-61628D01*
X226861Y-61665D01*
X226477Y-61712D01*
X226094Y-61769D01*
X225712Y-61834D01*
X225332Y-61909D01*
X224954Y-61994D01*
X224578Y-62087D01*
X224205Y-62190D01*
X223834Y-62301D01*
X223466Y-62422D01*
X223101Y-62551D01*
X222740Y-62689D01*
X222381Y-62836D01*
X222027Y-62992D01*
X221676Y-63157D01*
X221330Y-63329D01*
X220988Y-63511D01*
X220650Y-63700D01*
X220317Y-63898D01*
X219989Y-64104D01*
X219666Y-64317D01*
X219348Y-64539D01*
X219036Y-64768D01*
X218730Y-65004D01*
X218429Y-65249D01*
X218135Y-65500D01*
X217846Y-65758D01*
X217564Y-66024D01*
X217289Y-66296D01*
X217020Y-66574D01*
X216758Y-66860D01*
X216503Y-67151D01*
X216256Y-67449D01*
X216015Y-67752D01*
X215782Y-68062D01*
X215557Y-68377D01*
X215339Y-68697D01*
X215130Y-69022D01*
X214928Y-69353D01*
X214734Y-69688D01*
X214549Y-70028D01*
X214372Y-70373D01*
X214203Y-70721D01*
X214043Y-71074D01*
X213892Y-71430D01*
X213749Y-71790D01*
X213615Y-72153D01*
X213490Y-72520D01*
X213374Y-72889D01*
X213267Y-73261D01*
X213169Y-73636D01*
X213080Y-74013D01*
X213001Y-74392D01*
X212930Y-74773D01*
X212869Y-75155D01*
X212818Y-75539D01*
X212775Y-75924D01*
X212742Y-76309D01*
X212719Y-76696D01*
X212705Y-77083D01*
X212700Y-77470D01*
D14*
X228600Y-98470D02*
X228644Y-98472D01*
X228687Y-98478D01*
X228729Y-98487D01*
X228771Y-98500D01*
X228811Y-98517D01*
X228850Y-98537D01*
X228887Y-98560D01*
X228921Y-98587D01*
X228954Y-98616D01*
X228983Y-98649D01*
X229010Y-98683D01*
X229033Y-98720D01*
X229053Y-98759D01*
X229070Y-98799D01*
X229083Y-98841D01*
X229092Y-98883D01*
X229098Y-98926D01*
X229100Y-98970D01*
X229098Y-99014D01*
X229092Y-99057D01*
X229083Y-99099D01*
X229070Y-99141D01*
X229053Y-99181D01*
X229033Y-99220D01*
X229010Y-99257D01*
X228983Y-99291D01*
X228954Y-99324D01*
X228921Y-99353D01*
X228887Y-99380D01*
X228850Y-99403D01*
X228811Y-99423D01*
X228771Y-99440D01*
X228729Y-99453D01*
X228687Y-99462D01*
X228644Y-99468D01*
X228600Y-99470D01*
X228556Y-99468D01*
X228513Y-99462D01*
X228471Y-99453D01*
X228429Y-99440D01*
X228389Y-99423D01*
X228350Y-99403D01*
X228313Y-99380D01*
X228279Y-99353D01*
X228246Y-99324D01*
X228217Y-99291D01*
X228190Y-99257D01*
X228167Y-99220D01*
X228147Y-99181D01*
X228130Y-99141D01*
X228117Y-99099D01*
X228108Y-99057D01*
X228102Y-99014D01*
X228100Y-98970D01*
X228102Y-98926D01*
X228108Y-98883D01*
X228117Y-98841D01*
X228130Y-98799D01*
X228147Y-98759D01*
X228167Y-98720D01*
X228190Y-98683D01*
X228217Y-98649D01*
X228246Y-98616D01*
X228279Y-98587D01*
X228313Y-98560D01*
X228350Y-98537D01*
X228389Y-98517D01*
X228429Y-98500D01*
X228471Y-98487D01*
X228513Y-98478D01*
X228556Y-98472D01*
X228600Y-98470D01*
D10*
X38760Y0D02*
X38755Y-387D01*
X38741Y-774D01*
X38718Y-1161D01*
X38685Y-1546D01*
X38642Y-1931D01*
X38591Y-2315D01*
X38530Y-2697D01*
X38459Y-3078D01*
X38380Y-3457D01*
X38291Y-3834D01*
X38193Y-4209D01*
X38086Y-4581D01*
X37970Y-4950D01*
X37845Y-5317D01*
X37711Y-5680D01*
X37568Y-6040D01*
X37417Y-6396D01*
X37257Y-6749D01*
X37088Y-7097D01*
X36911Y-7442D01*
X36726Y-7782D01*
X36532Y-8117D01*
X36330Y-8448D01*
X36121Y-8773D01*
X35903Y-9093D01*
X35678Y-9408D01*
X35445Y-9718D01*
X35204Y-10021D01*
X34957Y-10319D01*
X34702Y-10610D01*
X34440Y-10896D01*
X34171Y-11174D01*
X33896Y-11446D01*
X33614Y-11712D01*
X33325Y-11970D01*
X33031Y-12221D01*
X32730Y-12466D01*
X32424Y-12702D01*
X32112Y-12931D01*
X31794Y-13153D01*
X31471Y-13366D01*
X31143Y-13572D01*
X30810Y-13770D01*
X30472Y-13959D01*
X30130Y-14141D01*
X29784Y-14313D01*
X29433Y-14478D01*
X29079Y-14634D01*
X28720Y-14781D01*
X28359Y-14919D01*
X27994Y-15048D01*
X27626Y-15169D01*
X27255Y-15280D01*
X26882Y-15383D01*
X26506Y-15476D01*
X26128Y-15561D01*
X25748Y-15636D01*
X25366Y-15701D01*
X24983Y-15758D01*
X24599Y-15805D01*
X24214Y-15842D01*
X23827Y-15871D01*
X23441Y-15889D01*
X23054Y-15899D01*
X22666Y-15899D01*
X22279Y-15889D01*
X21893Y-15871D01*
X21506Y-15842D01*
X21121Y-15805D01*
X20737Y-15758D01*
X20354Y-15701D01*
X19972Y-15636D01*
X19592Y-15561D01*
X19214Y-15476D01*
X18838Y-15383D01*
X18465Y-15280D01*
X18094Y-15169D01*
X17726Y-15048D01*
X17361Y-14919D01*
X17000Y-14781D01*
X16641Y-14634D01*
X16287Y-14478D01*
X15936Y-14313D01*
X15590Y-14141D01*
X15248Y-13959D01*
X14910Y-13770D01*
X14577Y-13572D01*
X14249Y-13366D01*
X13926Y-13153D01*
X13608Y-12931D01*
X13296Y-12702D01*
X12990Y-12466D01*
X12689Y-12221D01*
X12395Y-11970D01*
X12106Y-11712D01*
X11824Y-11446D01*
X11549Y-11174D01*
X11280Y-10896D01*
X11018Y-10610D01*
X10763Y-10319D01*
X10516Y-10021D01*
X10275Y-9718D01*
X10042Y-9408D01*
X9817Y-9093D01*
X9599Y-8773D01*
X9390Y-8448D01*
X9188Y-8117D01*
X8994Y-7782D01*
X8809Y-7442D01*
X8632Y-7097D01*
X8463Y-6749D01*
X8303Y-6396D01*
X8152Y-6040D01*
X8009Y-5680D01*
X7875Y-5317D01*
X7750Y-4950D01*
X7634Y-4581D01*
X7527Y-4209D01*
X7429Y-3834D01*
X7340Y-3457D01*
X7261Y-3078D01*
X7190Y-2697D01*
X7129Y-2315D01*
X7078Y-1931D01*
X7035Y-1546D01*
X7002Y-1161D01*
X6979Y-774D01*
X6965Y-387D01*
X6960Y0D01*
X6965Y387D01*
X6979Y774D01*
X7002Y1161D01*
X7035Y1546D01*
X7078Y1931D01*
X7129Y2315D01*
X7190Y2697D01*
X7261Y3078D01*
X7340Y3457D01*
X7429Y3834D01*
X7527Y4209D01*
X7634Y4581D01*
X7750Y4950D01*
X7875Y5317D01*
X8009Y5680D01*
X8152Y6040D01*
X8303Y6396D01*
X8463Y6749D01*
X8632Y7097D01*
X8809Y7442D01*
X8994Y7782D01*
X9188Y8117D01*
X9390Y8448D01*
X9599Y8773D01*
X9817Y9093D01*
X10042Y9408D01*
X10275Y9718D01*
X10516Y10021D01*
X10763Y10319D01*
X11018Y10610D01*
X11280Y10896D01*
X11549Y11174D01*
X11824Y11446D01*
X12106Y11712D01*
X12395Y11970D01*
X12689Y12221D01*
X12990Y12466D01*
X13296Y12702D01*
X13608Y12931D01*
X13926Y13153D01*
X14249Y13366D01*
X14577Y13572D01*
X14910Y13770D01*
X15248Y13959D01*
X15590Y14141D01*
X15936Y14313D01*
X16287Y14478D01*
X16641Y14634D01*
X17000Y14781D01*
X17361Y14919D01*
X17726Y15048D01*
X18094Y15169D01*
X18465Y15280D01*
X18838Y15383D01*
X19214Y15476D01*
X19592Y15561D01*
X19972Y15636D01*
X20354Y15701D01*
X20737Y15758D01*
X21121Y15805D01*
X21506Y15842D01*
X21893Y15871D01*
X22279Y15889D01*
X22666Y15899D01*
X23054Y15899D01*
X23441Y15889D01*
X23827Y15871D01*
X24214Y15842D01*
X24599Y15805D01*
X24983Y15758D01*
X25366Y15701D01*
X25748Y15636D01*
X26128Y15561D01*
X26506Y15476D01*
X26882Y15383D01*
X27255Y15280D01*
X27626Y15169D01*
X27994Y15048D01*
X28359Y14919D01*
X28720Y14781D01*
X29079Y14634D01*
X29433Y14478D01*
X29784Y14313D01*
X30130Y14141D01*
X30472Y13959D01*
X30810Y13770D01*
X31143Y13572D01*
X31471Y13366D01*
X31794Y13153D01*
X32112Y12931D01*
X32424Y12702D01*
X32730Y12466D01*
X33031Y12221D01*
X33325Y11970D01*
X33614Y11712D01*
X33896Y11446D01*
X34171Y11174D01*
X34440Y10896D01*
X34702Y10610D01*
X34957Y10319D01*
X35204Y10021D01*
X35445Y9718D01*
X35678Y9408D01*
X35903Y9093D01*
X36121Y8773D01*
X36330Y8448D01*
X36532Y8117D01*
X36726Y7782D01*
X36911Y7442D01*
X37088Y7097D01*
X37257Y6749D01*
X37417Y6396D01*
X37568Y6040D01*
X37711Y5680D01*
X37845Y5317D01*
X37970Y4950D01*
X38086Y4581D01*
X38193Y4209D01*
X38291Y3834D01*
X38380Y3457D01*
X38459Y3078D01*
X38530Y2697D01*
X38591Y2315D01*
X38642Y1931D01*
X38685Y1546D01*
X38718Y1161D01*
X38741Y774D01*
X38755Y387D01*
X38760Y0D01*
D14*
X22860Y-21000D02*
X22904Y-21002D01*
X22947Y-21008D01*
X22989Y-21017D01*
X23031Y-21030D01*
X23071Y-21047D01*
X23110Y-21067D01*
X23147Y-21090D01*
X23181Y-21117D01*
X23214Y-21146D01*
X23243Y-21179D01*
X23270Y-21213D01*
X23293Y-21250D01*
X23313Y-21289D01*
X23330Y-21329D01*
X23343Y-21371D01*
X23352Y-21413D01*
X23358Y-21456D01*
X23360Y-21500D01*
X23358Y-21544D01*
X23352Y-21587D01*
X23343Y-21629D01*
X23330Y-21671D01*
X23313Y-21711D01*
X23293Y-21750D01*
X23270Y-21787D01*
X23243Y-21821D01*
X23214Y-21854D01*
X23181Y-21883D01*
X23147Y-21910D01*
X23110Y-21933D01*
X23071Y-21953D01*
X23031Y-21970D01*
X22989Y-21983D01*
X22947Y-21992D01*
X22904Y-21998D01*
X22860Y-22000D01*
X22816Y-21998D01*
X22773Y-21992D01*
X22731Y-21983D01*
X22689Y-21970D01*
X22649Y-21953D01*
X22610Y-21933D01*
X22573Y-21910D01*
X22539Y-21883D01*
X22506Y-21854D01*
X22477Y-21821D01*
X22450Y-21787D01*
X22427Y-21750D01*
X22407Y-21711D01*
X22390Y-21671D01*
X22377Y-21629D01*
X22368Y-21587D01*
X22362Y-21544D01*
X22360Y-21500D01*
X22362Y-21456D01*
X22368Y-21413D01*
X22377Y-21371D01*
X22390Y-21329D01*
X22407Y-21289D01*
X22427Y-21250D01*
X22450Y-21213D01*
X22477Y-21179D01*
X22506Y-21146D01*
X22539Y-21117D01*
X22573Y-21090D01*
X22610Y-21067D01*
X22649Y-21047D01*
X22689Y-21030D01*
X22731Y-21017D01*
X22773Y-21008D01*
X22816Y-21002D01*
X22860Y-21000D01*
D10*
X269850Y655320D02*
X269855Y654933D01*
X269869Y654546D01*
X269892Y654159D01*
X269925Y653774D01*
X269968Y653389D01*
X270019Y653005D01*
X270080Y652623D01*
X270151Y652242D01*
X270230Y651863D01*
X270319Y651486D01*
X270417Y651111D01*
X270524Y650739D01*
X270640Y650370D01*
X270765Y650003D01*
X270899Y649640D01*
X271042Y649280D01*
X271193Y648924D01*
X271353Y648571D01*
X271522Y648223D01*
X271699Y647878D01*
X271884Y647538D01*
X272078Y647203D01*
X272280Y646872D01*
X272489Y646547D01*
X272707Y646227D01*
X272932Y645912D01*
X273165Y645602D01*
X273406Y645299D01*
X273653Y645001D01*
X273908Y644710D01*
X274170Y644424D01*
X274439Y644146D01*
X274714Y643874D01*
X274996Y643608D01*
X275285Y643350D01*
X275579Y643099D01*
X275880Y642854D01*
X276186Y642618D01*
X276498Y642389D01*
X276816Y642167D01*
X277139Y641954D01*
X277467Y641748D01*
X277800Y641550D01*
X278138Y641361D01*
X278480Y641179D01*
X278826Y641007D01*
X279177Y640842D01*
X279531Y640686D01*
X279890Y640539D01*
X280251Y640401D01*
X280616Y640272D01*
X280984Y640151D01*
X281355Y640040D01*
X281728Y639937D01*
X282104Y639844D01*
X282482Y639759D01*
X282862Y639684D01*
X283244Y639619D01*
X283627Y639562D01*
X284011Y639515D01*
X284396Y639478D01*
X284783Y639449D01*
X285169Y639431D01*
X285556Y639421D01*
X285944Y639421D01*
X286331Y639431D01*
X286717Y639449D01*
X287104Y639478D01*
X287489Y639515D01*
X287873Y639562D01*
X288256Y639619D01*
X288638Y639684D01*
X289018Y639759D01*
X289396Y639844D01*
X289772Y639937D01*
X290145Y640040D01*
X290516Y640151D01*
X290884Y640272D01*
X291249Y640401D01*
X291610Y640539D01*
X291969Y640686D01*
X292323Y640842D01*
X292674Y641007D01*
X293020Y641179D01*
X293362Y641361D01*
X293700Y641550D01*
X294033Y641748D01*
X294361Y641954D01*
X294684Y642167D01*
X295002Y642389D01*
X295314Y642618D01*
X295620Y642854D01*
X295921Y643099D01*
X296215Y643350D01*
X296504Y643608D01*
X296786Y643874D01*
X297061Y644146D01*
X297330Y644424D01*
X297592Y644710D01*
X297847Y645001D01*
X298094Y645299D01*
X298335Y645602D01*
X298568Y645912D01*
X298793Y646227D01*
X299011Y646547D01*
X299220Y646872D01*
X299422Y647203D01*
X299616Y647538D01*
X299801Y647878D01*
X299978Y648223D01*
X300147Y648571D01*
X300307Y648924D01*
X300458Y649280D01*
X300601Y649640D01*
X300735Y650003D01*
X300860Y650370D01*
X300976Y650739D01*
X301083Y651111D01*
X301181Y651486D01*
X301270Y651863D01*
X301349Y652242D01*
X301420Y652623D01*
X301481Y653005D01*
X301532Y653389D01*
X301575Y653774D01*
X301608Y654159D01*
X301631Y654546D01*
X301645Y654933D01*
X301650Y655320D01*
X301645Y655707D01*
X301631Y656094D01*
X301608Y656481D01*
X301575Y656866D01*
X301532Y657251D01*
X301481Y657635D01*
X301420Y658017D01*
X301349Y658398D01*
X301270Y658777D01*
X301181Y659154D01*
X301083Y659529D01*
X300976Y659901D01*
X300860Y660270D01*
X300735Y660637D01*
X300601Y661000D01*
X300458Y661360D01*
X300307Y661716D01*
X300147Y662069D01*
X299978Y662417D01*
X299801Y662762D01*
X299616Y663102D01*
X299422Y663437D01*
X299220Y663768D01*
X299011Y664093D01*
X298793Y664413D01*
X298568Y664728D01*
X298335Y665038D01*
X298094Y665341D01*
X297847Y665639D01*
X297592Y665930D01*
X297330Y666216D01*
X297061Y666494D01*
X296786Y666766D01*
X296504Y667032D01*
X296215Y667290D01*
X295921Y667541D01*
X295620Y667786D01*
X295314Y668022D01*
X295002Y668251D01*
X294684Y668473D01*
X294361Y668686D01*
X294033Y668892D01*
X293700Y669090D01*
X293362Y669279D01*
X293020Y669461D01*
X292674Y669633D01*
X292323Y669798D01*
X291969Y669954D01*
X291610Y670101D01*
X291249Y670239D01*
X290884Y670368D01*
X290516Y670489D01*
X290145Y670600D01*
X289772Y670703D01*
X289396Y670796D01*
X289018Y670881D01*
X288638Y670956D01*
X288256Y671021D01*
X287873Y671078D01*
X287489Y671125D01*
X287104Y671162D01*
X286717Y671191D01*
X286331Y671209D01*
X285944Y671219D01*
X285556Y671219D01*
X285169Y671209D01*
X284783Y671191D01*
X284396Y671162D01*
X284011Y671125D01*
X283627Y671078D01*
X283244Y671021D01*
X282862Y670956D01*
X282482Y670881D01*
X282104Y670796D01*
X281728Y670703D01*
X281355Y670600D01*
X280984Y670489D01*
X280616Y670368D01*
X280251Y670239D01*
X279890Y670101D01*
X279531Y669954D01*
X279177Y669798D01*
X278826Y669633D01*
X278480Y669461D01*
X278138Y669279D01*
X277800Y669090D01*
X277467Y668892D01*
X277139Y668686D01*
X276816Y668473D01*
X276498Y668251D01*
X276186Y668022D01*
X275880Y667786D01*
X275579Y667541D01*
X275285Y667290D01*
X274996Y667032D01*
X274714Y666766D01*
X274439Y666494D01*
X274170Y666216D01*
X273908Y665930D01*
X273653Y665639D01*
X273406Y665341D01*
X273165Y665038D01*
X272932Y664728D01*
X272707Y664413D01*
X272489Y664093D01*
X272280Y663768D01*
X272078Y663437D01*
X271884Y663102D01*
X271699Y662762D01*
X271522Y662417D01*
X271353Y662069D01*
X271193Y661716D01*
X271042Y661360D01*
X270899Y661000D01*
X270765Y660637D01*
X270640Y660270D01*
X270524Y659901D01*
X270417Y659529D01*
X270319Y659154D01*
X270230Y658777D01*
X270151Y658398D01*
X270080Y658017D01*
X270019Y657635D01*
X269968Y657251D01*
X269925Y656866D01*
X269892Y656481D01*
X269869Y656094D01*
X269855Y655707D01*
X269850Y655320D01*
D14*
X285750Y634320D02*
X285794Y634318D01*
X285837Y634312D01*
X285879Y634303D01*
X285921Y634290D01*
X285961Y634273D01*
X286000Y634253D01*
X286037Y634230D01*
X286071Y634203D01*
X286104Y634174D01*
X286133Y634141D01*
X286160Y634107D01*
X286183Y634070D01*
X286203Y634031D01*
X286220Y633991D01*
X286233Y633949D01*
X286242Y633907D01*
X286248Y633864D01*
X286250Y633820D01*
X286248Y633776D01*
X286242Y633733D01*
X286233Y633691D01*
X286220Y633649D01*
X286203Y633609D01*
X286183Y633570D01*
X286160Y633533D01*
X286133Y633499D01*
X286104Y633466D01*
X286071Y633437D01*
X286037Y633410D01*
X286000Y633387D01*
X285961Y633367D01*
X285921Y633350D01*
X285879Y633337D01*
X285837Y633328D01*
X285794Y633322D01*
X285750Y633320D01*
X285706Y633322D01*
X285663Y633328D01*
X285621Y633337D01*
X285579Y633350D01*
X285539Y633367D01*
X285500Y633387D01*
X285463Y633410D01*
X285429Y633437D01*
X285396Y633466D01*
X285367Y633499D01*
X285340Y633533D01*
X285317Y633570D01*
X285297Y633609D01*
X285280Y633649D01*
X285267Y633691D01*
X285258Y633733D01*
X285252Y633776D01*
X285250Y633820D01*
X285252Y633864D01*
X285258Y633907D01*
X285267Y633949D01*
X285280Y633991D01*
X285297Y634031D01*
X285317Y634070D01*
X285340Y634107D01*
X285367Y634141D01*
X285396Y634174D01*
X285429Y634203D01*
X285463Y634230D01*
X285500Y634253D01*
X285539Y634273D01*
X285579Y634290D01*
X285621Y634303D01*
X285663Y634312D01*
X285706Y634318D01*
X285750Y634320D01*
D10*
X206400Y483870D02*
X206395Y483483D01*
X206381Y483096D01*
X206358Y482709D01*
X206325Y482324D01*
X206282Y481939D01*
X206231Y481555D01*
X206170Y481173D01*
X206099Y480792D01*
X206020Y480413D01*
X205931Y480036D01*
X205833Y479661D01*
X205726Y479289D01*
X205610Y478920D01*
X205485Y478553D01*
X205351Y478190D01*
X205208Y477830D01*
X205057Y477474D01*
X204897Y477121D01*
X204728Y476773D01*
X204551Y476428D01*
X204366Y476088D01*
X204172Y475753D01*
X203970Y475422D01*
X203761Y475097D01*
X203543Y474777D01*
X203318Y474462D01*
X203085Y474152D01*
X202844Y473849D01*
X202597Y473551D01*
X202342Y473260D01*
X202080Y472974D01*
X201811Y472696D01*
X201536Y472424D01*
X201254Y472158D01*
X200965Y471900D01*
X200671Y471649D01*
X200370Y471404D01*
X200064Y471168D01*
X199752Y470939D01*
X199434Y470717D01*
X199111Y470504D01*
X198783Y470298D01*
X198450Y470100D01*
X198112Y469911D01*
X197770Y469729D01*
X197424Y469557D01*
X197073Y469392D01*
X196719Y469236D01*
X196360Y469089D01*
X195999Y468951D01*
X195634Y468822D01*
X195266Y468701D01*
X194895Y468590D01*
X194522Y468487D01*
X194146Y468394D01*
X193768Y468309D01*
X193388Y468234D01*
X193006Y468169D01*
X192623Y468112D01*
X192239Y468065D01*
X191854Y468028D01*
X191467Y467999D01*
X191081Y467981D01*
X190694Y467971D01*
X190306Y467971D01*
X189919Y467981D01*
X189533Y467999D01*
X189146Y468028D01*
X188761Y468065D01*
X188377Y468112D01*
X187994Y468169D01*
X187612Y468234D01*
X187232Y468309D01*
X186854Y468394D01*
X186478Y468487D01*
X186105Y468590D01*
X185734Y468701D01*
X185366Y468822D01*
X185001Y468951D01*
X184640Y469089D01*
X184281Y469236D01*
X183927Y469392D01*
X183576Y469557D01*
X183230Y469729D01*
X182888Y469911D01*
X182550Y470100D01*
X182217Y470298D01*
X181889Y470504D01*
X181566Y470717D01*
X181248Y470939D01*
X180936Y471168D01*
X180630Y471404D01*
X180329Y471649D01*
X180035Y471900D01*
X179746Y472158D01*
X179464Y472424D01*
X179189Y472696D01*
X178920Y472974D01*
X178658Y473260D01*
X178403Y473551D01*
X178156Y473849D01*
X177915Y474152D01*
X177682Y474462D01*
X177457Y474777D01*
X177239Y475097D01*
X177030Y475422D01*
X176828Y475753D01*
X176634Y476088D01*
X176449Y476428D01*
X176272Y476773D01*
X176103Y477121D01*
X175943Y477474D01*
X175792Y477830D01*
X175649Y478190D01*
X175515Y478553D01*
X175390Y478920D01*
X175274Y479289D01*
X175167Y479661D01*
X175069Y480036D01*
X174980Y480413D01*
X174901Y480792D01*
X174830Y481173D01*
X174769Y481555D01*
X174718Y481939D01*
X174675Y482324D01*
X174642Y482709D01*
X174619Y483096D01*
X174605Y483483D01*
X174600Y483870D01*
X174605Y484257D01*
X174619Y484644D01*
X174642Y485031D01*
X174675Y485416D01*
X174718Y485801D01*
X174769Y486185D01*
X174830Y486567D01*
X174901Y486948D01*
X174980Y487327D01*
X175069Y487704D01*
X175167Y488079D01*
X175274Y488451D01*
X175390Y488820D01*
X175515Y489187D01*
X175649Y489550D01*
X175792Y489910D01*
X175943Y490266D01*
X176103Y490619D01*
X176272Y490967D01*
X176449Y491312D01*
X176634Y491652D01*
X176828Y491987D01*
X177030Y492318D01*
X177239Y492643D01*
X177457Y492963D01*
X177682Y493278D01*
X177915Y493588D01*
X178156Y493891D01*
X178403Y494189D01*
X178658Y494480D01*
X178920Y494766D01*
X179189Y495044D01*
X179464Y495316D01*
X179746Y495582D01*
X180035Y495840D01*
X180329Y496091D01*
X180630Y496336D01*
X180936Y496572D01*
X181248Y496801D01*
X181566Y497023D01*
X181889Y497236D01*
X182217Y497442D01*
X182550Y497640D01*
X182888Y497829D01*
X183230Y498011D01*
X183576Y498183D01*
X183927Y498348D01*
X184281Y498504D01*
X184640Y498651D01*
X185001Y498789D01*
X185366Y498918D01*
X185734Y499039D01*
X186105Y499150D01*
X186478Y499253D01*
X186854Y499346D01*
X187232Y499431D01*
X187612Y499506D01*
X187994Y499571D01*
X188377Y499628D01*
X188761Y499675D01*
X189146Y499712D01*
X189533Y499741D01*
X189919Y499759D01*
X190306Y499769D01*
X190694Y499769D01*
X191081Y499759D01*
X191467Y499741D01*
X191854Y499712D01*
X192239Y499675D01*
X192623Y499628D01*
X193006Y499571D01*
X193388Y499506D01*
X193768Y499431D01*
X194146Y499346D01*
X194522Y499253D01*
X194895Y499150D01*
X195266Y499039D01*
X195634Y498918D01*
X195999Y498789D01*
X196360Y498651D01*
X196719Y498504D01*
X197073Y498348D01*
X197424Y498183D01*
X197770Y498011D01*
X198112Y497829D01*
X198450Y497640D01*
X198783Y497442D01*
X199111Y497236D01*
X199434Y497023D01*
X199752Y496801D01*
X200064Y496572D01*
X200370Y496336D01*
X200671Y496091D01*
X200965Y495840D01*
X201254Y495582D01*
X201536Y495316D01*
X201811Y495044D01*
X202080Y494766D01*
X202342Y494480D01*
X202597Y494189D01*
X202844Y493891D01*
X203085Y493588D01*
X203318Y493278D01*
X203543Y492963D01*
X203761Y492643D01*
X203970Y492318D01*
X204172Y491987D01*
X204366Y491652D01*
X204551Y491312D01*
X204728Y490967D01*
X204897Y490619D01*
X205057Y490266D01*
X205208Y489910D01*
X205351Y489550D01*
X205485Y489187D01*
X205610Y488820D01*
X205726Y488451D01*
X205833Y488079D01*
X205931Y487704D01*
X206020Y487327D01*
X206099Y486948D01*
X206170Y486567D01*
X206231Y486185D01*
X206282Y485801D01*
X206325Y485416D01*
X206358Y485031D01*
X206381Y484644D01*
X206395Y484257D01*
X206400Y483870D01*
D14*
X190500Y462870D02*
X190544Y462868D01*
X190587Y462862D01*
X190629Y462853D01*
X190671Y462840D01*
X190711Y462823D01*
X190750Y462803D01*
X190787Y462780D01*
X190821Y462753D01*
X190854Y462724D01*
X190883Y462691D01*
X190910Y462657D01*
X190933Y462620D01*
X190953Y462581D01*
X190970Y462541D01*
X190983Y462499D01*
X190992Y462457D01*
X190998Y462414D01*
X191000Y462370D01*
X190998Y462326D01*
X190992Y462283D01*
X190983Y462241D01*
X190970Y462199D01*
X190953Y462159D01*
X190933Y462120D01*
X190910Y462083D01*
X190883Y462049D01*
X190854Y462016D01*
X190821Y461987D01*
X190787Y461960D01*
X190750Y461937D01*
X190711Y461917D01*
X190671Y461900D01*
X190629Y461887D01*
X190587Y461878D01*
X190544Y461872D01*
X190500Y461870D01*
X190456Y461872D01*
X190413Y461878D01*
X190371Y461887D01*
X190329Y461900D01*
X190289Y461917D01*
X190250Y461937D01*
X190213Y461960D01*
X190179Y461987D01*
X190146Y462016D01*
X190117Y462049D01*
X190090Y462083D01*
X190067Y462120D01*
X190047Y462159D01*
X190030Y462199D01*
X190017Y462241D01*
X190008Y462283D01*
X190002Y462326D01*
X190000Y462370D01*
X190002Y462414D01*
X190008Y462457D01*
X190017Y462499D01*
X190030Y462541D01*
X190047Y462581D01*
X190067Y462620D01*
X190090Y462657D01*
X190117Y462691D01*
X190146Y462724D01*
X190179Y462753D01*
X190213Y462780D01*
X190250Y462803D01*
X190289Y462823D01*
X190329Y462840D01*
X190371Y462853D01*
X190413Y462862D01*
X190456Y462868D01*
X190500Y462870D01*
M02*
