G04 EAGLE Gerber RS-274X export*
G75*
%MOMM*%
%FSLAX34Y34*%
%LPD*%
%INTop Paste*%
%IPPOS*%
%AMOC8*
5,1,8,0,0,1.08239X$1,22.5*%
G01*
%ADD10R,1.100000X1.000000*%
%ADD11R,0.600000X1.200000*%
%ADD12R,0.650000X1.545000*%
%ADD13R,1.545000X0.650000*%
%ADD14R,1.000000X1.100000*%
%ADD15R,1.525000X0.650000*%
%ADD16R,2.710000X3.350000*%
%ADD17R,2.200000X6.300000*%
%ADD18R,0.980000X0.870000*%
%ADD19R,1.200000X0.600000*%
%ADD20R,1.050000X0.600000*%
%ADD21R,0.600000X1.250000*%


D10*
X386470Y81280D03*
X403470Y81280D03*
D11*
X421510Y508826D03*
X431010Y508826D03*
X440510Y508826D03*
X440510Y533826D03*
X421510Y533826D03*
D12*
X309880Y488290D03*
X297180Y488290D03*
X284480Y488290D03*
X271780Y488290D03*
X259080Y488290D03*
X246380Y488290D03*
X233680Y488290D03*
X233680Y433730D03*
X246380Y433730D03*
X259080Y433730D03*
X271780Y433730D03*
X284480Y433730D03*
X297180Y433730D03*
X309880Y433730D03*
D13*
X360070Y476250D03*
X360070Y463550D03*
X360070Y450850D03*
X360070Y438150D03*
X360070Y425450D03*
X360070Y412750D03*
X360070Y400050D03*
X414630Y400050D03*
X414630Y412750D03*
X414630Y425450D03*
X414630Y438150D03*
X414630Y450850D03*
X414630Y463550D03*
X414630Y476250D03*
D14*
X368690Y523240D03*
X385690Y523240D03*
X441080Y474980D03*
X458080Y474980D03*
X191770Y607940D03*
X191770Y590940D03*
X394970Y551570D03*
X394970Y568570D03*
X433070Y568435D03*
X433070Y551435D03*
D10*
X230260Y640080D03*
X247260Y640080D03*
X333620Y541020D03*
X316620Y541020D03*
D14*
X314960Y597290D03*
X314960Y614290D03*
D15*
X232200Y617220D03*
X232200Y604520D03*
X232200Y591820D03*
X232200Y579120D03*
X285960Y579120D03*
X285960Y591820D03*
X285960Y604520D03*
X285960Y617220D03*
D16*
X259080Y598170D03*
D17*
X343220Y643890D03*
X383320Y643890D03*
D14*
X347100Y588010D03*
X364100Y588010D03*
X262834Y547141D03*
X279834Y547141D03*
X333620Y565150D03*
X316620Y565150D03*
X185810Y570230D03*
X202810Y570230D03*
D10*
X248040Y83820D03*
X265040Y83820D03*
X320430Y69850D03*
X337430Y69850D03*
D14*
X338700Y-41910D03*
X321700Y-41910D03*
D18*
X170180Y591290D03*
X170180Y607590D03*
D14*
X372060Y377645D03*
X372060Y360645D03*
D10*
X290440Y369570D03*
X273440Y369570D03*
D14*
X248920Y387740D03*
X248920Y404740D03*
D11*
X314350Y377390D03*
X323850Y377390D03*
X333350Y377390D03*
X333350Y402390D03*
X314350Y402390D03*
D19*
X176730Y286360D03*
X176730Y276860D03*
X176730Y267360D03*
X201730Y267360D03*
X201730Y286360D03*
D11*
X268630Y260550D03*
X278130Y260550D03*
X287630Y260550D03*
X287630Y285550D03*
X268630Y285550D03*
D20*
X273480Y412090D03*
X273480Y393090D03*
X295480Y402590D03*
D14*
X331080Y353060D03*
X314080Y353060D03*
X371720Y342900D03*
X354720Y342900D03*
D10*
X220980Y269630D03*
X220980Y286630D03*
X245110Y286630D03*
X245110Y269630D03*
X335280Y327270D03*
X335280Y310270D03*
D14*
X372990Y314960D03*
X355990Y314960D03*
D10*
X355600Y568570D03*
X355600Y551570D03*
X212090Y406790D03*
X212090Y423790D03*
X373380Y25790D03*
X373380Y42790D03*
X332740Y444110D03*
X332740Y427110D03*
X441960Y421250D03*
X441960Y404250D03*
X364490Y291710D03*
X364490Y274710D03*
D14*
X165490Y375920D03*
X182490Y375920D03*
X252340Y347980D03*
X235340Y347980D03*
D11*
X321970Y263090D03*
X331470Y263090D03*
X340970Y263090D03*
X340970Y288090D03*
X321970Y288090D03*
D21*
X358750Y234020D03*
X339750Y234020D03*
X349250Y213020D03*
D14*
X228600Y326000D03*
X228600Y309000D03*
X147320Y286630D03*
X147320Y269630D03*
D10*
X249310Y231140D03*
X266310Y231140D03*
X274320Y324730D03*
X274320Y307730D03*
X304800Y324730D03*
X304800Y307730D03*
M02*
