M48
;GenerationSoftware,Autodesk,EAGLE,9.6.2*%
;CreationDate,2024-05-12T07:39:05Z*%
FMAT,2
ICI,OFF
METRIC,TZ,000.000
T15C0.350
T14C0.400
T13C0.450
T12C0.550
T11C0.650
T10C0.657
T9C0.700
T8C0.800
T7C0.990
T6C1.016
T5C1.020
T4C1.600
T3C1.660
T2C3.302
T1C3.640
%
G90
M71
T1
X8296Y49424
X5246Y54324
X11246Y54324
T2
X2540Y-7620
X48260Y-7620
X48260Y64770
X2540Y64770
T3
X18927Y66294
X10727Y66294
T4
X16764Y42291
X43053Y60579
X17145Y33147
X28575Y65532
X49816Y6966
X2286Y0
X22860Y-7747
X10873Y27893
X11049Y42291
X19050Y48387
X11036Y22351
X16845Y21755
X40767Y-7620
X28575Y-7620
X26416Y12192
X48768Y20193
X43180Y35431
X48768Y27051
X10850Y33698
T5
X19573Y16650
X17033Y16650
X14493Y16650
X11953Y16650
X26416Y0
X26416Y2540
X26416Y5080
X26416Y-2540
T6
X40652Y30552
X40513Y26543
X43053Y26543
X43192Y30552
T7
X6060Y29897
X5933Y20245
X1433Y20245
X5933Y26745
X1433Y26745
X1560Y29897
X6060Y36397
X5933Y38914
X1433Y38914
X5933Y45414
X1433Y45414
X1560Y36397
T8
X16827Y66294
X14827Y66294
X12827Y66294
T9
X41910Y20828
X40640Y19558
X40640Y22098
X39370Y20828
T10
X3048Y8763
X3048Y13643
T11
X22860Y37719
X33655Y46863
X35433Y53340
X28575Y50419
X25892Y46985
X27051Y34036
X20574Y44196
T12
X19812Y-3048
X19812Y1143
X23158Y17555
T13
X33059Y58842
X44577Y45339
X21590Y25439
X31623Y-1143
X23622Y24384
X28091Y23999
X40767Y-1143
X30099Y55626
X34671Y11811
X30734Y16637
X35052Y7620
X38100Y26289
X39149Y33186
X30480Y11938
X26035Y19177
X33147Y17907
X20193Y25146
X38481Y16383
X32766Y-2286
X35433Y-4191
X30861Y6477
X32385Y3810
X40767Y6477
X32766Y16764
X8001Y2286
X34671Y36576
X30861Y-3429
X38619Y50257
X22860Y6096
X43815Y43434
X24765Y32004
T14
X36195Y25527
X25923Y50374
T15
X13944Y10133
X16557Y7580
X11430Y3810
X27742Y21480
X24445Y56698
X21103Y55457
X21336Y59055
X21844Y2159
X13081Y2794
X16225Y1644
X28575Y8001
X33147Y1905
X28575Y3810
X41910Y49530
X23622Y8382
X32385Y23622
X46609Y8001
X46863Y5334
X15694Y2677
X18288Y10287
X30480Y27051
X6350Y0
X21590Y3810
X37719Y11049
X36839Y12538
X21336Y22098
X33909Y41529
X8001Y38100
X12161Y1589
X45720Y54610
X33862Y48257
X20320Y35560
X46990Y34290
X44450Y0
X30493Y8326
X22860Y20320
X26670Y16510
X16510Y55880
X7620Y62230
X24130Y67310
M30